<svg width="20" height="18" viewBox="0 0 20 18" fill="none" xmlns="http://www.w3.org/2000/svg">
<path d="M19.3445 2.12625L14.9006 0.10125H13.9896L10.0012 1.9125L6.01282 0.10125H5.95727L5.82395 0H5.15736L0.713463 2.025C0.49181 2.111 0.303187 2.26663 0.175233 2.46908C0.0472799 2.67154 -0.0132765 2.91016 0.00243814 3.15V16.875C0.00274781 17.0632 0.0496952 17.2484 0.13898 17.4135C0.228264 17.5786 0.357032 17.7184 0.513487 17.82C0.692303 17.937 0.900538 17.9994 1.11341 18C1.27061 17.9993 1.42586 17.9648 1.56891 17.8988L5.55732 16.0875L9.54572 17.8988H9.60127C9.72647 17.958 9.863 17.9888 10.0012 17.9888C10.1394 17.9888 10.276 17.958 10.4012 17.8988H10.4567L14.4451 16.0875L18.4335 17.8988C18.5766 17.9648 18.7318 17.9993 18.889 18C19.1019 17.9994 19.3101 17.937 19.489 17.82C19.6454 17.7184 19.7742 17.5786 19.8635 17.4135C19.9527 17.2484 19.9997 17.0632 20 16.875V3.15C19.9996 2.93359 19.9375 2.72191 19.8212 2.54033C19.705 2.35875 19.5394 2.21498 19.3445 2.12625ZM5.66829 2.86875L8.89024 3.87V15.12L5.66829 14.1187V2.86875ZM17.778 15.1313L14.5561 14.13V2.88L17.778 3.88125V15.1313Z" fill="#D3D5DA"/>
</svg>
