<svg width="18" height="20" viewBox="0 0 18 20" fill="none" xmlns="http://www.w3.org/2000/svg">
<path d="M16.5063 12.4901C17.1603 11.2619 17.5013 9.89149 17.4993 8.50008C17.4993 3.80558 13.6938 7.62939e-05 8.99928 7.62939e-05C4.30478 7.62939e-05 0.49928 3.80558 0.49928 8.50008C0.495839 10.5052 1.20463 12.4464 2.49928 13.9776L2.50928 13.9901C2.51278 13.9931 2.51578 13.9971 2.51828 14.0001H2.49928L7.54328 19.3551C7.73026 19.5536 7.95586 19.7117 8.2062 19.8198C8.45654 19.9279 8.72635 19.9837 8.99903 19.9837C9.27172 19.9837 9.54152 19.9279 9.79186 19.8198C10.0422 19.7117 10.2678 19.5536 10.4548 19.3551L15.4993 14.0001H15.4803L15.4883 13.9906L15.4893 13.9896C15.5253 13.9466 15.5613 13.9036 15.5968 13.8596C15.9436 13.4333 16.2483 12.9745 16.5068 12.4896L16.5063 12.4901ZM9.00128 11.7501C8.20563 11.7501 7.44257 11.434 6.87996 10.8714C6.31735 10.3088 6.00128 9.54573 6.00128 8.75008C6.00128 7.95443 6.31735 7.19136 6.87996 6.62876C7.44257 6.06615 8.20563 5.75008 9.00128 5.75008C9.79693 5.75008 10.56 6.06615 11.1226 6.62876C11.6852 7.19136 12.0013 7.95443 12.0013 8.75008C12.0013 9.54573 11.6852 10.3088 11.1226 10.8714C10.56 11.434 9.79693 11.7501 9.00128 11.7501Z" fill="#D3D5DA"/>
</svg>
