<svg width="18" height="18" viewBox="0 0 18 18" fill="none" xmlns="http://www.w3.org/2000/svg">
<path d="M16 12.18V4C16 1.79 14.21 0 12 0C9.79 0 8 1.79 8 4V14C8 15.1 7.1 16 6 16C4.9 16 4 15.1 4 14V5.82C5.16 5.4 6 4.3 6 3C6 1.34 4.66 0 3 0C1.34 0 0 1.34 0 3C0 4.3 0.84 5.4 2 5.82V14C2 16.21 3.79 18 6 18C8.21 18 10 16.21 10 14V4C10 2.9 10.9 2 12 2C13.1 2 14 2.9 14 4V12.18C13.334 12.4159 12.7729 12.8797 12.4157 13.4892C12.0584 14.0988 11.9281 14.815 12.0478 15.5113C12.1674 16.2077 12.5293 16.8393 13.0695 17.2947C13.6097 17.7501 14.2935 17.9999 15 18C16.66 18 18 16.66 18 15C18 13.7 17.16 12.6 16 12.18Z" fill="#D3D5DA"/>
</svg>
