<svg width="24" height="24" viewBox="0 0 24 24" fill="none" xmlns="http://www.w3.org/2000/svg">
<path d="M12.0002 24C18.6277 24 24.0002 18.6274 24.0002 12C24.0002 5.37258 18.6277 0 12.0002 0C5.37283 0 0.000244141 5.37258 0.000244141 12C0.000244141 18.6274 5.37283 24 12.0002 24Z" fill="#6FCF97"/>
<path d="M14.778 8.70083C14.778 7.21159 13.5319 6 12.0002 6C10.4686 6 9.22247 7.21159 9.22247 8.70083C9.22247 10.1901 10.4686 11.4017 12.0002 11.4017C13.5319 11.4017 14.778 10.1901 14.778 8.70083ZM12.0002 11.4017C9.24324 11.4017 7.00024 13.5825 7.00024 16.2632V16.7694C7.00024 16.923 7.06743 17.0692 7.18506 17.1717C8.53832 18.3507 10.2484 19 12.0002 19C13.7521 19 15.4622 18.3507 16.8154 17.1717C16.9331 17.0692 17.0002 16.9229 17.0002 16.7694V16.2632C17.0002 13.5825 14.7572 11.4017 12.0002 11.4017Z" fill="white"/>
</svg>
