<svg width="24" height="24" viewBox="0 0 24 24" fill="none" xmlns="http://www.w3.org/2000/svg">
<path d="M21.3445 5.12625L16.9006 3.10125H15.9896L12.0012 4.9125L8.01282 3.10125H7.95727L7.82395 3H7.15736L2.71346 5.025C2.49181 5.111 2.30319 5.26663 2.17523 5.46908C2.04728 5.67154 1.98672 5.91016 2.00244 6.15V19.875C2.00275 20.0632 2.0497 20.2484 2.13898 20.4135C2.22826 20.5786 2.35703 20.7184 2.51349 20.82C2.6923 20.937 2.90054 20.9994 3.11341 21C3.27061 20.9993 3.42586 20.9648 3.56891 20.8988L7.55732 19.0875L11.5457 20.8988H11.6013C11.7265 20.958 11.863 20.9888 12.0012 20.9888C12.1394 20.9888 12.276 20.958 12.4012 20.8988H12.4567L16.4451 19.0875L20.4335 20.8988C20.5766 20.9648 20.7318 20.9993 20.889 21C21.1019 20.9994 21.3101 20.937 21.489 20.82C21.6454 20.7184 21.7742 20.5786 21.8635 20.4135C21.9527 20.2484 21.9997 20.0632 22 19.875V6.15C21.9996 5.93359 21.9375 5.72191 21.8212 5.54033C21.705 5.35875 21.5394 5.21498 21.3445 5.12625ZM7.66829 5.86875L10.8902 6.87V18.12L7.66829 17.1187V5.86875ZM19.778 18.1313L16.5561 17.13V5.88L19.778 6.88125V18.1313Z" fill="#27AE60"/>
</svg>
