<svg width="24" height="24" viewBox="0 0 24 24" fill="none" xmlns="http://www.w3.org/2000/svg">
<path d="M19.5063 14.4901C20.1603 13.2619 20.5013 11.8915 20.4993 10.5001C20.4993 5.80558 16.6938 2.00008 11.9993 2.00008C7.30478 2.00008 3.49928 5.80558 3.49928 10.5001C3.49584 12.5052 4.20463 14.4464 5.49928 15.9776L5.50928 15.9901C5.51278 15.9931 5.51578 15.9971 5.51828 16.0001H5.49928L10.5433 21.3551C10.7303 21.5536 10.9559 21.7117 11.2062 21.8198C11.4565 21.9279 11.7263 21.9837 11.999 21.9837C12.2717 21.9837 12.5415 21.9279 12.7919 21.8198C13.0422 21.7117 13.2678 21.5536 13.4548 21.3551L18.4993 16.0001H18.4803L18.4883 15.9906L18.4893 15.9896C18.5253 15.9466 18.5613 15.9036 18.5968 15.8596C18.9436 15.4333 19.2483 14.9745 19.5068 14.4896L19.5063 14.4901ZM12.0013 13.7501C11.2056 13.7501 10.4426 13.434 9.87996 12.8714C9.31735 12.3088 9.00128 11.5457 9.00128 10.7501C9.00128 9.95443 9.31735 9.19136 9.87996 8.62876C10.4426 8.06615 11.2056 7.75008 12.0013 7.75008C12.7969 7.75008 13.56 8.06615 14.1226 8.62876C14.6852 9.19136 15.0013 9.95443 15.0013 10.7501C15.0013 11.5457 14.6852 12.3088 14.1226 12.8714C13.56 13.434 12.7969 13.7501 12.0013 13.7501Z" fill="#27AE60"/>
</svg>
