<svg width="20" height="20" viewBox="0 0 20 20" fill="none" xmlns="http://www.w3.org/2000/svg">
<path d="M18.7524 11H14.3132C13.7722 11 13.2924 11.3264 13.1266 11.809C12.6868 13.0857 11.4298 13.9428 10 13.9428C8.56976 13.9428 7.31317 13.0857 6.87366 11.809C6.70732 11.3264 6.22805 11 5.68659 11H1.24756C0.558537 11 0 11.5226 0 12.1684V18.8321C0 19.4767 0.558537 20 1.24756 20H18.7527C19.4422 20 20 19.4767 20 18.8321V12.1684C19.9998 11.5226 19.4417 11 18.7524 11Z" fill="#27AE60"/>
<path d="M6.59404 6.22624H8.19076V10.3514C8.19076 10.5278 8.33884 10.6696 8.521 10.6696H11.4771C11.66 10.6696 11.8073 10.5278 11.8073 10.3514V6.22624H13.4052C13.5286 6.22624 13.6419 6.15928 13.6983 6.0544C13.7262 6.00285 13.7387 5.94438 13.7344 5.88593C13.73 5.82748 13.709 5.7715 13.6738 5.72464L10.2569 1.13152C10.2255 1.0901 10.1849 1.05655 10.1383 1.03352C10.0917 1.01049 10.0403 0.998601 9.98836 0.998797H9.98764C9.88084 0.998797 9.78148 1.04848 9.71908 1.13272L6.32428 5.72488C6.28947 5.77193 6.26874 5.8279 6.26449 5.88628C6.26024 5.94466 6.27265 6.00304 6.30028 6.05464C6.35668 6.16048 6.47068 6.22624 6.59404 6.22624Z" fill="#27AE60"/>
</svg>
