<svg width="20" height="20" viewBox="0 0 20 20" fill="none" xmlns="http://www.w3.org/2000/svg">
<path d="M18.7524 10.5006H14.3132C13.7722 10.5006 13.2924 10.827 13.1266 11.3096C12.6868 12.5864 11.4298 13.4434 10 13.4434C8.56976 13.4434 7.31317 12.5864 6.87366 11.3096C6.70732 10.827 6.22805 10.5006 5.68659 10.5006H1.24756C0.558537 10.5006 0 11.0232 0 11.669V18.3327C0 18.9773 0.558537 19.5006 1.24756 19.5006H18.7527C19.4422 19.5006 20 18.9773 20 18.3327V11.669C19.9998 11.0232 19.4417 10.5006 18.7524 10.5006Z" fill="#D3D5DA"/>
<path d="M6.59404 5.72684H8.19076V9.85196C8.19076 10.0284 8.33884 10.1702 8.521 10.1702H11.4771C11.66 10.1702 11.8073 10.0284 11.8073 9.85196V5.72684H13.4052C13.5286 5.72684 13.6419 5.65988 13.6983 5.555C13.7262 5.50346 13.7387 5.44499 13.7344 5.38653C13.73 5.32808 13.709 5.2721 13.6738 5.22524L10.2569 0.63212C10.2255 0.590704 10.1849 0.557156 10.1383 0.534124C10.0917 0.511091 10.0403 0.499204 9.98836 0.4994H9.98764C9.88084 0.4994 9.78148 0.54908 9.71908 0.63332L6.32428 5.22548C6.28947 5.27254 6.26874 5.32851 6.26449 5.38688C6.26024 5.44526 6.27265 5.50364 6.30028 5.55524C6.35668 5.66108 6.47068 5.72684 6.59404 5.72684Z" fill="#D3D5DA"/>
</svg>
