<svg width="20" height="20" viewBox="0 0 20 20" fill="none" xmlns="http://www.w3.org/2000/svg">
<path d="M17 13.18V5C17 2.79 15.21 1 13 1C10.79 1 9 2.79 9 5V15C9 16.1 8.1 17 7 17C5.9 17 5 16.1 5 15V6.82C6.16 6.4 7 5.3 7 4C7 2.34 5.66 1 4 1C2.34 1 1 2.34 1 4C1 5.3 1.84 6.4 3 6.82V15C3 17.21 4.79 19 7 19C9.21 19 11 17.21 11 15V5C11 3.9 11.9 3 13 3C14.1 3 15 3.9 15 5V13.18C14.334 13.4159 13.7729 13.8797 13.4157 14.4892C13.0584 15.0988 12.9281 15.815 13.0478 16.5113C13.1674 17.2077 13.5293 17.8393 14.0695 18.2947C14.6097 18.7501 15.2935 18.9999 16 19C17.66 19 19 17.66 19 16C19 14.7 18.16 13.6 17 13.18Z" fill="#27AE60"/>
</svg>
