<svg width="19" height="19" viewBox="0 0 19 19" fill="none" xmlns="http://www.w3.org/2000/svg">
<path d="M1.422 18.079L1.42086 18.079C1.35149 18.0789 1.2829 18.0643 1.21946 18.0363C1.15602 18.0082 1.09911 17.9672 1.05236 17.916L1.05239 17.916L1.04788 17.9112C1.00086 17.861 0.964977 17.8014 0.94259 17.7364C0.92023 17.6714 0.911836 17.6025 0.917956 17.534C0.917964 17.534 0.917971 17.5339 0.917979 17.5338L1.14654 15.0206L11.983 4.18799L14.8128 7.01702L3.97946 17.8484L1.46571 18.0771L1.4651 18.0771C1.45079 18.0784 1.43641 18.0791 1.422 18.079ZM17.9934 3.83544L16.226 5.60289L13.3971 2.774L15.1645 1.00655L15.1647 1.00635C15.2112 0.959865 15.2663 0.922986 15.327 0.897824C15.3877 0.872662 15.4528 0.859711 15.5185 0.859711C15.5842 0.859711 15.6493 0.872662 15.71 0.897824C15.7707 0.922987 15.8258 0.959867 15.8722 1.00635L15.8724 1.00655L17.9934 3.12755L17.9936 3.12775C18.0401 3.17419 18.077 3.22933 18.1022 3.29002C18.1273 3.35073 18.1403 3.41579 18.1403 3.4815C18.1403 3.5472 18.1273 3.61227 18.1022 3.67297C18.077 3.73366 18.0401 3.78881 17.9936 3.83525L17.9934 3.83544Z" fill="#27AE60" stroke="#27AE60"/>
</svg>
