<svg width="32" height="32" viewBox="0 0 32 32" fill="none" xmlns="http://www.w3.org/2000/svg">
<path fill-rule="evenodd" clip-rule="evenodd" d="M17.1543 3.93068C17.1516 3.98765 17.1487 4.04607 17.1457 4.10598C17.1142 4.72168 16.5895 5.19528 15.9738 5.16379C15.3581 5.1323 14.8845 4.60765 14.916 3.99195C14.9183 3.94728 14.9203 3.89546 14.9225 3.8375C14.9403 3.36513 14.9736 2.48426 15.3247 1.72702C15.5405 1.26162 15.8858 0.80594 16.4247 0.476912C16.9575 0.151593 17.5978 -0.000135654 18.3257 -0.000136761C18.9422 -0.000137311 19.442 0.499637 19.442 1.11614C19.442 1.73264 18.9422 2.23242 18.3257 2.23242C17.9061 2.23242 17.6925 2.31862 17.5881 2.38236C17.4898 2.4424 17.4147 2.52691 17.3502 2.66605C17.1998 2.9903 17.1801 3.39741 17.1543 3.93068Z" fill="#38D27B"/>
<mask id="mask0_1599_1858" style="mask-type:alpha" maskUnits="userSpaceOnUse" x="1" y="3" width="30" height="29">
<ellipse cx="16.186" cy="17.7673" rx="14.6977" ry="14.2326" fill="#A4CE52"/>
</mask>
<g mask="url(#mask0_1599_1858)">
<ellipse cx="16.4641" cy="17.7673" rx="15.3488" ry="14.2326" fill="#38D27B"/>
<path fill-rule="evenodd" clip-rule="evenodd" d="M6.30001 14.108C7.57783 8.26766 10.503 3.36048 12.8453 0.587851L14.9772 2.3888C12.8864 4.86359 10.194 9.36703 9.02622 14.7045C7.86581 20.0082 8.21864 26.0726 12.0902 31.8486L9.77202 33.4024C5.38841 26.8624 5.01481 19.982 6.30001 14.108Z" fill="#26B664"/>
<path fill-rule="evenodd" clip-rule="evenodd" d="M1.13661 10.5369C3.66158 5.11777 7.58979 0.969707 10.4821 -1.22311L12.1681 1.00072C9.58649 2.95798 5.97375 6.76303 3.6662 11.7155C1.37323 16.6367 0.390326 22.6314 2.90395 29.1146L0.30197 30.1234C-2.54414 22.7827 -1.40294 15.9873 1.13661 10.5369Z" fill="#465F18"/>
<path fill-rule="evenodd" clip-rule="evenodd" d="M15.3593 33.5002C16.8225 21.8678 15.1724 8.40234 14.1641 3.1465L16.9048 2.62067C17.9429 8.0315 19.6417 21.8157 18.1282 33.8484L15.3593 33.5002Z" fill="#26B664"/>
<path fill-rule="evenodd" clip-rule="evenodd" d="M25.9534 13.6348C24.4817 7.90245 21.3936 3.14542 18.9603 0.479934L16.8993 2.36144C19.0701 4.73942 21.9079 9.09988 23.2504 14.3288C24.584 19.523 24.4325 25.5126 20.7593 31.3289L23.1189 32.819C27.2882 26.2171 27.4341 19.4017 25.9534 13.6348Z" fill="#26B664"/>
</g>
<path d="M0.558594 10.6047C0.558594 9.0634 1.80803 7.81396 3.34929 7.81396H28.8377C30.3789 7.81396 31.6284 9.0634 31.6284 10.6047V18.0465C31.6284 19.5878 30.3789 20.8372 28.8377 20.8372H20.3016C19.3267 20.8372 18.4225 20.3285 17.9164 19.4952L16.8866 17.7997C16.4439 17.0708 15.3805 17.0874 14.9608 17.8297L14.0614 19.4202C13.5662 20.2958 12.6381 20.8372 11.6322 20.8372H3.34929C1.80803 20.8372 0.558594 19.5878 0.558594 18.0465V10.6047Z" fill="white"/>
<path fill-rule="evenodd" clip-rule="evenodd" d="M28.8377 9.30234H3.34929C2.63004 9.30234 2.04697 9.88541 2.04697 10.6047V18.0465C2.04697 18.7658 2.63004 19.3488 3.34929 19.3488H11.6322C12.1016 19.3488 12.5347 19.0962 12.7658 18.6876L13.6652 17.097C14.6446 15.3651 17.1258 15.3264 18.1587 17.027L19.1885 18.7226C19.4247 19.1114 19.8467 19.3488 20.3016 19.3488H28.8377C29.5569 19.3488 30.14 18.7658 30.14 18.0465V10.6047C30.14 9.88541 29.5569 9.30234 28.8377 9.30234ZM3.34929 7.81396C1.80803 7.81396 0.558594 9.0634 0.558594 10.6047V18.0465C0.558594 19.5878 1.80803 20.8372 3.34929 20.8372H11.6322C12.6381 20.8372 13.5662 20.2958 14.0614 19.4202L14.9608 17.8297C15.3805 17.0874 16.4439 17.0708 16.8866 17.7997L17.9164 19.4952C18.4225 20.3285 19.3267 20.8372 20.3016 20.8372H28.8377C30.3789 20.8372 31.6284 19.5878 31.6284 18.0465V10.6047C31.6284 9.0634 30.3789 7.81396 28.8377 7.81396H3.34929Z" fill="#3745B0"/>
<path fill-rule="evenodd" clip-rule="evenodd" d="M20.8384 22.6045C21.2494 22.6045 21.5826 22.9377 21.5826 23.3487C21.5826 24.2125 20.9818 24.8363 20.3481 25.2412C19.693 25.6597 18.8293 25.9644 17.9142 26.1621C16.0914 26.556 13.8334 26.5733 12.138 26.0082C11.7481 25.8782 11.5373 25.4567 11.6673 25.0668C11.7973 24.6769 12.2187 24.4662 12.6086 24.5962C13.9829 25.0543 15.9575 25.0623 17.5998 24.7073C18.4173 24.5307 19.0943 24.276 19.5468 23.9869C20.0206 23.6843 20.0942 23.4523 20.0942 23.3487C20.0942 22.9377 20.4274 22.6045 20.8384 22.6045Z" fill="#3745B0"/>
</svg>
