<svg width="18" height="20" viewBox="0 0 18 20" fill="none" xmlns="http://www.w3.org/2000/svg">
<path d="M8.99935 0C13.6019 0 17.3327 3.68501 17.3327 8.23113C17.3327 11.7093 14.8583 15.4999 9.97371 19.6433C9.7021 19.8737 9.35581 20.0003 8.99775 20C8.63969 19.9997 8.29362 19.8725 8.02243 19.6416L7.69935 19.3647C3.03097 15.3293 0.666016 11.6316 0.666016 8.23113C0.666016 3.68501 4.39679 0 8.99935 0ZM8.99935 5.06531C8.1493 5.06531 7.33406 5.39885 6.73298 5.99256C6.1319 6.58626 5.79422 7.3915 5.79422 8.23113C5.79422 9.07076 6.1319 9.876 6.73298 10.4697C7.33406 11.0634 8.1493 11.397 8.99935 11.397C9.8494 11.397 10.6646 11.0634 11.2657 10.4697C11.8668 9.876 12.2045 9.07076 12.2045 8.23113C12.2045 7.3915 11.8668 6.58626 11.2657 5.99256C10.6646 5.39885 9.8494 5.06531 8.99935 5.06531Z" fill="#EB5757"/>
</svg>
