<svg width="32" height="32" viewBox="0 0 32 32" fill="none" xmlns="http://www.w3.org/2000/svg">
<path d="M28.7019 15.9369C29.2265 16.0783 29.5691 16.5823 29.5079 17.1228L29.2279 19.5954L25.2251 18.5171C24.7005 18.3758 24.358 17.8717 24.4192 17.3312L24.6992 14.8586L28.7019 15.9369Z" fill="#DBDBDB"/>
<path d="M28.7019 15.9369C29.2265 16.0783 29.5691 16.5823 29.5079 17.1228L29.2279 19.5954L25.2251 18.5171C24.7005 18.3758 24.358 17.8717 24.4192 17.3312L24.6992 14.8586L28.7019 15.9369Z" fill="url(#paint0_linear_2439_3733)"/>
<path d="M27.7477 20.8115C28.1784 21.1431 28.3021 21.7399 28.039 22.2158L26.8347 24.3934L23.5496 21.864C23.119 21.5324 22.9952 20.9356 23.2584 20.4597L24.4627 18.2821L27.7477 20.8115Z" fill="#DBDBDB"/>
<path d="M27.7477 20.8115C28.1784 21.1431 28.3021 21.7399 28.039 22.2158L26.8347 24.3934L23.5496 21.864C23.119 21.5324 22.9952 20.9356 23.2584 20.4597L24.4627 18.2821L27.7477 20.8115Z" fill="url(#paint1_linear_2439_3733)"/>
<path d="M25.0115 24.9425C25.2843 25.4129 25.1728 26.0121 24.7491 26.3526L22.8095 27.9108L20.7288 24.3233C20.456 23.8529 20.5676 23.2537 20.9913 22.9132L22.9308 21.355L25.0115 24.9425Z" fill="#DBDBDB"/>
<path d="M25.0115 24.9425C25.2843 25.4129 25.1728 26.0121 24.7491 26.3526L22.8095 27.9108L20.7288 24.3233C20.456 23.8529 20.5676 23.2537 20.9913 22.9132L22.9308 21.355L25.0115 24.9425Z" fill="url(#paint2_linear_2439_3733)"/>
<path d="M20.8454 27.742C20.9135 28.2816 20.5775 28.7901 20.0549 28.9384L17.6621 29.6173L17.1429 25.5015C17.0748 24.9618 17.4108 24.4534 17.9334 24.3051L20.3262 23.6262L20.8454 27.742Z" fill="#DBDBDB"/>
<path d="M20.8454 27.742C20.9135 28.2816 20.5775 28.7901 20.0549 28.9384L17.6621 29.6173L17.1429 25.5015C17.0748 24.9618 17.4108 24.4534 17.9334 24.3051L20.3262 23.6262L20.8454 27.742Z" fill="url(#paint3_linear_2439_3733)"/>
<path d="M15.9795 28.7122C15.8361 29.2369 15.3314 29.5781 14.7918 29.515L12.3219 29.2262L13.4154 25.2242C13.5588 24.6995 14.0636 24.3583 14.6032 24.4214L17.0731 24.7102L15.9795 28.7122Z" fill="#DBDBDB"/>
<path d="M11.1158 27.7411C10.7828 28.171 10.186 28.2929 9.71157 28.0279L7.54051 26.8154L10.0808 23.5361C10.4137 23.1062 11.0106 22.9843 11.485 23.2493L13.6561 24.4618L11.1158 27.7411Z" fill="#DBDBDB"/>
<path d="M7.01228 25.0042C6.54136 25.2756 5.94299 25.1616 5.60441 24.7362L4.05561 22.7901L7.64879 20.7199C8.11972 20.4486 8.71809 20.5625 9.05667 20.9879L10.6055 22.934L7.01228 25.0042Z" fill="#DBDBDB"/>
<path d="M4.21843 20.8077C3.67918 20.8739 3.17257 20.5355 3.02649 20.0116L2.35832 17.6151L6.47321 17.11C7.01247 17.0438 7.51907 17.3822 7.66516 17.9062L8.33332 20.3027L4.21843 20.8077Z" fill="#DBDBDB"/>
<path d="M27.7141 11.0734C28.2528 11.0031 28.762 11.3375 28.9121 11.8604L29.5988 14.2516L25.4879 14.7884C24.9492 14.8588 24.44 14.5243 24.2898 14.0015L23.6032 11.6102L27.7141 11.0734Z" fill="url(#paint4_linear_2439_3733)"/>
<path d="M16.068 3.25969C16.2152 2.73608 16.7224 2.39876 17.2614 2.46599L19.729 2.77373L18.6065 6.76747C18.4594 7.29108 17.9521 7.6284 17.4131 7.56117L14.9455 7.25343L16.068 3.25969Z" fill="url(#paint5_linear_2439_3733)"/>
<path d="M20.9325 4.2637C21.2686 3.83626 21.8663 3.71872 22.3388 3.98714L24.501 5.2154L21.937 8.4762C21.6009 8.90363 21.0032 9.02117 20.5307 8.75275L18.3685 7.52449L20.9325 4.2637Z" fill="url(#paint6_linear_2439_3733)"/>
<path d="M25.0483 7.05679C25.5222 6.79077 26.1193 6.9114 26.4531 7.34062L27.9799 9.30397L24.3638 11.3337C23.8899 11.5998 23.2928 11.4791 22.959 11.0499L21.4321 9.08656L25.0483 7.05679Z" fill="url(#paint7_linear_2439_3733)"/>
<path d="M3.26878 15.9484C2.74525 15.8032 2.4065 15.2966 2.47174 14.7566L2.7702 12.2861L6.76474 13.3944C7.28826 13.5396 7.62702 14.0462 7.56177 14.5862L7.26332 17.0567L3.26878 15.9484Z" fill="#DBDBDB"/>
<path d="M4.25684 11.0806C3.82864 10.7459 3.7092 10.1482 3.97582 9.67425L5.19587 7.50544L8.46249 10.0587C8.89069 10.3934 9.01012 10.9911 8.7435 11.465L7.52345 13.6338L4.25684 11.0806Z" fill="#DBDBDB"/>
<path d="M7.03328 6.95302C6.76577 6.47964 6.88402 5.88167 7.31151 5.54604L9.26839 4.00966L11.3088 7.62033C11.5763 8.09372 11.458 8.69168 11.0305 9.02731L9.07366 10.5637L7.03328 6.95302Z" fill="#DBDBDB"/>
<path d="M11.2181 4.19423C11.1542 3.65407 11.4941 3.14822 12.0179 3.00398L14.4158 2.34362L14.9033 6.46329C14.9672 7.00345 14.6273 7.5093 14.1036 7.65354L11.7056 8.3139L11.2181 4.19423Z" fill="#DBDBDB"/>
<circle cx="16" cy="16" r="9.5" fill="#FF8855" stroke="white"/>
<path d="M17.9766 10.744C18.0731 10.3569 18.3707 9.548 18.7894 9.40866" stroke="black" stroke-width="0.2"/>
<circle cx="15.8816" cy="16.6655" r="5.69017" fill="#4F29DE"/>
<path d="M15.4688 16.4206C15.5014 16.9514 15.7867 17.7733 16.6665 16.8146" stroke="white" stroke-width="0.3" stroke-linecap="round"/>
<path d="M7.39273 17.6209L8.30789 18.1524L8.65942 17.5304L8.81775 18.3447L9.63204 18.4125L9.02132 18.797L9.48501 19.5661L8.59156 19.2155L8.1618 20.109V19.1137L7.21094 18.8649L8.02522 18.5935L7.39273 17.6209Z" fill="#FFDD66"/>
<ellipse cx="13.9184" cy="14.6659" rx="1.6489" ry="1.51939" fill="#FFE8E4"/>
<ellipse cx="13.9166" cy="14.6727" rx="0.428711" ry="0.936267" transform="rotate(16.8327 13.9166 14.6727)" fill="#090644"/>
<path d="M16.3912 10.0891L15.7969 11.016L19.5546 12.3844L19.7195 11.3952C19.3992 10.4155 17.2154 10.0734 16.3912 10.0891Z" fill="#4F29DE"/>
<ellipse cx="18.977" cy="15.647" rx="1.6489" ry="1.51939" fill="#FFE8E4"/>
<path d="M17.6447 7.96109L18.6683 8.55562L19.0615 7.85989L19.2386 8.77066L20.1494 8.84656L19.4663 9.27664L19.9849 10.1368L18.9856 9.74467L18.5049 10.744V9.63082L17.4414 9.35254L18.3522 9.04895L17.6447 7.96109Z" fill="#FFDD66"/>
<path d="M25.4147 15.9564L24.4866 15.7251L24.0017 16.5832L23.7832 15.4598L22.6598 15.3662L23.5024 14.8357L22.8627 13.7747L24.0953 14.2584L24.6882 13.0258V14.3988L26 14.7421L24.8766 15.1166L25.4147 15.9564Z" fill="#FFDD66"/>
<path d="M15.8281 10.9826C16.2996 11.0286 17.3732 11.1031 17.814 11.3237" stroke="#060074" stroke-width="0.2"/>
<ellipse cx="18.9791" cy="15.693" rx="0.428711" ry="0.936267" transform="rotate(16.8327 18.9791 15.693)" fill="#090644"/>
<defs>
<linearGradient id="paint0_linear_2439_3733" x1="27.3923" y1="15.7875" x2="15.6355" y2="25.1037" gradientUnits="userSpaceOnUse">
<stop stop-color="#8EEB62"/>
<stop offset="1" stop-color="#FFA51E"/>
</linearGradient>
<linearGradient id="paint1_linear_2439_3733" x1="27.3923" y1="15.7875" x2="15.6355" y2="25.1037" gradientUnits="userSpaceOnUse">
<stop stop-color="#8EEB62"/>
<stop offset="1" stop-color="#FFA51E"/>
</linearGradient>
<linearGradient id="paint2_linear_2439_3733" x1="27.3923" y1="15.7875" x2="15.6355" y2="25.1037" gradientUnits="userSpaceOnUse">
<stop stop-color="#8EEB62"/>
<stop offset="1" stop-color="#FFA51E"/>
</linearGradient>
<linearGradient id="paint3_linear_2439_3733" x1="27.3923" y1="15.7875" x2="15.6355" y2="25.1037" gradientUnits="userSpaceOnUse">
<stop stop-color="#8EEB62"/>
<stop offset="1" stop-color="#FFA51E"/>
</linearGradient>
<linearGradient id="paint4_linear_2439_3733" x1="10.3216" y1="3.49239" x2="29.6763" y2="14.1108" gradientUnits="userSpaceOnUse">
<stop stop-color="#27AEAE"/>
<stop offset="1" stop-color="#88E75B"/>
</linearGradient>
<linearGradient id="paint5_linear_2439_3733" x1="10.3216" y1="3.49239" x2="29.6763" y2="14.1108" gradientUnits="userSpaceOnUse">
<stop stop-color="#27AEAE"/>
<stop offset="1" stop-color="#88E75B"/>
</linearGradient>
<linearGradient id="paint6_linear_2439_3733" x1="10.3216" y1="3.49239" x2="29.6763" y2="14.1108" gradientUnits="userSpaceOnUse">
<stop stop-color="#27AEAE"/>
<stop offset="1" stop-color="#88E75B"/>
</linearGradient>
<linearGradient id="paint7_linear_2439_3733" x1="10.3216" y1="3.49239" x2="29.6763" y2="14.1108" gradientUnits="userSpaceOnUse">
<stop stop-color="#27AEAE"/>
<stop offset="1" stop-color="#88E75B"/>
</linearGradient>
</defs>
</svg>
