<svg width="32" height="32" viewBox="0 0 32 32" fill="none" xmlns="http://www.w3.org/2000/svg">
<path d="M28.7019 15.9369C29.2265 16.0783 29.5691 16.5823 29.5079 17.1228L29.2279 19.5954L25.2251 18.5171C24.7005 18.3758 24.358 17.8717 24.4192 17.3312L24.6992 14.8586L28.7019 15.9369Z" fill="#DBDBDB"/>
<path d="M28.7019 15.9369C29.2265 16.0783 29.5691 16.5823 29.5079 17.1228L29.2279 19.5954L25.2251 18.5171C24.7005 18.3758 24.358 17.8717 24.4192 17.3312L24.6992 14.8586L28.7019 15.9369Z" fill="url(#paint0_linear_2439_3741)"/>
<path d="M27.7477 20.8115C28.1784 21.1431 28.3021 21.7399 28.039 22.2158L26.8347 24.3934L23.5496 21.864C23.119 21.5324 22.9952 20.9356 23.2584 20.4597L24.4627 18.2821L27.7477 20.8115Z" fill="#DBDBDB"/>
<path d="M27.7477 20.8115C28.1784 21.1431 28.3021 21.7399 28.039 22.2158L26.8347 24.3934L23.5496 21.864C23.119 21.5324 22.9952 20.9356 23.2584 20.4597L24.4627 18.2821L27.7477 20.8115Z" fill="url(#paint1_linear_2439_3741)"/>
<path d="M25.0115 24.9425C25.2843 25.4129 25.1728 26.0121 24.7491 26.3526L22.8095 27.9108L20.7288 24.3233C20.456 23.8529 20.5676 23.2537 20.9913 22.9132L22.9308 21.355L25.0115 24.9425Z" fill="#DBDBDB"/>
<path d="M25.0115 24.9425C25.2843 25.4129 25.1728 26.0121 24.7491 26.3526L22.8095 27.9108L20.7288 24.3233C20.456 23.8529 20.5676 23.2537 20.9913 22.9132L22.9308 21.355L25.0115 24.9425Z" fill="url(#paint2_linear_2439_3741)"/>
<path d="M20.8454 27.742C20.9135 28.2816 20.5775 28.7901 20.0549 28.9384L17.6621 29.6173L17.1429 25.5015C17.0748 24.9618 17.4108 24.4534 17.9334 24.3051L20.3262 23.6262L20.8454 27.742Z" fill="#DBDBDB"/>
<path d="M20.8454 27.742C20.9135 28.2816 20.5775 28.7901 20.0549 28.9384L17.6621 29.6173L17.1429 25.5015C17.0748 24.9618 17.4108 24.4534 17.9334 24.3051L20.3262 23.6262L20.8454 27.742Z" fill="url(#paint3_linear_2439_3741)"/>
<path d="M15.9795 28.7122C15.8361 29.2369 15.3314 29.5781 14.7918 29.515L12.3219 29.2262L13.4154 25.2242C13.5588 24.6995 14.0636 24.3583 14.6032 24.4214L17.0731 24.7102L15.9795 28.7122Z" fill="#DBDBDB"/>
<path d="M15.9795 28.7122C15.8361 29.2369 15.3314 29.5781 14.7918 29.515L12.3219 29.2262L13.4154 25.2242C13.5588 24.6995 14.0636 24.3583 14.6032 24.4214L17.0731 24.7102L15.9795 28.7122Z" fill="url(#paint4_linear_2439_3741)"/>
<path d="M11.1158 27.7411C10.7828 28.171 10.186 28.2929 9.71157 28.0279L7.54051 26.8154L10.0808 23.5361C10.4137 23.1062 11.0106 22.9843 11.485 23.2493L13.6561 24.4618L11.1158 27.7411Z" fill="#DBDBDB"/>
<path d="M11.1158 27.7411C10.7828 28.171 10.186 28.2929 9.71157 28.0279L7.54051 26.8154L10.0808 23.5361C10.4137 23.1062 11.0106 22.9843 11.485 23.2493L13.6561 24.4618L11.1158 27.7411Z" fill="url(#paint5_linear_2439_3741)"/>
<path d="M7.01228 25.0042C6.54136 25.2756 5.94299 25.1616 5.60441 24.7362L4.05561 22.7901L7.64879 20.7199C8.11972 20.4486 8.71809 20.5625 9.05667 20.9879L10.6055 22.934L7.01228 25.0042Z" fill="#DBDBDB"/>
<path d="M7.01228 25.0042C6.54136 25.2756 5.94299 25.1616 5.60441 24.7362L4.05561 22.7901L7.64879 20.7199C8.11972 20.4486 8.71809 20.5625 9.05667 20.9879L10.6055 22.934L7.01228 25.0042Z" fill="url(#paint6_linear_2439_3741)"/>
<path d="M4.21843 20.8077C3.67918 20.8739 3.17257 20.5355 3.02649 20.0116L2.35832 17.6151L6.47321 17.11C7.01247 17.0438 7.51907 17.3822 7.66516 17.9062L8.33332 20.3027L4.21843 20.8077Z" fill="#DBDBDB"/>
<path d="M4.21843 20.8077C3.67918 20.8739 3.17257 20.5355 3.02649 20.0116L2.35832 17.6151L6.47321 17.11C7.01247 17.0438 7.51907 17.3822 7.66516 17.9062L8.33332 20.3027L4.21843 20.8077Z" fill="url(#paint7_linear_2439_3741)"/>
<path d="M27.7141 11.0734C28.2528 11.0031 28.762 11.3375 28.9121 11.8604L29.5988 14.2516L25.4879 14.7884C24.9492 14.8588 24.44 14.5243 24.2898 14.0015L23.6032 11.6102L27.7141 11.0734Z" fill="url(#paint8_linear_2439_3741)"/>
<path d="M16.068 3.25969C16.2152 2.73608 16.7224 2.39876 17.2614 2.46599L19.729 2.77373L18.6065 6.76747C18.4594 7.29108 17.9521 7.6284 17.4131 7.56117L14.9455 7.25343L16.068 3.25969Z" fill="url(#paint9_linear_2439_3741)"/>
<path d="M20.9325 4.2637C21.2686 3.83626 21.8663 3.71872 22.3388 3.98714L24.501 5.2154L21.937 8.4762C21.6009 8.90363 21.0032 9.02117 20.5307 8.75275L18.3685 7.52449L20.9325 4.2637Z" fill="url(#paint10_linear_2439_3741)"/>
<path d="M25.0483 7.05679C25.5222 6.79077 26.1193 6.9114 26.4531 7.34062L27.9799 9.30397L24.3638 11.3337C23.8899 11.5998 23.2928 11.4791 22.959 11.0499L21.4321 9.08656L25.0483 7.05679Z" fill="url(#paint11_linear_2439_3741)"/>
<path d="M3.26878 15.9484C2.74525 15.8032 2.4065 15.2966 2.47174 14.7566L2.7702 12.2861L6.76474 13.3944C7.28826 13.5396 7.62702 14.0462 7.56177 14.5862L7.26332 17.0567L3.26878 15.9484Z" fill="#DBDBDB"/>
<path d="M4.25684 11.0806C3.82864 10.7459 3.7092 10.1482 3.97582 9.67425L5.19587 7.50544L8.46249 10.0587C8.89069 10.3934 9.01012 10.9911 8.7435 11.465L7.52345 13.6338L4.25684 11.0806Z" fill="#DBDBDB"/>
<path d="M7.03328 6.95302C6.76577 6.47964 6.88402 5.88167 7.31151 5.54604L9.26839 4.00966L11.3088 7.62033C11.5763 8.09372 11.458 8.69168 11.0305 9.02731L9.07366 10.5637L7.03328 6.95302Z" fill="#DBDBDB"/>
<path d="M11.2181 4.19423C11.1542 3.65407 11.4941 3.14822 12.0179 3.00398L14.4158 2.34362L14.9033 6.46329C14.9672 7.00345 14.6273 7.5093 14.1036 7.65354L11.7056 8.3139L11.2181 4.19423Z" fill="#DBDBDB"/>
<circle cx="16" cy="16" r="9.5" fill="#FFD953" stroke="white"/>
<path d="M9.98362 15.988C9.60735 13.5583 10.4748 11.5942 10.9555 10.9158C11.5828 10.5112 12.6614 11.39 13.1223 11.88C14.2339 11.2841 17.0902 11.5744 18.3794 11.7941C21.9318 7.77174 22.2002 13.6847 22.2002 16.6519C22.6815 19.3449 22.0569 21.6433 17.466 21.6433C9.20537 22.0881 8.77326 18.1588 9.98362 15.988Z" fill="#383394"/>
<path d="M9.79688 19.2657C10.7855 18.4582 12.9903 18.8387 12.3355 21.2635C11.3804 21.0088 10.2002 20.2409 9.79688 19.2657Z" fill="#FF93E2"/>
<path d="M22.2383 18.9036C21.2497 18.0961 19.1702 18.9182 19.825 21.343C21.5468 20.9141 22.0689 19.9196 22.2383 18.9036Z" fill="#FF93E2"/>
<circle cx="12.6601" cy="16.9924" r="1.81637" fill="white"/>
<circle cx="19.1523" cy="16.9924" r="1.81637" fill="white"/>
<ellipse cx="12.6221" cy="16.9924" rx="0.59088" ry="1.39023" fill="#090644"/>
<ellipse cx="19.1534" cy="16.9924" rx="0.59088" ry="1.39023" fill="#090644"/>
<path d="M15.8666 18.6067C15.5324 18.5922 15.1965 18.1657 15.0703 17.9543C15.5924 17.7078 16.3508 17.8516 16.6648 17.9543C16.6793 18.3892 16.1387 18.5704 15.8666 18.6067Z" fill="#FF93E2"/>
<path d="M15.8666 18.6067C15.5324 18.5922 15.1965 18.1657 15.0703 17.9543C15.5924 17.7078 16.3508 17.8516 16.6648 17.9543C16.6793 18.3892 16.1387 18.5704 15.8666 18.6067ZM15.8666 18.6067V19.8027M15.8666 19.8027C15.6918 19.7906 15.2879 19.6504 15.0703 19.1865M15.8666 19.8027C16.0662 19.851 16.5198 19.7954 16.7373 19.1865" stroke="#FF93E2" stroke-width="0.2"/>
<path d="M13.0223 12.9186C12.123 11.7379 10.4454 10.4189 10.9299 14.5887L13.0223 12.9186Z" fill="#FF93E2"/>
<path d="M18.9269 12.5092C19.8263 11.3285 21.5039 10.0095 21.0193 14.1794L18.9269 12.5092Z" fill="#FF93E2"/>
<path d="M24.1792 18.2495L24.0487 15.0613L26.0017 16.4277L25.2426 19.5725L24.0487 18.9869L24.3751 21.4377L22.9219 17.6639L24.1792 18.2495Z" fill="#FF7966"/>
<path d="M8.01148 12.7848L8.10762 10.4367L6.66929 11.443L7.22834 13.7591L8.10762 13.3278L7.86726 15.1328L8.9375 12.3535L8.01148 12.7848Z" fill="#FF7966"/>
<defs>
<linearGradient id="paint0_linear_2439_3741" x1="27.3923" y1="15.7875" x2="15.6355" y2="25.1037" gradientUnits="userSpaceOnUse">
<stop stop-color="#8EEB62"/>
<stop offset="1" stop-color="#FFA51E"/>
</linearGradient>
<linearGradient id="paint1_linear_2439_3741" x1="27.3923" y1="15.7875" x2="15.6355" y2="25.1037" gradientUnits="userSpaceOnUse">
<stop stop-color="#8EEB62"/>
<stop offset="1" stop-color="#FFA51E"/>
</linearGradient>
<linearGradient id="paint2_linear_2439_3741" x1="27.3923" y1="15.7875" x2="15.6355" y2="25.1037" gradientUnits="userSpaceOnUse">
<stop stop-color="#8EEB62"/>
<stop offset="1" stop-color="#FFA51E"/>
</linearGradient>
<linearGradient id="paint3_linear_2439_3741" x1="27.3923" y1="15.7875" x2="15.6355" y2="25.1037" gradientUnits="userSpaceOnUse">
<stop stop-color="#8EEB62"/>
<stop offset="1" stop-color="#FFA51E"/>
</linearGradient>
<linearGradient id="paint4_linear_2439_3741" x1="2.33984" y1="17.6204" x2="19.7221" y2="25.0593" gradientUnits="userSpaceOnUse">
<stop stop-color="#D344F7"/>
<stop offset="1" stop-color="#F7A925"/>
</linearGradient>
<linearGradient id="paint5_linear_2439_3741" x1="2.33984" y1="17.6204" x2="19.7221" y2="25.0593" gradientUnits="userSpaceOnUse">
<stop stop-color="#D344F7"/>
<stop offset="1" stop-color="#F7A925"/>
</linearGradient>
<linearGradient id="paint6_linear_2439_3741" x1="2.33984" y1="17.6204" x2="19.7221" y2="25.0593" gradientUnits="userSpaceOnUse">
<stop stop-color="#D344F7"/>
<stop offset="1" stop-color="#F7A925"/>
</linearGradient>
<linearGradient id="paint7_linear_2439_3741" x1="2.33984" y1="17.6204" x2="19.7221" y2="25.0593" gradientUnits="userSpaceOnUse">
<stop stop-color="#D344F7"/>
<stop offset="1" stop-color="#F7A925"/>
</linearGradient>
<linearGradient id="paint8_linear_2439_3741" x1="10.3216" y1="3.49239" x2="29.6763" y2="14.1108" gradientUnits="userSpaceOnUse">
<stop stop-color="#27AEAE"/>
<stop offset="1" stop-color="#88E75B"/>
</linearGradient>
<linearGradient id="paint9_linear_2439_3741" x1="10.3216" y1="3.49239" x2="29.6763" y2="14.1108" gradientUnits="userSpaceOnUse">
<stop stop-color="#27AEAE"/>
<stop offset="1" stop-color="#88E75B"/>
</linearGradient>
<linearGradient id="paint10_linear_2439_3741" x1="10.3216" y1="3.49239" x2="29.6763" y2="14.1108" gradientUnits="userSpaceOnUse">
<stop stop-color="#27AEAE"/>
<stop offset="1" stop-color="#88E75B"/>
</linearGradient>
<linearGradient id="paint11_linear_2439_3741" x1="10.3216" y1="3.49239" x2="29.6763" y2="14.1108" gradientUnits="userSpaceOnUse">
<stop stop-color="#27AEAE"/>
<stop offset="1" stop-color="#88E75B"/>
</linearGradient>
</defs>
</svg>
