<svg width="32" height="32" viewBox="0 0 32 32" fill="none" xmlns="http://www.w3.org/2000/svg">
<path d="M28.7019 15.9369C29.2265 16.0783 29.5691 16.5823 29.5079 17.1228L29.2279 19.5954L25.2251 18.5171C24.7005 18.3758 24.358 17.8717 24.4192 17.3312L24.6992 14.8586L28.7019 15.9369Z" fill="#DBDBDB"/>
<path d="M28.7019 15.9369C29.2265 16.0783 29.5691 16.5823 29.5079 17.1228L29.2279 19.5954L25.2251 18.5171C24.7005 18.3758 24.358 17.8717 24.4192 17.3312L24.6992 14.8586L28.7019 15.9369Z" fill="url(#paint0_linear_2439_3749)"/>
<path d="M27.7477 20.8115C28.1784 21.1431 28.3021 21.7399 28.039 22.2158L26.8347 24.3934L23.5496 21.864C23.119 21.5324 22.9952 20.9356 23.2584 20.4597L24.4627 18.2821L27.7477 20.8115Z" fill="#DBDBDB"/>
<path d="M27.7477 20.8115C28.1784 21.1431 28.3021 21.7399 28.039 22.2158L26.8347 24.3934L23.5496 21.864C23.119 21.5324 22.9952 20.9356 23.2584 20.4597L24.4627 18.2821L27.7477 20.8115Z" fill="url(#paint1_linear_2439_3749)"/>
<path d="M25.0115 24.9425C25.2843 25.4129 25.1728 26.0121 24.7491 26.3526L22.8095 27.9108L20.7288 24.3233C20.456 23.8529 20.5676 23.2537 20.9913 22.9132L22.9308 21.355L25.0115 24.9425Z" fill="#DBDBDB"/>
<path d="M25.0115 24.9425C25.2843 25.4129 25.1728 26.0121 24.7491 26.3526L22.8095 27.9108L20.7288 24.3233C20.456 23.8529 20.5676 23.2537 20.9913 22.9132L22.9308 21.355L25.0115 24.9425Z" fill="url(#paint2_linear_2439_3749)"/>
<path d="M20.8454 27.742C20.9135 28.2816 20.5775 28.7901 20.0549 28.9384L17.6621 29.6173L17.1429 25.5015C17.0748 24.9618 17.4108 24.4534 17.9334 24.3051L20.3262 23.6262L20.8454 27.742Z" fill="#DBDBDB"/>
<path d="M20.8454 27.742C20.9135 28.2816 20.5775 28.7901 20.0549 28.9384L17.6621 29.6173L17.1429 25.5015C17.0748 24.9618 17.4108 24.4534 17.9334 24.3051L20.3262 23.6262L20.8454 27.742Z" fill="url(#paint3_linear_2439_3749)"/>
<path d="M15.9795 28.7122C15.8361 29.2369 15.3314 29.5781 14.7918 29.515L12.3219 29.2262L13.4154 25.2242C13.5588 24.6995 14.0636 24.3583 14.6032 24.4214L17.0731 24.7102L15.9795 28.7122Z" fill="#DBDBDB"/>
<path d="M15.9795 28.7122C15.8361 29.2369 15.3314 29.5781 14.7918 29.515L12.3219 29.2262L13.4154 25.2242C13.5588 24.6995 14.0636 24.3583 14.6032 24.4214L17.0731 24.7102L15.9795 28.7122Z" fill="url(#paint4_linear_2439_3749)"/>
<path d="M11.1158 27.7411C10.7828 28.171 10.186 28.2929 9.71157 28.0279L7.54051 26.8154L10.0808 23.5361C10.4137 23.1062 11.0106 22.9843 11.485 23.2493L13.6561 24.4618L11.1158 27.7411Z" fill="#DBDBDB"/>
<path d="M11.1158 27.7411C10.7828 28.171 10.186 28.2929 9.71157 28.0279L7.54051 26.8154L10.0808 23.5361C10.4137 23.1062 11.0106 22.9843 11.485 23.2493L13.6561 24.4618L11.1158 27.7411Z" fill="url(#paint5_linear_2439_3749)"/>
<path d="M7.01228 25.0042C6.54136 25.2756 5.94299 25.1616 5.60441 24.7362L4.05561 22.7901L7.64879 20.7199C8.11972 20.4486 8.71809 20.5625 9.05667 20.9879L10.6055 22.934L7.01228 25.0042Z" fill="#DBDBDB"/>
<path d="M7.01228 25.0042C6.54136 25.2756 5.94299 25.1616 5.60441 24.7362L4.05561 22.7901L7.64879 20.7199C8.11972 20.4486 8.71809 20.5625 9.05667 20.9879L10.6055 22.934L7.01228 25.0042Z" fill="url(#paint6_linear_2439_3749)"/>
<path d="M4.21843 20.8077C3.67918 20.8739 3.17257 20.5355 3.02649 20.0116L2.35832 17.6151L6.47321 17.11C7.01247 17.0438 7.51907 17.3822 7.66516 17.9062L8.33332 20.3027L4.21843 20.8077Z" fill="#DBDBDB"/>
<path d="M4.21843 20.8077C3.67918 20.8739 3.17257 20.5355 3.02649 20.0116L2.35832 17.6151L6.47321 17.11C7.01247 17.0438 7.51907 17.3822 7.66516 17.9062L8.33332 20.3027L4.21843 20.8077Z" fill="url(#paint7_linear_2439_3749)"/>
<path d="M27.7141 11.0734C28.2528 11.0031 28.762 11.3375 28.9121 11.8604L29.5988 14.2516L25.4879 14.7884C24.9492 14.8588 24.44 14.5243 24.2898 14.0015L23.6032 11.6102L27.7141 11.0734Z" fill="url(#paint8_linear_2439_3749)"/>
<path d="M16.068 3.25969C16.2152 2.73608 16.7224 2.39876 17.2614 2.46599L19.729 2.77373L18.6065 6.76747C18.4594 7.29108 17.9521 7.6284 17.4131 7.56117L14.9455 7.25343L16.068 3.25969Z" fill="url(#paint9_linear_2439_3749)"/>
<path d="M20.9325 4.2637C21.2686 3.83626 21.8663 3.71872 22.3388 3.98714L24.501 5.2154L21.937 8.4762C21.6009 8.90363 21.0032 9.02117 20.5307 8.75275L18.3685 7.52449L20.9325 4.2637Z" fill="url(#paint10_linear_2439_3749)"/>
<path d="M25.0483 7.05679C25.5222 6.79077 26.1193 6.9114 26.4531 7.34062L27.9799 9.30397L24.3638 11.3337C23.8899 11.5998 23.2928 11.4791 22.959 11.0499L21.4321 9.08656L25.0483 7.05679Z" fill="url(#paint11_linear_2439_3749)"/>
<path d="M3.26878 15.9484C2.74525 15.8032 2.4065 15.2966 2.47174 14.7566L2.7702 12.2861L6.76474 13.3944C7.28826 13.5396 7.62702 14.0462 7.56177 14.5862L7.26332 17.0567L3.26878 15.9484Z" fill="#DBDBDB"/>
<path d="M3.26878 15.9484C2.74525 15.8032 2.4065 15.2966 2.47174 14.7566L2.7702 12.2861L6.76474 13.3944C7.28826 13.5396 7.62702 14.0462 7.56177 14.5862L7.26332 17.0567L3.26878 15.9484Z" fill="url(#paint12_linear_2439_3749)"/>
<path d="M4.25684 11.0806C3.82864 10.7459 3.7092 10.1482 3.97582 9.67425L5.19587 7.50544L8.46249 10.0587C8.89069 10.3934 9.01012 10.9911 8.7435 11.465L7.52345 13.6338L4.25684 11.0806Z" fill="#DBDBDB"/>
<path d="M4.25684 11.0806C3.82864 10.7459 3.7092 10.1482 3.97582 9.67425L5.19587 7.50544L8.46249 10.0587C8.89069 10.3934 9.01012 10.9911 8.7435 11.465L7.52345 13.6338L4.25684 11.0806Z" fill="url(#paint13_linear_2439_3749)"/>
<path d="M7.03328 6.95302C6.76577 6.47964 6.88402 5.88167 7.31151 5.54604L9.26839 4.00966L11.3088 7.62033C11.5763 8.09372 11.458 8.69168 11.0305 9.02731L9.07366 10.5637L7.03328 6.95302Z" fill="#DBDBDB"/>
<path d="M7.03328 6.95302C6.76577 6.47964 6.88402 5.88167 7.31151 5.54604L9.26839 4.00966L11.3088 7.62033C11.5763 8.09372 11.458 8.69168 11.0305 9.02731L9.07366 10.5637L7.03328 6.95302Z" fill="url(#paint14_linear_2439_3749)"/>
<path d="M11.2181 4.19423C11.1542 3.65407 11.4941 3.14822 12.0179 3.00398L14.4158 2.34362L14.9033 6.46329C14.9672 7.00345 14.6273 7.5093 14.1036 7.65354L11.7056 8.3139L11.2181 4.19423Z" fill="#DBDBDB"/>
<path d="M11.2181 4.19423C11.1542 3.65407 11.4941 3.14822 12.0179 3.00398L14.4158 2.34362L14.9033 6.46329C14.9672 7.00345 14.6273 7.5093 14.1036 7.65354L11.7056 8.3139L11.2181 4.19423Z" fill="url(#paint15_linear_2439_3749)"/>
<circle cx="16" cy="16" r="9.5" fill="#2AC295" stroke="white"/>
<path d="M11.2367 22.5394C9.21631 21.2867 9.184 18.8857 9.42039 17.8418C9.65571 18.3763 10.0879 18.4264 10.2745 18.3846C8.40384 15.4951 10.3859 13.1024 11.6108 12.2673C11.3602 12.9688 11.7151 13.339 11.9239 13.4365C12.425 13.6703 12.592 13.1998 12.6129 12.9354C12.5294 12.6681 12.7451 11.794 12.8635 11.3904C13.4648 9.75353 14.8956 9.30256 15.5359 9.28168C15.2018 10.0667 15.522 10.6527 15.7238 10.8476C16.3084 11.5992 16.7886 10.7153 16.9556 10.1794C17.8074 8.52588 20.0247 8.14033 21.0269 8.15424C19.5404 9.25662 19.8647 11.119 20.2126 11.9123C21.1146 12.4969 21.5488 11.6688 21.6532 11.1816C23.691 13.069 21.9873 15.3642 20.8807 16.2759C21.315 16.6935 22.0082 16.1019 22.3005 15.754C22.2838 18.1926 21.2774 20.0271 20.7763 20.6395C17.5026 24.0802 13.0525 23.3398 11.2367 22.5394Z" fill="#FFBB3F"/>
<path d="M11.9758 22.6456C10.3993 21.5908 10.3741 19.5692 10.5586 18.6903C10.7422 19.1403 11.0794 19.1825 11.2251 19.1473C9.76533 16.7144 11.312 14.6998 12.2678 13.9967C12.0723 14.5873 12.3492 14.8991 12.5121 14.9811C12.9031 15.178 13.0335 14.7819 13.0498 14.5592C12.9846 14.3342 13.1529 13.5982 13.2453 13.2584C13.7145 11.8802 14.831 11.5005 15.3306 11.4829C15.0699 12.1439 15.3198 12.6372 15.4772 12.8013C15.9334 13.4342 16.3081 12.69 16.4385 12.2388C17.1032 10.8465 18.8334 10.5219 19.6154 10.5336C18.4554 11.4618 18.7085 13.0298 18.98 13.6978C19.6838 14.19 20.0227 13.4927 20.1041 13.0826C21.6942 14.6717 20.3648 16.6042 19.5013 17.3719C19.8402 17.7234 20.3811 17.2254 20.6092 16.9324C20.5961 18.9856 19.8109 20.5302 19.4199 21.0459C16.8653 23.9429 13.3928 23.3194 11.9758 22.6456Z" fill="#FDD192"/>
<path d="M13.0447 15.2949C13.6193 12.223 16.1761 11.9266 17.3827 12.1624C21.673 13.5651 20.0611 17.3203 18.6388 19.1281C17.2165 20.936 12.6039 23.0828 12.6039 23.0828C12.6039 23.0828 10.885 23.7697 11.6417 21.9642C12.3983 20.1588 12.8923 16.7658 13.0447 15.2949Z" fill="#FF5A5A"/>
<path d="M15.3302 17.3082C15.311 17.7377 15.4186 18.3703 16.0021 17.4653" stroke="#2D177D" stroke-width="0.2"/>
<circle cx="13.3766" cy="16.2372" r="1.93129" fill="#2D177D"/>
<path d="M11.5291 16.7394C11.5554 16.5532 11.7735 16.0327 11.8817 15.827C11.8817 16.5558 12.2638 16.8119 12.4548 16.8489C13.09 16.862 13.0078 16.4674 12.8874 16.2685C12.7516 16.194 12.5168 15.9016 12.4165 15.7647C12.1011 15.0814 12.7633 14.6806 13.1338 14.5656C12.6826 15.5074 13.1575 15.799 13.4513 15.827C13.9288 15.5658 13.7854 14.8298 13.6539 14.4944C14.7228 14.9018 14.5373 15.7885 14.311 16.1809C14.5563 16.0889 14.7454 15.814 14.8093 15.6881C15.0765 16.3758 14.8075 16.6755 14.6395 16.7394C14.0788 16.8883 14.0336 17.1227 14.081 17.2212C14.2124 17.3833 14.4454 17.2016 14.5454 17.0904C14.6081 17.4195 14.5111 17.7511 14.4262 17.8621C12.5164 18.8415 11.4795 17.0904 11.5291 16.7394Z" fill="#3FBAFF"/>
<circle cx="18.2321" cy="17.0741" r="1.93129" fill="#2D177D"/>
<path d="M16.3848 17.5493C16.4441 17.3678 16.6039 16.893 16.7137 16.6842C16.7137 17.4241 17.1016 17.6842 17.2955 17.7217C17.9404 17.735 17.857 17.3344 17.7347 17.1324C17.5968 17.0568 17.3585 16.76 17.2566 16.621C16.9364 15.9272 17.6087 15.5203 17.9849 15.4036C17.5268 16.3597 18.0089 16.6558 18.3073 16.6842C18.792 16.4191 18.6464 15.6718 18.513 15.3313C19.5981 15.7449 19.4098 16.6451 19.18 17.0435C19.4291 16.9501 19.6211 16.671 19.6859 16.5432C19.9572 17.2414 19.6841 17.5457 19.5136 17.6105C18.9443 17.7617 18.8984 17.9997 18.9466 18.0997C19.08 18.2643 19.3164 18.0797 19.418 17.9669C19.4816 18.301 19.3252 18.6099 19.239 18.7226C17.3001 19.7169 16.2921 17.8329 16.3848 17.5493Z" fill="#3FBAFF"/>
<path d="M15.2148 16.4836C15.467 16.4561 16.0505 16.4539 16.3677 16.6651" stroke="#2D177D" stroke-width="0.2"/>
<path d="M19.6315 10.5336C20.1294 10.558 20.0696 10.9583 19.9775 11.1554C18.7795 10.9842 18.0912 11.7365 17.8968 12.1341C18.378 12.1178 18.9401 12.4467 19.1609 12.6132C19.1779 12.6812 19.1691 12.8171 18.9978 12.8171C18.8266 12.8171 18.4779 12.6812 18.325 12.6132C18.5357 12.9293 18.8898 13.5838 18.6206 13.6735C18.3515 13.7632 17.8968 13.14 17.7031 12.8171C17.8418 13.4125 17.6453 13.8128 17.5298 13.9385C17.1628 13.6857 17.1526 12.9497 17.1934 12.6132C16.9243 13.1841 16.354 13.3269 16.1026 13.3269C16.0373 13.0088 16.6735 12.5419 16.9997 12.3482C16.2983 12.5684 15.9264 12.2564 15.8281 12.0729C15.9994 11.6978 17.1094 11.9166 17.643 12.0729C17.8632 10.817 19.0604 10.5234 19.6315 10.5336Z" fill="#2D177D"/>
<defs>
<linearGradient id="paint0_linear_2439_3749" x1="27.3923" y1="15.7875" x2="15.6355" y2="25.1037" gradientUnits="userSpaceOnUse">
<stop stop-color="#8EEB62"/>
<stop offset="1" stop-color="#FFA51E"/>
</linearGradient>
<linearGradient id="paint1_linear_2439_3749" x1="27.3923" y1="15.7875" x2="15.6355" y2="25.1037" gradientUnits="userSpaceOnUse">
<stop stop-color="#8EEB62"/>
<stop offset="1" stop-color="#FFA51E"/>
</linearGradient>
<linearGradient id="paint2_linear_2439_3749" x1="27.3923" y1="15.7875" x2="15.6355" y2="25.1037" gradientUnits="userSpaceOnUse">
<stop stop-color="#8EEB62"/>
<stop offset="1" stop-color="#FFA51E"/>
</linearGradient>
<linearGradient id="paint3_linear_2439_3749" x1="27.3923" y1="15.7875" x2="15.6355" y2="25.1037" gradientUnits="userSpaceOnUse">
<stop stop-color="#8EEB62"/>
<stop offset="1" stop-color="#FFA51E"/>
</linearGradient>
<linearGradient id="paint4_linear_2439_3749" x1="2.33984" y1="17.6204" x2="19.7221" y2="25.0593" gradientUnits="userSpaceOnUse">
<stop stop-color="#D344F7"/>
<stop offset="1" stop-color="#F7A925"/>
</linearGradient>
<linearGradient id="paint5_linear_2439_3749" x1="2.33984" y1="17.6204" x2="19.7221" y2="25.0593" gradientUnits="userSpaceOnUse">
<stop stop-color="#D344F7"/>
<stop offset="1" stop-color="#F7A925"/>
</linearGradient>
<linearGradient id="paint6_linear_2439_3749" x1="2.33984" y1="17.6204" x2="19.7221" y2="25.0593" gradientUnits="userSpaceOnUse">
<stop stop-color="#D344F7"/>
<stop offset="1" stop-color="#F7A925"/>
</linearGradient>
<linearGradient id="paint7_linear_2439_3749" x1="2.33984" y1="17.6204" x2="19.7221" y2="25.0593" gradientUnits="userSpaceOnUse">
<stop stop-color="#D344F7"/>
<stop offset="1" stop-color="#F7A925"/>
</linearGradient>
<linearGradient id="paint8_linear_2439_3749" x1="10.3216" y1="3.49239" x2="29.6763" y2="14.1108" gradientUnits="userSpaceOnUse">
<stop stop-color="#27AEAE"/>
<stop offset="1" stop-color="#88E75B"/>
</linearGradient>
<linearGradient id="paint9_linear_2439_3749" x1="10.3216" y1="3.49239" x2="29.6763" y2="14.1108" gradientUnits="userSpaceOnUse">
<stop stop-color="#27AEAE"/>
<stop offset="1" stop-color="#88E75B"/>
</linearGradient>
<linearGradient id="paint10_linear_2439_3749" x1="10.3216" y1="3.49239" x2="29.6763" y2="14.1108" gradientUnits="userSpaceOnUse">
<stop stop-color="#27AEAE"/>
<stop offset="1" stop-color="#88E75B"/>
</linearGradient>
<linearGradient id="paint11_linear_2439_3749" x1="10.3216" y1="3.49239" x2="29.6763" y2="14.1108" gradientUnits="userSpaceOnUse">
<stop stop-color="#27AEAE"/>
<stop offset="1" stop-color="#88E75B"/>
</linearGradient>
<linearGradient id="paint12_linear_2439_3749" x1="14.4421" y1="4.4943" x2="2.65057" y2="14.0954" gradientUnits="userSpaceOnUse">
<stop stop-color="#27AEAE"/>
<stop offset="1" stop-color="#D447F1"/>
</linearGradient>
<linearGradient id="paint13_linear_2439_3749" x1="14.4421" y1="4.4943" x2="2.65057" y2="14.0954" gradientUnits="userSpaceOnUse">
<stop stop-color="#27AEAE"/>
<stop offset="1" stop-color="#D447F1"/>
</linearGradient>
<linearGradient id="paint14_linear_2439_3749" x1="14.4421" y1="4.4943" x2="2.65057" y2="14.0954" gradientUnits="userSpaceOnUse">
<stop stop-color="#27AEAE"/>
<stop offset="1" stop-color="#D447F1"/>
</linearGradient>
<linearGradient id="paint15_linear_2439_3749" x1="14.4421" y1="4.4943" x2="2.65057" y2="14.0954" gradientUnits="userSpaceOnUse">
<stop stop-color="#27AEAE"/>
<stop offset="1" stop-color="#D447F1"/>
</linearGradient>
</defs>
</svg>
