<svg width="32" height="32" viewBox="0 0 32 32" fill="none" xmlns="http://www.w3.org/2000/svg">
<path d="M28.7019 15.9369C29.2265 16.0783 29.5691 16.5823 29.5079 17.1228L29.2279 19.5954L25.2251 18.5171C24.7005 18.3758 24.358 17.8717 24.4192 17.3312L24.6992 14.8586L28.7019 15.9369Z" fill="#DBDBDB"/>
<path d="M27.7477 20.8115C28.1784 21.1431 28.3021 21.7399 28.039 22.2158L26.8347 24.3934L23.5496 21.864C23.119 21.5324 22.9952 20.9356 23.2584 20.4597L24.4627 18.2821L27.7477 20.8115Z" fill="#DBDBDB"/>
<path d="M25.0115 24.9425C25.2843 25.4129 25.1728 26.0121 24.7491 26.3526L22.8095 27.9108L20.7288 24.3233C20.456 23.8529 20.5676 23.2537 20.9913 22.9132L22.9308 21.355L25.0115 24.9425Z" fill="#DBDBDB"/>
<path d="M20.8454 27.742C20.9135 28.2816 20.5775 28.7901 20.0549 28.9384L17.6621 29.6173L17.1429 25.5015C17.0748 24.9618 17.4108 24.4534 17.9334 24.3051L20.3262 23.6262L20.8454 27.742Z" fill="#DBDBDB"/>
<path d="M15.9795 28.7122C15.8361 29.2369 15.3314 29.5781 14.7918 29.515L12.3219 29.2262L13.4154 25.2242C13.5588 24.6995 14.0636 24.3583 14.6032 24.4214L17.0731 24.7102L15.9795 28.7122Z" fill="#DBDBDB"/>
<path d="M11.1158 27.7411C10.7828 28.171 10.186 28.2929 9.71157 28.0279L7.54051 26.8154L10.0808 23.5361C10.4137 23.1062 11.0106 22.9843 11.485 23.2493L13.6561 24.4618L11.1158 27.7411Z" fill="#DBDBDB"/>
<path d="M7.01228 25.0042C6.54136 25.2756 5.94299 25.1616 5.60441 24.7362L4.05561 22.7901L7.64879 20.7199C8.11972 20.4486 8.71809 20.5625 9.05667 20.9879L10.6055 22.934L7.01228 25.0042Z" fill="#DBDBDB"/>
<path d="M4.21843 20.8077C3.67918 20.8739 3.17257 20.5355 3.02649 20.0116L2.35832 17.6151L6.47321 17.11C7.01247 17.0438 7.51907 17.3822 7.66516 17.9062L8.33332 20.3027L4.21843 20.8077Z" fill="#DBDBDB"/>
<path d="M27.7141 11.0734C28.2528 11.0031 28.762 11.3375 28.9121 11.8604L29.5988 14.2516L25.4879 14.7884C24.9492 14.8588 24.44 14.5243 24.2898 14.0015L23.6032 11.6102L27.7141 11.0734Z" fill="url(#paint0_linear_2439_3725)"/>
<path d="M16.068 3.25969C16.2152 2.73608 16.7224 2.39876 17.2614 2.46599L19.729 2.77373L18.6065 6.76747C18.4594 7.29108 17.9521 7.6284 17.4131 7.56117L14.9455 7.25343L16.068 3.25969Z" fill="url(#paint1_linear_2439_3725)"/>
<path d="M20.9325 4.2637C21.2686 3.83626 21.8663 3.71872 22.3388 3.98714L24.501 5.2154L21.937 8.4762C21.6009 8.90363 21.0032 9.02117 20.5307 8.75275L18.3685 7.52449L20.9325 4.2637Z" fill="url(#paint2_linear_2439_3725)"/>
<path d="M25.0483 7.05679C25.5222 6.79077 26.1193 6.9114 26.4531 7.34062L27.9799 9.30397L24.3638 11.3337C23.8899 11.5998 23.2928 11.4791 22.959 11.0499L21.4321 9.08656L25.0483 7.05679Z" fill="url(#paint3_linear_2439_3725)"/>
<path d="M3.26878 15.9484C2.74525 15.8032 2.4065 15.2966 2.47174 14.7566L2.7702 12.2861L6.76474 13.3944C7.28826 13.5396 7.62702 14.0462 7.56177 14.5862L7.26332 17.0567L3.26878 15.9484Z" fill="#DBDBDB"/>
<path d="M4.25684 11.0806C3.82864 10.7459 3.7092 10.1482 3.97582 9.67425L5.19587 7.50544L8.46249 10.0587C8.89069 10.3934 9.01012 10.9911 8.7435 11.465L7.52345 13.6338L4.25684 11.0806Z" fill="#DBDBDB"/>
<path d="M7.03328 6.95302C6.76577 6.47964 6.88402 5.88167 7.31151 5.54604L9.26839 4.00966L11.3088 7.62033C11.5763 8.09372 11.458 8.69168 11.0305 9.02731L9.07366 10.5637L7.03328 6.95302Z" fill="#DBDBDB"/>
<path d="M11.2181 4.19423C11.1542 3.65407 11.4941 3.14822 12.0179 3.00398L14.4158 2.34362L14.9033 6.46329C14.9672 7.00345 14.6273 7.5093 14.1036 7.65354L11.7056 8.3139L11.2181 4.19423Z" fill="#DBDBDB"/>
<circle cx="16" cy="16" r="9.5" fill="#FFD953" stroke="white"/>
<path d="M9.63281 18.9141L15.2726 9.71199C15.6288 9.5042 15.8169 9.62541 15.8664 9.71199L22.6937 18.3946C17.4099 24.272 11.7849 21.1898 9.63281 18.9141Z" fill="#E43F4C"/>
<path d="M15.0677 16.0994C15.0164 16.0016 14.8955 15.9639 14.7977 16.0152C14.6999 16.0665 14.6622 16.1874 14.7135 16.2853L15.0677 16.0994ZM16.7606 16.3047C16.8227 16.2134 16.7989 16.089 16.7076 16.0269C16.6162 15.9648 16.4918 15.9885 16.4297 16.0799L16.7606 16.3047ZM14.7135 16.2853C14.8768 16.5964 15.2373 16.8198 15.6223 16.8607C16.0213 16.9031 16.4569 16.7516 16.7606 16.3047L16.4297 16.0799C16.2129 16.3989 15.9239 16.4905 15.6645 16.4629C15.3911 16.4339 15.1596 16.2744 15.0677 16.0994L14.7135 16.2853Z" fill="black"/>
<path fill-rule="evenodd" clip-rule="evenodd" d="M13.2756 21.5731C10.9308 20.7581 9.43654 18.8549 9.53592 18.9476L10.1426 18.0446L10.7859 17.0295C10.8232 17.0643 11.0981 17.4098 11.1695 17.4898C11.5587 17.9259 12.5715 18.8717 14.0375 19.3812C14.8586 19.6666 15.8387 19.7741 16.973 19.4504C18.1183 19.1236 19.7086 18.2219 21.2809 16.5766L22.7516 18.2918C20.9687 20.1573 19.2438 21.2156 17.6098 21.6819C15.9648 22.1512 14.4944 21.9967 13.2756 21.5731Z" fill="#62FAC5"/>
<path fill-rule="evenodd" clip-rule="evenodd" d="M13.4589 21.9749C10.9446 21.1113 9.30598 19.1889 9.31252 19.195L10.2762 17.7945C10.2912 17.8085 10.4827 18.0506 10.5214 18.0918C10.8625 18.4543 12.1651 19.6904 14.0243 20.3289C15.0338 20.6757 16.2035 20.8079 17.4893 20.4514C18.7785 20.0941 20.5996 19.3564 22.1883 17.5796L23.1429 18.6086C21.383 20.577 19.6312 21.6637 17.9542 22.1286C16.274 22.5943 14.7416 22.4155 13.4589 21.9749Z" fill="#23AD99"/>
<circle cx="12.9016" cy="13.9586" r="1.88363" fill="#090644" stroke="#00B3FD" stroke-width="0.7"/>
<path d="M14.8828 14.035H16.6889" stroke="#00B3FD"/>
<circle cx="18.718" cy="13.9586" r="1.88363" fill="#090644" stroke="#00B3FD" stroke-width="0.7"/>
<path d="M13.5234 18.0225C13.4687 18.1936 13.3083 18.2952 13.1652 18.2494C13.0221 18.2037 12.9504 18.0279 13.0052 17.8568C13.0599 17.6857 13.3827 17.3358 13.4505 17.3575C13.5252 17.3814 13.5781 17.8514 13.5234 18.0225Z" fill="#4E1C1C"/>
<path d="M14.4964 18.5052C14.47 18.6536 14.3481 18.7559 14.2241 18.7339C14.1 18.7119 14.0208 18.5738 14.0471 18.4255C14.0735 18.2772 14.3025 17.9503 14.3613 17.9607C14.4261 17.9722 14.5227 18.3569 14.4964 18.5052Z" fill="#4E1C1C"/>
<path d="M18.5211 17.853C18.5791 18.023 18.511 18.2002 18.3688 18.2488C18.2266 18.2974 18.0642 18.1989 18.0062 18.0289C17.9481 17.8589 17.9986 17.3856 18.066 17.3626C18.1402 17.3372 18.463 17.6831 18.5211 17.853Z" fill="#4E1C1C"/>
<path d="M19.3717 17.3263C19.4593 17.4601 19.45 17.6211 19.351 17.686C19.2519 17.7509 19.1006 17.695 19.013 17.5613C18.9254 17.4275 18.8472 17.0194 18.8942 16.9886C18.9459 16.9547 19.2841 17.1925 19.3717 17.3263Z" fill="#4E1C1C"/>
<path d="M12.9647 12.7446C12.472 12.8313 11.5493 13.2579 11.8003 14.2706L12.9647 12.7446Z" fill="#D9D9D9"/>
<path d="M18.8202 12.7446C18.3274 12.8313 17.4047 13.2579 17.6558 14.2706L18.8202 12.7446Z" fill="#D9D9D9"/>
<defs>
<linearGradient id="paint0_linear_2439_3725" x1="10.3216" y1="3.49239" x2="29.6763" y2="14.1108" gradientUnits="userSpaceOnUse">
<stop stop-color="#27AEAE"/>
<stop offset="1" stop-color="#88E75B"/>
</linearGradient>
<linearGradient id="paint1_linear_2439_3725" x1="10.3216" y1="3.49239" x2="29.6763" y2="14.1108" gradientUnits="userSpaceOnUse">
<stop stop-color="#27AEAE"/>
<stop offset="1" stop-color="#88E75B"/>
</linearGradient>
<linearGradient id="paint2_linear_2439_3725" x1="10.3216" y1="3.49239" x2="29.6763" y2="14.1108" gradientUnits="userSpaceOnUse">
<stop stop-color="#27AEAE"/>
<stop offset="1" stop-color="#88E75B"/>
</linearGradient>
<linearGradient id="paint3_linear_2439_3725" x1="10.3216" y1="3.49239" x2="29.6763" y2="14.1108" gradientUnits="userSpaceOnUse">
<stop stop-color="#27AEAE"/>
<stop offset="1" stop-color="#88E75B"/>
</linearGradient>
</defs>
</svg>
