<svg width="20" height="20" viewBox="0 0 20 20" fill="none" xmlns="http://www.w3.org/2000/svg">
<path d="M16.4808 12.9445V5.37039C16.4808 3.32409 14.8234 1.66669 12.7771 1.66669C10.7308 1.66669 9.07342 3.32409 9.07342 5.37039V14.6297C9.07342 15.6482 8.24009 16.4815 7.22157 16.4815C6.20305 16.4815 5.36972 15.6482 5.36972 14.6297V7.05558C6.44379 6.66669 7.22157 5.64817 7.22157 4.44446C7.22157 2.90743 5.98083 1.66669 4.44379 1.66669C2.90676 1.66669 1.66602 2.90743 1.66602 4.44446C1.66602 5.64817 2.44379 6.66669 3.51787 7.05558V14.6297C3.51787 16.6759 5.17528 18.3334 7.22157 18.3334C9.26787 18.3334 10.9253 16.6759 10.9253 14.6297V5.37039C10.9253 4.35187 11.7586 3.51854 12.7771 3.51854C13.7956 3.51854 14.629 4.35187 14.629 5.37039V12.9445C14.0123 13.1629 13.4928 13.5923 13.162 14.1567C12.8312 14.7211 12.7106 15.3843 12.8214 16.029C12.9322 16.6738 13.2672 17.2586 13.7674 17.6803C14.2676 18.1019 14.9007 18.3332 15.5549 18.3334C17.0919 18.3334 18.3327 17.0926 18.3327 15.5556C18.3327 14.3519 17.5549 13.3334 16.4808 12.9445Z" fill="#27AE60"/>
</svg>
