<svg width="21" height="20" viewBox="0 0 21 20" fill="none" xmlns="http://www.w3.org/2000/svg">
<path d="M19.269 7.41225L13.6481 6.61384L11.1354 1.63515C11.0668 1.49883 10.9539 1.38849 10.8144 1.32141C10.4646 1.15264 10.0396 1.29328 9.86468 1.63515L7.35199 6.61384L1.73111 7.41225C1.57614 7.43389 1.43446 7.50529 1.32598 7.61347C1.19484 7.74521 1.12257 7.92245 1.12506 8.10624C1.12755 8.29003 1.2046 8.46533 1.33926 8.59363L5.40605 12.4688L4.44525 17.9409C4.42272 18.0681 4.43713 18.1991 4.48685 18.3188C4.53657 18.4384 4.61961 18.5421 4.72656 18.618C4.8335 18.694 4.96007 18.7391 5.09191 18.7482C5.22375 18.7574 5.35558 18.7303 5.47246 18.67L10.5 16.0866L15.5276 18.67C15.6649 18.7414 15.8243 18.7652 15.977 18.7393C16.3622 18.6743 16.6213 18.3173 16.5548 17.9409L15.594 12.4688L19.6608 8.59363C19.7715 8.48761 19.8446 8.34913 19.8667 8.19767C19.9265 7.81903 19.6564 7.4685 19.269 7.41225Z" fill="#FFA235"/>
</svg>
