<svg width="48" height="54" viewBox="0 0 48 54" fill="none" xmlns="http://www.w3.org/2000/svg">
<g filter="url(#filter0_d_351:691)">
<path d="M35.3139 8.66622C32.2919 5.65716 28.2738 4 24.0001 4C19.7264 4 15.7085 5.65709 12.6863 8.66622C9.66431 11.6752 8 15.6758 8 19.9311C8 24.1865 9.66431 28.1872 12.6863 31.1962C12.6863 31.1962 22.9913 41.4565 23.2096 41.674C23.4279 41.8914 23.7141 42 24.0001 42C24.2863 42 24.5725 41.8913 24.7907 41.674L35.3136 31.1963C38.3357 28.1872 39.9999 24.1865 40 19.9312C39.9999 15.6757 38.3358 11.6751 35.3139 8.66622ZM29.025 24.9342C27.6828 26.2706 25.8984 27.0066 24.0002 27.0066C22.1021 27.0066 20.3176 26.2707 18.9755 24.9343C17.6333 23.5979 16.8942 21.8211 16.8942 19.9311C16.8942 18.0412 17.6333 16.2644 18.9755 14.9279C20.3176 13.5915 22.1021 12.8556 24.0002 12.8556C25.8984 12.8556 27.6828 13.5915 29.025 14.9279C30.3671 16.2643 31.1063 18.0411 31.1063 19.931C31.1063 21.821 30.3671 23.5979 29.025 24.9342Z" fill="white"/>
<circle cx="24" cy="20" r="12" fill="#E064F4"/>
<path d="M23.5144 13.2883C23.655 13.1827 23.8252 13.1258 23.9999 13.1258C24.1746 13.1258 24.3447 13.1827 24.4854 13.2883L29.6658 17.1799C30.279 17.641 29.992 18.6121 29.2622 18.6799H18.7376C18.0077 18.6121 17.7213 17.641 18.3339 17.1799L23.5149 13.2883H23.5144ZM23.9999 17.0138C24.2169 17.0138 24.425 16.926 24.5785 16.7697C24.7319 16.6134 24.8181 16.4015 24.8181 16.1805C24.8181 15.9595 24.7319 15.7475 24.5785 15.5912C24.425 15.435 24.2169 15.3472 23.9999 15.3472C23.7829 15.3472 23.5748 15.435 23.4213 15.5912C23.2679 15.7475 23.1817 15.9595 23.1817 16.1805C23.1817 16.4015 23.2679 16.6134 23.4213 16.7697C23.5748 16.926 23.7829 17.0138 23.9999 17.0138ZM27 18.6804H28.3632V23.1247H26.9995L27 18.6804ZM25.9091 23.1247V18.6804H24.5454V23.1247H25.9091ZM23.4544 23.1253V18.681H22.0907V23.1253H23.4544ZM21.0003 23.1253V18.681H19.6365V23.1253H21.0003ZM19.7729 23.1253C19.3027 23.1253 18.8518 23.3155 18.5193 23.6541C18.1869 23.9927 18.0001 24.452 18.0001 24.9308V25.2086C18.0006 25.4391 18.1839 25.6258 18.4092 25.6258H29.59C29.6985 25.6258 29.8026 25.5819 29.8793 25.5038C29.956 25.4256 29.9991 25.3196 29.9991 25.2091V24.9314C29.9991 24.4525 29.8123 23.9933 29.4799 23.6547C29.1474 23.3161 28.6965 23.1259 28.2263 23.1259H19.7735L19.7729 23.1253Z" fill="white"/>
</g>
<defs>
<filter id="filter0_d_351:691" x="0" y="0" width="48" height="54" filterUnits="userSpaceOnUse" color-interpolation-filters="sRGB">
<feFlood flood-opacity="0" result="BackgroundImageFix"/>
<feColorMatrix in="SourceAlpha" type="matrix" values="0 0 0 0 0 0 0 0 0 0 0 0 0 0 0 0 0 0 127 0" result="hardAlpha"/>
<feOffset dy="4"/>
<feGaussianBlur stdDeviation="4"/>
<feComposite in2="hardAlpha" operator="out"/>
<feColorMatrix type="matrix" values="0 0 0 0 0 0 0 0 0 0 0 0 0 0 0 0 0 0 0.15 0"/>
<feBlend mode="normal" in2="BackgroundImageFix" result="effect1_dropShadow_351:691"/>
<feBlend mode="normal" in="SourceGraphic" in2="effect1_dropShadow_351:691" result="shape"/>
</filter>
</defs>
</svg>
