<svg width="24" height="24" viewBox="0 0 24 24" fill="none" xmlns="http://www.w3.org/2000/svg">
<circle cx="12" cy="12" r="12" fill="#7F7F84"/>
<path d="M12 5.87501C8.61753 5.87501 5.87495 8.61759 5.87495 12C5.87495 15.3824 8.61753 18.125 12 18.125C15.3824 18.125 18.125 15.3824 18.125 12C18.125 8.61759 15.3824 5.87501 12 5.87501ZM12 17.0859C9.19175 17.0859 6.91401 14.8082 6.91401 12C6.91401 10.7832 7.34194 9.66486 8.05562 8.78986L15.2101 15.9443C14.3351 16.658 13.2167 17.0859 12 17.0859ZM15.9443 15.2102L8.7898 8.05568C9.66479 7.342 10.7832 6.91407 12 6.91407C14.8082 6.91407 17.0859 9.19181 17.0859 12C17.0859 13.2168 16.658 14.3352 15.9443 15.2102Z" fill="white"/>
<path fill-rule="evenodd" clip-rule="evenodd" d="M5.57495 12C5.57495 8.45191 8.45184 5.57501 12 5.57501C15.5481 5.57501 18.425 8.45191 18.425 12C18.425 15.5481 15.5481 18.425 12 18.425C8.45184 18.425 5.57495 15.5481 5.57495 12ZM7.21401 12C7.21401 14.6425 9.35743 16.7859 12 16.7859C13.0255 16.7859 13.9762 16.4632 14.755 15.9135L8.08648 9.24499C7.53679 10.0238 7.21401 10.9744 7.21401 12ZM7.87141 9.02992C7.93047 8.94803 7.9919 8.86797 8.05562 8.78986L15.2101 15.9443C15.132 16.0081 15.0519 16.0695 14.97 16.1286C14.1346 16.731 13.1081 17.0859 12 17.0859C9.19175 17.0859 6.91401 14.8082 6.91401 12C6.91401 10.8918 7.26895 9.86532 7.87141 9.02992ZM15.9443 15.2102C16.008 15.1321 16.0694 15.052 16.1285 14.9701C16.731 14.1347 17.0859 13.1082 17.0859 12C17.0859 9.19181 14.8082 6.91407 12 6.91407C10.8918 6.91407 9.86526 7.26901 9.02986 7.87147C8.94796 7.93053 8.86791 7.99196 8.7898 8.05568L15.9443 15.2102ZM9.24493 8.08654L15.9134 14.755C16.4631 13.9763 16.7859 13.0256 16.7859 12C16.7859 9.35749 14.6425 7.21407 12 7.21407C10.9744 7.21407 10.0237 7.53685 9.24493 8.08654ZM5.87495 12C5.87495 8.61759 8.61753 5.87501 12 5.87501C15.3824 5.87501 18.125 8.61759 18.125 12C18.125 15.3824 15.3824 18.125 12 18.125C8.61753 18.125 5.87495 15.3824 5.87495 12Z" fill="white"/>
</svg>
