<svg width="208" height="100" viewBox="0 0 208 100" fill="none" xmlns="http://www.w3.org/2000/svg">
<g clip-path="url(#clip0_841_681)">
<rect width="208" height="100" rx="3" fill="#FCEAFF"/>
<path d="M205.617 55.431C205.984 55.431 206.336 55.2861 206.595 55.0281C206.854 54.7701 207 54.4202 207 54.0553V51.358H203.502C203.322 50.4589 203.096 49.5598 202.834 48.6607H203.132H203.873C204.237 48.6607 204.587 48.5167 204.844 48.2604C205.102 48.0041 205.247 47.6565 205.247 47.294V44.5967H201.749V45.4958C201.327 44.4803 200.854 43.487 200.33 42.5197C200.408 42.529 200.487 42.529 200.565 42.5197H201.27C201.637 42.5197 201.988 42.3748 202.248 42.1168C202.507 41.8588 202.653 41.5089 202.653 41.1441V38.4917H199.155V40.5776C198.545 39.6458 197.887 38.7455 197.185 37.8803H197.556C197.922 37.8803 198.274 37.7354 198.533 37.4774C198.793 37.2194 198.938 36.8695 198.938 36.5047V33.8523H195.441V35.9112C194.413 34.8374 193.307 33.8397 192.133 32.9262H192.856C193.223 32.9262 193.574 32.7813 193.834 32.5233C194.093 32.2653 194.239 31.9154 194.239 31.5506V28.8982H190.741V31.5506C190.744 31.6847 190.765 31.8178 190.804 31.9462C189.707 31.1691 188.556 30.4691 187.361 29.8512C187.728 29.8512 188.079 29.7063 188.339 29.4483C188.598 29.1903 188.744 28.8404 188.744 28.4756V25.8232H185.237V28.4756C185.238 28.6136 185.262 28.7505 185.309 28.8802C184.026 28.3276 182.706 27.8619 181.36 27.4866C181.508 27.3595 181.626 27.2022 181.708 27.0252C181.789 26.8483 181.83 26.656 181.83 26.4616V23.8092H178.332V26.5964C178.333 26.7117 178.349 26.8265 178.377 26.9381C177.053 26.709 175.716 26.5619 174.374 26.4976C174.587 26.2462 174.702 25.9272 174.699 25.5984V23H171.192V25.6973C171.189 26.0261 171.305 26.3451 171.518 26.5964C170.175 26.6603 168.838 26.8074 167.514 27.037C167.543 26.9254 167.558 26.8106 167.559 26.6953V24.043H164.062V26.5964C164.061 26.7909 164.103 26.9832 164.184 27.1601C164.265 27.337 164.384 27.4944 164.532 27.6215C163.185 27.9968 161.866 28.4624 160.582 29.0151C160.622 28.8838 160.643 28.7476 160.645 28.6105V25.9581H157.148V28.6105C157.147 28.7914 157.182 28.9709 157.251 29.1383C157.32 29.3058 157.421 29.4579 157.55 29.5858C157.679 29.7138 157.832 29.8151 158 29.8838C158.168 29.9525 158.349 29.9873 158.531 29.9861C157.339 30.606 156.192 31.306 155.096 32.081C155.136 31.9527 155.157 31.8196 155.159 31.6854V29.033H151.653V31.6854C151.655 32.0495 151.802 32.3981 152.06 32.6556C152.319 32.913 152.67 33.0587 153.036 33.0611H153.768C152.593 33.9746 151.488 34.9722 150.46 36.0461V33.9872H147.044V36.6395C147.044 37.0044 147.189 37.3543 147.449 37.6123C147.708 37.8702 148.06 38.0152 148.426 38.0152H148.797C148.092 38.8782 147.434 39.7786 146.827 40.7125V38.6266H143.329V41.2789C143.329 41.6438 143.475 41.9937 143.734 42.2517C143.993 42.5097 144.345 42.6546 144.712 42.6546H145.444C145.522 42.6634 145.601 42.6634 145.679 42.6546C145.148 43.6182 144.674 44.6119 144.26 45.6307V44.7316H140.717V47.4289C140.72 47.7922 140.866 48.1398 141.125 48.3958C141.384 48.6519 141.735 48.7955 142.1 48.7955H142.841H143.139C142.877 49.6946 142.651 50.5938 142.47 51.4929H139V54.1902C139 54.5551 139.146 54.905 139.405 55.1629C139.664 55.4209 140.016 55.5659 140.383 55.5659H141.115C141.447 55.5714 141.77 55.4527 142.019 55.2332C141.964 55.9974 141.928 56.7707 141.928 57.5529C141.928 58.3351 141.973 59.3511 142.046 60.1873H139V62.8846C139 63.2495 139.146 63.5994 139.405 63.8573C139.664 64.1153 140.016 64.2603 140.383 64.2603H141.115C141.416 64.2595 141.709 64.1607 141.949 63.9789C142.189 63.7971 142.363 63.5423 142.443 63.2533C142.666 64.4851 142.967 65.7015 143.347 66.8947H140.717V69.547C140.72 69.9112 140.866 70.2597 141.125 70.5172C141.384 70.7746 141.734 70.9203 142.1 70.9227H142.841C143.207 70.9203 143.557 70.7746 143.816 70.5172C144.075 70.2597 144.221 69.9112 144.224 69.547V69.3492C144.683 70.476 145.214 71.5723 145.814 72.631H143.293V75.3284C143.293 75.6932 143.439 76.0431 143.698 76.3011C143.957 76.559 144.309 76.704 144.676 76.704H145.408C145.774 76.704 146.126 76.559 146.386 76.3011C146.645 76.0431 146.791 75.6932 146.791 75.3284V74.0696C147.706 75.4882 148.734 76.8322 149.863 78.0886H147.044V80.7859C147.042 80.9669 147.077 81.1464 147.146 81.3138C147.215 81.4813 147.317 81.6334 147.446 81.7613C147.575 81.8893 147.727 81.9906 147.896 82.0593C148.064 82.128 148.244 82.1628 148.426 82.1616H149.158C149.34 82.1628 149.521 82.128 149.689 82.0593C149.857 81.9906 150.01 81.8893 150.139 81.7613C150.268 81.6334 150.369 81.4813 150.438 81.3138C150.507 81.1464 150.542 80.9669 150.541 80.7859V78.745C151.709 79.9608 152.972 81.0823 154.319 82.0987H152.358V84.751C152.358 85.1159 152.503 85.4658 152.763 85.7238C153.022 85.9817 153.374 86.1267 153.741 86.1267H154.482C154.848 86.1267 155.2 85.9817 155.459 85.7238C155.719 85.4658 155.864 85.1159 155.864 84.751V83.2405C157.165 84.1046 158.531 84.8681 159.949 85.5243H158.142V88.1767C158.141 88.3576 158.176 88.5371 158.245 88.7045C158.314 88.872 158.416 89.0241 158.544 89.152C158.673 89.28 158.826 89.3813 158.994 89.45C159.162 89.5187 159.343 89.5535 159.525 89.5523H159.579L155.214 100H161.748L164.215 90.6672C164.32 90.9204 164.497 91.1369 164.726 91.2891C164.955 91.4412 165.224 91.5221 165.499 91.5213H166.231C166.413 91.5225 166.593 91.4878 166.761 91.4191C166.93 91.3504 167.083 91.2491 167.211 91.1211C167.34 90.9931 167.442 90.841 167.511 90.6735C167.58 90.5061 167.615 90.3267 167.613 90.1457V87.871C168.809 88.084 170.016 88.2251 171.229 88.2935V90.8021C171.231 91.1662 171.377 91.5147 171.636 91.7722C171.895 92.0297 172.245 92.1754 172.611 92.1777H173.352C173.718 92.1754 174.069 92.0297 174.328 91.7722C174.586 91.5147 174.733 91.1662 174.735 90.8021V88.2935C175.948 88.2251 177.155 88.084 178.35 87.871V90.1457C178.349 90.3267 178.384 90.5061 178.453 90.6735C178.522 90.841 178.624 90.9931 178.753 91.1211C178.881 91.2491 179.034 91.3504 179.203 91.4191C179.371 91.4878 179.551 91.5225 179.733 91.5213H180.483C180.757 91.5227 181.025 91.442 181.253 91.2897C181.48 91.1373 181.656 90.9204 181.758 90.6672L184.216 99.955H190.75L186.403 89.5343H186.457C186.824 89.5343 187.176 89.3894 187.435 89.1314C187.694 88.8734 187.84 88.5235 187.84 88.1587V85.5063H186.032C187.45 84.8482 188.815 84.0848 190.117 83.2226V84.796C190.117 85.1608 190.263 85.5107 190.522 85.7687C190.782 86.0267 191.134 86.1716 191.5 86.1716H192.232C192.599 86.1716 192.951 86.0267 193.21 85.7687C193.469 85.5107 193.615 85.1608 193.615 84.796V82.1436H191.69C193.037 81.1272 194.3 80.0058 195.468 78.7899V80.768C195.467 80.949 195.502 81.1284 195.571 81.2958C195.64 81.4632 195.742 81.6154 195.87 81.7434C195.999 81.8713 196.152 81.9726 196.32 82.0413C196.488 82.11 196.669 82.1448 196.851 82.1436H197.583C197.765 82.1448 197.945 82.11 198.113 82.0413C198.282 81.9726 198.434 81.8713 198.563 81.7434C198.692 81.6154 198.794 81.4632 198.863 81.2958C198.932 81.1284 198.967 80.949 198.965 80.768V78.0706H196.1C197.236 76.8167 198.267 75.4725 199.182 74.0516V75.1485C199.182 75.5134 199.328 75.8633 199.587 76.1213C199.847 76.3792 200.198 76.5242 200.565 76.5242H201.27C201.637 76.5242 201.988 76.3792 202.248 76.1213C202.507 75.8633 202.653 75.5134 202.653 75.1485V72.4512H200.131C200.725 71.3887 201.256 70.2929 201.722 69.1694V69.3672C201.724 69.7313 201.871 70.0799 202.13 70.3374C202.388 70.5948 202.739 70.7405 203.105 70.7429H203.846C204.211 70.7405 204.56 70.5945 204.818 70.3368C205.075 70.0791 205.22 69.7305 205.22 69.3672V66.7148H202.626C203.005 65.5216 203.307 64.3053 203.529 63.0734C203.609 63.3632 203.782 63.6189 204.022 63.8009C204.262 63.9829 204.556 64.0812 204.858 64.0804H205.59C205.957 64.0804 206.309 63.9355 206.568 63.6775C206.827 63.4196 206.973 63.0696 206.973 62.7048V60.0075H203.981C204.054 59.1084 204.099 58.2632 204.099 57.3731C204.099 56.483 204.099 55.8176 203.999 55.0534C204.25 55.2699 204.571 55.3882 204.903 55.386L205.617 55.431ZM202.373 57.418C202.373 58.3171 202.327 59.2163 202.246 60.0434L177.112 57.418L202.246 54.7926C202.327 55.6558 202.373 56.5279 202.373 57.418ZM201.062 66.0405L177.022 58.2632L202.174 60.8976C201.962 62.6421 201.59 64.3636 201.062 66.0405ZM198.64 71.651L176.76 59.0634L200.791 66.8317C200.222 68.4995 199.502 70.1125 198.64 71.651ZM195.097 76.632L176.326 59.8636L198.206 72.4512C197.299 73.9353 196.258 75.3347 195.097 76.632ZM147.785 72.3882L169.638 59.8636L150.867 76.677C149.713 75.3418 148.681 73.9064 147.785 72.3882ZM145.236 66.8497L169.267 59.0814L147.387 71.669C146.521 70.1324 145.801 68.519 145.236 66.8497ZM143.871 60.8976L169.005 58.2632L144.965 66.0405C144.434 64.3639 144.059 62.6424 143.844 60.8976H143.871ZM143.654 57.418C143.654 56.5189 143.654 55.6198 143.781 54.7926L168.915 57.418L143.781 60.0434C143.673 59.1803 143.627 58.2992 143.627 57.418H143.654ZM144.965 48.7955L169.005 56.5639L143.871 53.9385C144.067 52.1952 144.424 50.4736 144.938 48.7955H144.965ZM147.387 43.1851L169.267 55.7727L145.236 47.9863C145.794 46.3242 146.505 44.7169 147.36 43.1851H147.387ZM150.93 38.195L169.638 55.0084L147.749 42.4208C148.674 40.9233 149.729 39.5093 150.903 38.195H150.93ZM160.691 30.9032L170.976 53.8755L156.081 33.5466C157.523 32.5266 159.057 31.6416 160.663 30.9032H160.691ZM189.928 33.5466L175.061 53.8755L185.346 30.9032C186.941 31.6451 188.466 32.5299 189.901 33.5466H189.928ZM198.233 42.4478L176.353 55.0354L195.124 38.222C196.276 39.5367 197.307 40.9509 198.206 42.4478H198.233ZM200.818 47.9863L176.787 55.7547L198.667 43.1671C199.52 44.7065 200.231 46.3195 200.791 47.9863H200.818ZM202.183 53.9385L177.049 56.5639L201.089 48.7955C201.609 50.473 201.972 52.1946 202.174 53.9385H202.183ZM174.265 53.5698L179.525 28.9791C181.245 29.3688 182.927 29.9105 184.55 30.5975L174.265 53.5698ZM173.425 53.39V28.2148C175.191 28.2369 176.952 28.4206 178.685 28.7633L173.425 53.39ZM172.566 53.39L167.315 28.7993C169.045 28.4566 170.803 28.273 172.566 28.2508V53.39ZM166.475 28.9341L171.726 53.5698L161.45 30.5525C163.073 29.8642 164.754 29.3225 166.475 28.9341ZM156.081 81.2894L170.93 60.9605L160.645 83.9239C159.046 83.1875 157.518 82.3056 156.081 81.2894ZM170.695 66.1574L166.475 85.9379L165.571 85.7131L170.695 66.1574ZM172.566 61.509V86.6841C170.803 86.6575 169.046 86.474 167.315 86.1357L172.566 61.509ZM173.425 61.509L178.676 86.0817C176.942 86.42 175.182 86.6036 173.416 86.6302L173.425 61.509ZM179.525 85.9379L175.305 66.1574L180.483 85.6771L179.525 85.9379ZM185.336 83.9598L175.061 60.9605L189.91 81.2894C188.469 82.3042 186.938 83.186 185.336 83.9239V83.9598ZM194.519 37.6016L175.747 54.415L190.606 34.0771C192.013 35.1202 193.323 36.2878 194.519 37.5656V37.6016ZM155.394 34.0771L170.253 54.415L151.472 37.5656C152.672 36.2773 153.984 35.0978 155.394 34.0411V34.0771ZM151.472 77.3064L170.253 60.493L155.394 80.8309C153.985 79.7602 152.673 78.5688 151.472 77.2704V77.3064ZM190.606 80.8309L175.747 60.493L194.519 77.3064C193.32 78.5819 192.011 79.7493 190.606 80.7949V80.8309Z" fill="#A364F4" fill-opacity="0.3"/>
<path d="M104.975 85.5058H104.382L104.323 62.0708H104.763L104.721 43.1755H103.916V38.3672H104.28V37.6394H104.221L100.589 31.0031H100.437V25.4498V25.4064H100.394L98.4553 23.5265C98.4553 23.5265 95.9153 11.3281 95.9153 6C95.9153 11.3281 93.4854 23.5351 93.4854 23.5351L91.555 25.4324H91.5127V30.9858H91.3688L87.7874 37.6481H87.7197V38.3759H88.0837V43.1842H87.2371L87.2794 62.1141H87.7874L87.8467 85.5058H87V86.7707H87.8467V97.4616H87V100H104.975V97.4616H104.416V86.7707H105L104.975 85.5058ZM102.638 39.2249C102.787 39.2249 102.93 39.2848 103.036 39.3918C103.142 39.4988 103.203 39.6442 103.205 39.7967V44.3884H102.079V39.7967C102.079 39.645 102.138 39.4996 102.243 39.3924C102.347 39.2851 102.49 39.2249 102.638 39.2249ZM100.42 39.2249C100.493 39.2249 100.566 39.2397 100.633 39.2684C100.701 39.2971 100.763 39.3393 100.815 39.3924C100.867 39.4455 100.908 39.5085 100.936 39.5779C100.964 39.6473 100.978 39.7216 100.978 39.7967V44.3884H99.8523V39.7967C99.8567 39.6458 99.9184 39.5025 100.024 39.3974C100.13 39.2923 100.272 39.2335 100.42 39.2336V39.2249ZM99.6999 26.7147C99.783 26.7147 99.8627 26.7484 99.9214 26.8085C99.9802 26.8687 100.013 26.9502 100.013 27.0352V31.0984H99.3782V27.0352C99.3782 26.9924 99.3865 26.95 99.4028 26.9105C99.4191 26.871 99.4429 26.8353 99.4729 26.8054C99.5029 26.7755 99.5384 26.7521 99.5774 26.7365C99.6164 26.7209 99.6581 26.7135 99.6999 26.7147ZM98.4468 26.7147C98.5299 26.7147 98.6096 26.7484 98.6684 26.8085C98.7271 26.8687 98.7601 26.9502 98.7601 27.0352V31.1071H98.1251V27.0439C98.1239 27.0003 98.1315 26.957 98.1472 26.9165C98.163 26.876 98.1867 26.8393 98.2168 26.8084C98.2469 26.7776 98.2828 26.7534 98.3224 26.7373C98.3619 26.7212 98.4043 26.7135 98.4468 26.7147ZM98.2013 39.1989C98.3503 39.2012 98.4924 39.2633 98.597 39.3719C98.7015 39.4806 98.7601 39.6269 98.7601 39.7793V44.3711H97.6341V39.7793C97.6447 39.6322 97.7088 39.4945 97.8138 39.3934C97.9189 39.2924 98.0571 39.2353 98.2013 39.2336V39.1989ZM97.1938 26.7147C97.2791 26.7147 97.361 26.7493 97.4213 26.8111C97.4816 26.8728 97.5155 26.9566 97.5155 27.0439V31.1071H96.8805V27.0439C96.8805 26.958 96.9132 26.8756 96.9718 26.8141C97.0303 26.7526 97.1099 26.7169 97.1938 26.7147ZM95.9492 26.7147C96.0323 26.7147 96.112 26.7484 96.1707 26.8085C96.2295 26.8687 96.2625 26.9502 96.2625 27.0352V31.0984H95.6359V27.0265C95.6497 26.9516 95.6884 26.8838 95.7455 26.8348C95.8027 26.7858 95.8747 26.7587 95.9492 26.758V26.7147ZM95.9492 39.1989C96.0982 39.1989 96.2412 39.2588 96.3474 39.3658C96.4535 39.4728 96.5142 39.6183 96.5165 39.7707V44.3624H95.4073V39.7707C95.4201 39.6259 95.4854 39.4913 95.5904 39.3935C95.6955 39.2956 95.8326 39.2416 95.9746 39.2422L95.9492 39.1989ZM94.6707 26.7147C94.7546 26.7146 94.8352 26.7481 94.8953 26.808C94.9554 26.8679 94.9903 26.9494 94.9925 27.0352V31.1071H94.3575V27.0439C94.3661 26.9603 94.4063 26.8835 94.4697 26.8301C94.533 26.7766 94.6143 26.7507 94.6961 26.758L94.6707 26.7147ZM94.2982 39.7793V44.3711H93.206V39.7793C93.2229 39.6387 93.2895 39.5093 93.3932 39.4154C93.4969 39.3215 93.6306 39.2697 93.7691 39.2697C93.9075 39.2697 94.0412 39.3215 94.1449 39.4154C94.2486 39.5093 94.3152 39.6387 94.3321 39.7793H94.2982ZM93.4516 26.7233C93.4934 26.7222 93.535 26.7296 93.574 26.7452C93.613 26.7608 93.6486 26.7842 93.6786 26.8141C93.7086 26.844 93.7324 26.8797 93.7487 26.9192C93.7649 26.9586 93.7733 27.001 93.7733 27.0439V31.1071H93.1383V27.0439C93.1484 26.968 93.1847 26.8984 93.2406 26.8476C93.2965 26.7967 93.3683 26.768 93.4431 26.7666L93.4516 26.7233ZM92.207 26.7233C92.29 26.7233 92.3697 26.7571 92.4285 26.8172C92.4872 26.8773 92.5202 26.9589 92.5202 27.0439V31.1158H91.8852V27.0439C91.8937 26.9658 91.9307 26.8938 91.9888 26.8424C92.0469 26.791 92.1217 26.764 92.1985 26.7666L92.207 26.7233ZM91.5466 39.2076C91.6211 39.2076 91.6948 39.2226 91.7637 39.2518C91.8325 39.2809 91.895 39.3237 91.9477 39.3776C92.0004 39.4315 92.0421 39.4955 92.0706 39.5659C92.0991 39.6363 92.1138 39.7118 92.1138 39.788V44.3797H90.9878V39.788C90.9982 39.6446 91.0603 39.5103 91.1619 39.4111C91.2636 39.3119 91.3976 39.2548 91.5381 39.2509L91.5466 39.2076ZM88.7695 39.7967C88.7597 39.7151 88.767 39.6323 88.7908 39.5538C88.8146 39.4753 88.8544 39.4029 88.9077 39.3413C88.9609 39.2797 89.0263 39.2304 89.0995 39.1967C89.1728 39.1629 89.2522 39.1454 89.3326 39.1454C89.4129 39.1454 89.4923 39.1629 89.5655 39.1967C89.6388 39.2304 89.7042 39.2797 89.7574 39.3413C89.8106 39.4029 89.8505 39.4753 89.8743 39.5538C89.8981 39.6323 89.9054 39.7151 89.8956 39.7967V44.3884H88.7695V39.7967ZM88.8372 69.2529V64.6612C88.8274 64.5796 88.8347 64.4968 88.8585 64.4183C88.8823 64.3398 88.9222 64.2674 88.9754 64.2058C89.0287 64.1442 89.0941 64.0949 89.1673 64.0612C89.2405 64.0274 89.3199 64.01 89.4003 64.01C89.4806 64.01 89.56 64.0274 89.6333 64.0612C89.7065 64.0949 89.7719 64.1442 89.8252 64.2058C89.8784 64.2674 89.9182 64.3398 89.942 64.4183C89.9658 64.4968 89.9731 64.5796 89.9633 64.6612V69.2529H88.8372ZM91.064 69.2529V64.6612C91.0542 64.5796 91.0614 64.4968 91.0852 64.4183C91.109 64.3398 91.1489 64.2674 91.2021 64.2058C91.2553 64.1442 91.3207 64.0949 91.394 64.0612C91.4672 64.0274 91.5467 64.01 91.627 64.01C91.7073 64.01 91.7867 64.0274 91.86 64.0612C91.9332 64.0949 91.9986 64.1442 92.0519 64.2058C92.1051 64.2674 92.1449 64.3398 92.1687 64.4183C92.1926 64.4968 92.1998 64.5796 92.19 64.6612V69.2529H91.064ZM93.2822 69.2529V64.6612C93.2822 64.5854 93.2969 64.5103 93.3255 64.4404C93.3542 64.3704 93.3961 64.307 93.4489 64.2538C93.5017 64.2006 93.5643 64.1586 93.633 64.1304C93.7018 64.1022 93.7754 64.0883 93.8495 64.0894C93.9232 64.0882 93.9964 64.1022 94.0647 64.1306C94.133 64.1589 94.195 64.2009 94.2472 64.2543C94.2993 64.3076 94.3404 64.3711 94.3681 64.441C94.3958 64.5109 94.4094 64.5858 94.4083 64.6612V69.2529H93.2822ZM95.5005 69.2529V64.6612C95.4993 64.5854 95.513 64.5101 95.5406 64.4397C95.5681 64.3693 95.6091 64.3053 95.6611 64.2513C95.7131 64.1973 95.7751 64.1544 95.8435 64.1251C95.9118 64.0958 95.9852 64.0807 96.0593 64.0807C96.2083 64.0807 96.3513 64.1407 96.4574 64.2477C96.5636 64.3547 96.6243 64.5001 96.6265 64.6525V69.2442L95.5005 69.2529ZM97.7187 69.2529V64.6612C97.7089 64.5796 97.7162 64.4968 97.74 64.4183C97.7638 64.3398 97.8037 64.2674 97.8569 64.2058C97.9101 64.1442 97.9755 64.0949 98.0488 64.0612C98.122 64.0274 98.2014 64.01 98.2817 64.01C98.3621 64.01 98.4415 64.0274 98.5148 64.0612C98.588 64.0949 98.6534 64.1442 98.7066 64.2058C98.7599 64.2674 98.7997 64.3398 98.8235 64.4183C98.8473 64.4968 98.8546 64.5796 98.8448 64.6612V69.2529H97.7187ZM99.937 69.2529V64.6612C99.9272 64.5796 99.9344 64.4968 99.9582 64.4183C99.9821 64.3398 100.022 64.2674 100.075 64.2058C100.128 64.1442 100.194 64.0949 100.267 64.0612C100.34 64.0274 100.42 64.01 100.5 64.01C100.58 64.01 100.66 64.0274 100.733 64.0612C100.806 64.0949 100.872 64.1442 100.925 64.2058C100.978 64.2674 101.018 64.3398 101.042 64.4183C101.066 64.4968 101.073 64.5796 101.063 64.6612V69.2529H99.937ZM96.0169 59.2898C94.7213 59.3661 93.4331 59.0428 92.319 58.3619C91.2048 57.681 90.3159 56.6737 89.7672 55.4703C89.2185 54.2669 89.0353 52.9227 89.2411 51.6116C89.447 50.3004 90.0326 49.0827 90.9221 48.1157C91.8116 47.1488 92.9642 46.4771 94.2307 46.1877C95.4973 45.8982 96.8196 46.0042 98.0266 46.492C99.2336 46.9798 100.27 47.8269 101.001 48.9237C101.733 50.0206 102.126 51.3168 102.13 52.6448C102.171 54.3509 101.55 56.0042 100.403 57.243C99.2555 58.4818 97.6756 59.2052 96.0085 59.2551L96.0169 59.2898ZM102.181 69.2096V64.6179C102.198 64.4773 102.264 64.3478 102.368 64.2539C102.472 64.16 102.605 64.1082 102.744 64.1082C102.882 64.1082 103.016 64.16 103.12 64.2539C103.223 64.3478 103.29 64.4773 103.307 64.6179V69.2096H102.181Z" fill="#A364F4" fill-opacity="0.3"/>
<path d="M51.959 59.4561V57.0541H50.2182V55.8283H49.241V55H3.75077V55.8283H2.74078V57.0541H1V59.4561H2.74078V67.6974H1V70.0994H2.74078V83.7742H1.00822V85.058H2.74078V99.9669H6.54259V90.4417C6.59115 89.8648 6.85267 89.3272 7.2754 88.9355C7.69814 88.5437 8.25126 88.3263 8.82531 88.3263C9.39936 88.3263 9.95249 88.5437 10.3752 88.9355C10.7979 89.3272 11.0595 89.8648 11.108 90.4417V100H16.1087V85.0911H16.9298V83.7742H16.1087C16.3057 78.6803 20.8548 74.6052 26.4466 74.6052C32.0385 74.6052 36.5875 78.6803 36.7846 83.7742H35.9634V85.058H36.7846V100H41.8509V90.4417C41.8995 89.8648 42.161 89.3272 42.5837 88.9355C43.0065 88.5437 43.5596 88.3263 44.1336 88.3263C44.7077 88.3263 45.2608 88.5437 45.6835 88.9355C46.1063 89.3272 46.3678 89.8648 46.4164 90.4417V100H50.2592V85.0911H51.9918V83.7742H50.2592V70.0994H52V67.6974H50.2592V59.4561H51.959Z" fill="#A364F4" fill-opacity="0.3"/>
<path d="M43.279 88.2306C52.6549 88.2306 57.4768 98.0111 58.4412 99.9932H67C67 99.9932 58.2603 82.9541 57.3093 80.3569H57.4902V77.0352H57.7312V76.0032H55.7221C54.2622 71.6563 52.9496 67.2091 51.7843 62.6618H52.6683L53.05 61.8006L52.6683 60.7207H52.1325V59.3537H52.2531V58.3217H50.7931C47.9936 46.0951 46.2878 33.6343 45.6966 21.0928H45.8975V18.7622H46.3329V16.8894H45.8373V15.7275H43.875L43.5737 10H43.4263L43.125 15.7275H41.1627V16.8894H40.6671V18.7895H41.0221V21.1201H41.3168C40.7201 33.6615 39.0121 46.122 36.2136 58.349H34.7201V59.3811V60.748H34.2982L33.9165 61.6844L34.2982 62.6891H35.189C34.0237 67.2456 32.7088 71.6905 31.2444 76.0237H29.2353V77.0352H29.2955V80.3638H29.6906C28.7397 82.961 20 100 20 100H28.1169C29.0745 98.0111 33.9299 88.2306 43.279 88.2306ZM41.1761 20.9219H41.1426V18.7827H41.1761V20.9219ZM33.6888 79.7691L34.392 79.6256V79.899H33.7223C33.7223 79.8512 33.7089 79.8033 33.6888 79.7691ZM33.3406 78.8875V77.2676H34.392V79.236L33.5482 79.4069L33.3406 78.8875ZM33.4477 79.899H33.3406V79.8375H33.4209C33.4209 79.8375 33.441 79.8717 33.4477 79.8922V79.899ZM37.1981 75.9964H35.7649C35.5774 75.5453 35.3832 75.0873 35.189 74.6294C36.0261 74.4107 36.8632 74.1783 37.6869 73.9459C37.5329 74.6226 37.399 75.306 37.1981 75.9895V75.9964ZM37.399 77.2676H38.4504V79.899H37.399V77.2676ZM36.294 77.2676H36.8833L36.6623 78.163C36.5417 77.8554 36.4145 77.5615 36.294 77.2608V77.2676ZM36.5485 78.6346L36.5083 78.7781L36.0462 78.8875V77.377L36.5485 78.6346ZM35.7448 79.318V79.8922H34.7201V79.5573L35.7448 79.318ZM34.6934 79.1677V77.2608H35.7448V78.9285L34.6934 79.1677ZM36.0328 79.8922V79.2497L36.3877 79.1745C36.3207 79.4137 36.2605 79.6529 36.1935 79.8922H36.0328ZM37.0708 77.4863V79.8922H36.4547C36.6891 79.0857 36.8967 78.2928 37.0976 77.4863H37.0708ZM38.725 79.8922V77.2608H39.7764V79.8922H38.725ZM40.0778 79.8922V77.2608H41.1292V79.8922H40.0778ZM41.4306 79.8922V77.2608H42.482V79.8922H41.4306ZM43.8348 79.8922H42.7834V77.2608H43.8348V79.8922ZM45.1743 79.8922H44.163V77.2608H45.2145L45.1743 79.8922ZM46.5137 79.8922H45.4555V77.2608H46.5137V79.8922ZM47.8531 79.8922H46.795V77.2608H47.8531V79.8922ZM49.1925 79.8922H48.1344V77.2608H49.1925V79.8922ZM37.3856 75.9895C38.4482 71.6062 39.3746 67.1613 40.1649 62.6549H46.7749C47.5651 67.1613 48.4915 71.6085 49.5541 75.9964L37.3856 75.9895ZM37.8477 72.8934C37.3789 71.8226 36.8989 70.7587 36.4078 69.7015C37.178 69.4623 37.9414 69.2026 38.7049 68.9361C38.4861 70.262 38.2272 71.5811 37.928 72.8934H37.8477ZM38.9393 67.8015C38.4772 66.8651 38.0151 65.9288 37.5396 65.0061C38.2093 64.7532 38.9326 64.4935 39.6224 64.2201C39.4885 65.4162 39.2541 66.6122 39.0197 67.8015H38.9393ZM40.627 58.3422H40.2787C39.9372 57.7612 39.609 57.1803 39.2474 56.6062L40.9953 55.8475C40.9551 56.6814 40.8346 57.5084 40.7073 58.3422H40.627ZM40.6872 59.5588H41.1092V60.7138H40.5064V60.6318C40.6538 60.2901 40.7073 59.9484 40.7475 59.5588H40.6872ZM40.272 59.8322V60.5156C40.272 60.584 40.272 60.6523 40.2385 60.7207H39.676V60.0714L40.272 59.8322ZM39.676 59.6613V59.5588H39.9506L39.676 59.6613ZM39.9037 62.6549C39.9037 62.7506 39.8702 62.8463 39.8568 62.9488C39.8032 62.8463 39.743 62.7506 39.6894 62.6549H39.9037ZM41.3436 60.7138V59.5588H41.9463V60.7138H41.3436ZM42.1807 60.7138V59.5588H42.7834V60.7138H42.1807ZM43.0178 60.7138V59.5588H43.6138V60.7138H43.0178ZM43.8482 60.7138V59.5588H44.451V60.7138H43.8482ZM44.6854 60.7138V59.5588H45.2881V60.7138H44.6854ZM47.1432 62.6549C47.0896 62.7506 47.0293 62.8463 46.9758 62.9488C46.9758 62.8463 46.9423 62.7506 46.9289 62.6549H47.1432ZM46.6007 60.7138C46.5472 60.4063 46.4936 60.0987 46.4467 59.7843L46.9557 59.9825V60.7138H46.6007ZM46.5539 58.3422H46.2123C46.0851 57.5084 45.9578 56.6814 45.8373 55.8475L47.5852 56.6062L46.5539 58.3422ZM45.5225 60.7138V59.5588H46.1185V60.7138H45.5225ZM47.2102 64.2201C47.8799 64.4935 48.5965 64.7532 49.293 65.0061C48.8242 65.9288 48.3554 66.8583 47.9 67.8015C47.7124 66.6122 47.5093 65.4184 47.2905 64.2201H47.2102ZM48.1277 68.9361C48.8911 69.2026 49.6613 69.4623 50.4248 69.7015C49.9359 70.7541 49.4604 71.8203 48.9849 72.8934C48.7438 71.5811 48.4849 70.262 48.208 68.9361H48.1277ZM49.226 73.9323C50.0564 74.1783 50.8869 74.4107 51.724 74.6157C51.5298 75.0668 51.3356 75.5247 51.148 75.9827H49.7149C49.6278 75.306 49.4537 74.6226 49.3064 73.9323H49.226ZM49.4872 79.8922V77.2608H49.7617C49.9761 78.1425 50.2038 79.0173 50.4315 79.8922H49.4872ZM50.5453 79.277C50.5423 79.2429 50.5423 79.2086 50.5453 79.1745V79.277ZM50.5453 78.7849L50.4047 78.7508L50.3645 78.6072L50.5453 78.1767V78.7849ZM50.5453 77.4521C50.4449 77.6845 50.3511 77.9237 50.2573 78.1356C50.177 77.8349 50.1033 77.541 50.0296 77.2403H50.5453V77.4521ZM51.8847 79.8922H50.8266V79.2497L51.8847 79.4889V79.8922ZM51.8847 79.0993L50.8266 78.8533V77.4521L50.907 77.2608H51.8847V79.0993ZM53.1572 79.8922H52.1794V79.5504L53.2107 79.7623C53.2844 79.8033 53.271 79.8512 53.2509 79.8922H53.1572ZM53.2375 79.3796L52.1794 79.1608V77.2608H53.2375V79.3796ZM53.5322 79.8922V79.8307L53.8938 79.8922H53.5322ZM54.5836 79.6324L53.626 79.4547C53.9206 78.7166 54.2153 77.9853 54.5167 77.2608H54.5836V79.6324ZM53.5322 78.949V77.2608H54.2019L53.5322 78.949ZM56.211 77.2608H57.1017V79.8922H57.0147L56.211 77.6299V77.2608ZM56.211 79.7965C56.211 79.7965 56.211 79.8648 56.2445 79.8922H56.211V79.7965ZM54.8716 77.2608H55.3337C55.5279 77.8281 55.7288 78.3885 55.923 78.949V79.858L54.8716 79.6803V77.2608ZM54.8314 75.7571L54.731 75.9964H51.5298L52.0722 74.6977C52.983 74.9301 53.8871 75.142 54.7912 75.3334C54.8113 75.4701 54.8917 75.6136 54.9386 75.7571H54.8314ZM54.5435 74.9096C53.7398 74.7319 52.9295 74.5474 52.1191 74.3423C52.5544 73.3445 52.9897 72.3603 53.4585 71.3829C53.8738 72.563 54.2711 73.7386 54.6506 74.9096H54.5435ZM53.3112 70.9797C52.8156 72.0664 52.3267 73.1599 51.8512 74.274C50.9337 74.0348 50.0095 73.7819 49.0987 73.5085C49.0987 73.4538 49.0988 73.3991 49.0653 73.3513C49.5876 72.1575 50.1212 70.9705 50.6659 69.7904C51.503 70.0501 52.3401 70.2893 53.1705 70.5149L53.3112 70.9797ZM53.0433 70.0843C52.3066 69.8861 51.57 69.6742 50.8333 69.4418C51.2485 68.5305 51.6704 67.6488 52.099 66.7968C52.5143 67.8972 52.8022 68.9976 53.1505 70.0843H53.0433ZM51.9852 66.3799C51.503 67.3641 51.0275 68.3574 50.5587 69.3598C49.7082 69.0933 48.8577 68.8062 48.0138 68.5055C48.0138 68.4234 47.9803 68.3414 47.9602 68.2594C48.4759 67.2 49.005 66.1407 49.5408 65.1018C50.3109 65.3752 51.0811 65.628 51.8445 65.8741L51.9852 66.3799ZM51.3155 59.5451H51.8177V60.7002H51.4628L51.3155 59.5451ZM51.0811 59.5451V60.1466C51.0342 59.9484 50.9873 59.7433 50.9337 59.5451H51.0811ZM50.927 62.6823H51.1079C51.3423 63.6118 51.5834 64.5413 51.8378 65.464C51.1681 65.2521 50.4984 65.0266 49.8287 64.7805L50.927 62.6823ZM50.6123 60.666C50.6123 60.666 50.6123 60.7207 50.6123 60.7412V60.666ZM49.5475 64.6917C48.7639 64.4183 47.987 64.1244 47.2102 63.8168C47.2102 63.687 47.1633 63.5571 47.1365 63.4272L47.5584 62.6823H50.6056C50.2506 63.3179 49.8957 63.9877 49.5475 64.6643V64.6917ZM47.8732 60.3379V60.7412H47.2704V60.1056L47.8732 60.3379ZM47.2704 59.7023V59.5861H47.8732V59.9347L47.2704 59.7023ZM48.6098 60.2217L48.1143 60.0304V59.5861H48.7103V60.0509L48.6098 60.2217ZM48.7103 60.6592V60.7412H48.65C48.65 60.7412 48.65 60.6865 48.6969 60.6523L48.7103 60.6592ZM48.4223 60.5498C48.3888 60.6113 48.3554 60.6797 48.3152 60.7412H48.1143V60.4268L48.4223 60.5498ZM49.3264 59.5861H49.5475V60.5567L48.9447 60.3448V60.2286L49.3264 59.5861ZM48.9447 59.6545V59.5861H48.9849L48.9447 59.6545ZM50.3846 59.7091V60.7412H50.0832L49.7818 60.6387V59.5861H50.3511C50.3578 59.5998 50.3645 59.6408 50.3779 59.6818L50.3846 59.7091ZM50.0631 58.3422V58.3832H50.0296L50.0631 58.3422ZM49.9694 57.9253L49.7015 58.3832H46.9758L47.9401 56.7634C48.6099 57.0299 49.2327 57.2828 49.8756 57.5289C49.9024 57.6245 49.9359 57.7544 49.9627 57.8979L49.9694 57.9253ZM49.7818 57.0914C49.2327 56.8796 48.6902 56.6677 48.1478 56.4421C48.5094 55.8407 48.8844 55.2461 49.2528 54.6514C49.4537 55.4238 49.5943 56.2371 49.7752 57.0504L49.7818 57.0914ZM49.1657 54.2345C48.7304 54.918 48.2951 55.6015 47.8665 56.326C47.1968 56.0457 46.5271 55.7587 45.8574 55.4579C46.3351 54.6788 46.8173 53.9064 47.3039 53.141C47.9 53.4143 48.496 53.6809 49.092 53.9338L49.1657 54.2345ZM45.8172 55C45.6899 54.0842 45.5694 53.1615 45.4488 52.2661L47.0628 53.0316C46.6298 53.6467 46.2078 54.2892 45.7971 54.959L45.8172 55ZM49.0318 53.4827C48.5295 53.2708 48.0339 53.0521 47.5316 52.7992C47.8799 52.2593 48.2013 51.7262 48.5831 51.1999C48.7036 51.9312 48.8576 52.6899 49.0117 53.4417L49.0318 53.4827ZM48.5027 50.7898C48.0875 51.4186 47.6723 52.0542 47.2571 52.6967C46.6342 52.4096 46.0114 52.1157 45.3953 51.8082C45.3953 51.733 45.3953 51.6578 45.3953 51.5758C45.8507 50.8923 46.3195 50.1678 46.7816 49.4775C47.3307 49.7509 47.8799 50.0175 48.429 50.2772C48.4223 50.4139 48.4491 50.5848 48.4826 50.7488L48.5027 50.7898ZM45.3149 51.1384C45.2145 50.2908 45.114 49.4365 45.0202 48.5822C45.5091 48.8419 46.0047 49.1016 46.4936 49.3477C46.1051 49.9013 45.6832 50.4959 45.2948 51.0974L45.3149 51.1384ZM48.3219 49.8398L46.9825 49.1563L47.9669 47.721C48.054 48.4113 48.1745 49.1016 48.3018 49.7988L48.3219 49.8398ZM47.8799 47.3246C47.4847 47.8919 47.0896 48.466 46.7012 49.0469C46.1186 48.753 45.5426 48.4523 44.9734 48.1516C44.9701 48.1106 44.9701 48.0695 44.9734 48.0286C45.4087 47.3861 45.8574 46.7368 46.3128 46.1011C46.815 46.3745 47.324 46.6411 47.8263 46.9008C47.8062 47.0033 47.833 47.14 47.8598 47.2836L47.8799 47.3246ZM44.9064 47.5638C44.826 46.7778 44.7456 45.985 44.672 45.199L46.0114 45.9508L44.9064 47.5638ZM47.7259 46.4497C47.3173 46.2379 46.9088 46.026 46.507 45.8004L47.4178 44.5292C47.4981 45.1306 47.5986 45.7663 47.7058 46.4087L47.7259 46.4497ZM47.3508 44.0986C46.9758 44.6112 46.6074 45.1306 46.2324 45.6569C45.71 45.3698 45.181 45.0759 44.6586 44.7752C45.0738 44.1942 45.489 43.6133 45.9109 43.0392L47.3039 43.832C47.2972 43.8799 47.3173 43.9687 47.3307 44.0576L47.3508 44.0986ZM44.5983 44.3378C44.5313 43.6065 44.4644 42.8752 44.4108 42.1438L45.6498 42.882L44.5983 44.3378ZM47.237 43.3741C46.8686 43.169 46.5003 42.964 46.132 42.7453C46.4132 42.3625 46.6945 41.9866 46.9825 41.6107C47.0427 42.178 47.1298 42.7453 47.2169 43.3331L47.237 43.3741ZM46.9155 41.1801C46.5606 41.6449 46.2123 42.1165 45.8641 42.5949C45.3618 42.301 44.8662 42.0071 44.3773 41.7064V41.6449C44.7791 41.105 45.181 40.565 45.5895 40.0319C46.0181 40.2985 46.44 40.5582 46.8686 40.8111C46.8619 40.8931 46.882 41.0161 46.8954 41.1391L46.9155 41.1801ZM44.3371 41.1801C44.2835 40.4967 44.2367 39.8132 44.1898 39.1297C44.5648 39.3758 44.9399 39.615 45.3216 39.8474C44.9733 40.2711 44.6385 40.7017 44.317 41.1391L44.3371 41.1801ZM46.8017 40.3531L45.8038 39.7517L46.5873 38.7401C46.6409 39.2391 46.7079 39.779 46.7749 40.3121L46.8017 40.3531ZM46.5338 38.3027C46.1989 38.7265 45.8641 39.1502 45.5359 39.5808C45.0738 39.2937 44.6184 38.9998 44.163 38.706C44.163 38.6513 44.163 38.6034 44.163 38.5488C44.538 38.0931 44.9198 37.6147 45.3082 37.1135L46.4936 37.879C46.4735 37.9815 46.4936 38.125 46.5137 38.2685L46.5338 38.3027ZM44.096 38.0772C44.0559 37.4689 44.0224 36.8606 43.9889 36.2523L45.0068 36.9358C44.7055 37.2843 44.4041 37.6671 44.096 38.0772ZM46.3931 37.3937L45.489 36.8127C45.7301 36.512 45.9779 36.2181 46.219 35.9242C46.286 36.4095 46.3396 36.8947 46.3998 37.3937H46.3931ZM46.1654 35.4936C45.8507 35.8695 45.5426 36.2523 45.2278 36.635L43.9621 35.7944V35.7055C44.317 35.2681 44.6787 34.8306 45.0403 34.4001L46.1252 35.1382L46.1654 35.4936ZM43.9353 35.2476C43.9353 34.6871 43.8817 34.1267 43.8616 33.5662L44.7858 34.2497C44.5046 34.5504 44.2233 34.8922 43.942 35.2407L43.9353 35.2476ZM46.1052 34.6598L45.2948 34.113C45.5158 33.8464 45.7435 33.5867 45.9645 33.327L46.1052 34.6598ZM45.9176 32.8964L45.0135 33.9763L43.8482 33.1561C43.8482 33.0536 43.8482 32.9579 43.8482 32.8622L44.8662 31.673L45.8507 32.3565L45.9176 32.8964ZM43.8348 32.3496C43.8348 31.837 43.8014 31.3313 43.788 30.8187L44.6184 31.4406L43.8348 32.3496ZM45.7033 30.6888C45.7435 31.0852 45.777 31.4748 45.8172 31.8712L45.1073 31.3654L45.7033 30.6888ZM45.7033 18.769H45.7971V20.9083H45.71C45.7068 20.8696 45.7068 20.8307 45.71 20.7921L45.7033 18.769ZM45.7033 30.2514L44.8863 31.1741L43.8148 30.3812C43.8181 30.3403 43.8181 30.2991 43.8148 30.2582L44.7791 29.1783L45.6765 29.8618C45.6163 29.9985 45.6297 30.1283 45.6431 30.265L45.7033 30.2514ZM43.7947 29.7934C43.7947 29.3287 43.7947 28.8639 43.7947 28.4265L44.5448 29.0074L43.7947 29.7934ZM45.6297 29.3902L45.0068 28.9186C45.181 28.7204 45.3618 28.529 45.5426 28.3308C45.5091 28.6999 45.5359 29.0484 45.5694 29.4039L45.6297 29.3902ZM45.5091 27.8934L44.7457 28.7272L43.7545 27.9617V27.7704C44.0492 27.4423 44.3505 27.1211 44.6519 26.793L45.4689 27.4286L45.5091 27.8934ZM43.7478 27.3056V26.048L44.4175 26.5948C44.096 26.8408 43.9018 27.08 43.6875 27.3193L43.7478 27.3056ZM45.4287 26.9639L44.893 26.5401L45.3685 26.0412L45.4287 26.9639ZM45.335 25.5969L44.6653 26.3419C44.3572 26.1027 44.0558 25.8566 43.7545 25.6106V25.4465C44.0291 25.1526 44.317 24.8587 44.5983 24.5649L45.335 25.1663C45.2546 25.3235 45.268 25.467 45.2747 25.6106L45.335 25.5969ZM45.2747 24.7015L44.8059 24.3188L45.2211 23.895C45.181 24.1753 45.2011 24.4418 45.2145 24.7152L45.2747 24.7015ZM45.1274 22.2205L44.7389 21.8925L45.0939 21.5439C45.047 21.7831 45.0604 22.0087 45.0671 22.2342L45.1274 22.2205ZM44.5045 18.8032H44.9131V20.9424H44.5045V18.8032ZM43.8884 18.8032H44.3036V20.9424H43.8884V18.8032ZM45.0671 21.1338L44.4912 21.7011L43.8215 21.127L45.0671 21.1338ZM43.7277 21.4961L44.2501 21.9471C44.0693 22.1248 43.8951 22.3026 43.721 22.4871C43.6674 22.1317 43.6674 21.8036 43.6741 21.4756L43.7277 21.4961ZM43.7277 22.9519L44.5113 22.1659L45.181 22.7195C45.181 22.9724 45.181 23.2321 45.2278 23.485L44.5581 24.1684L43.721 23.485L43.7277 22.9519ZM44.3237 24.3872C44.1295 24.599 43.9286 24.8041 43.7277 25.0159V23.8882L44.3237 24.3872ZM43.567 30.2992C43.822 39.6993 44.6676 49.0731 46.0985 58.3627H41.0288C42.437 49.0645 43.2624 39.6841 43.5 30.2787L43.567 30.2992ZM41.2632 54.9795C40.8524 54.3097 40.4372 53.6467 40.0175 52.9906L41.6315 52.2251C41.4507 53.1136 41.3235 54.0431 41.1962 54.959L41.2632 54.9795ZM41.7655 51.1179C41.377 50.5164 40.9819 49.9218 40.5868 49.3272C41.0824 49.0811 41.5712 48.8214 42.0601 48.5617C41.8994 49.3955 41.8057 50.2498 41.6985 51.0974L41.7655 51.1179ZM42.174 47.5433L41.0556 45.9303C41.511 45.6842 41.9597 45.4314 42.395 45.1785C42.2677 45.944 42.1874 46.7368 42.0869 47.5228L42.174 47.5433ZM42.4887 44.3173L41.3703 42.8615L42.6093 42.1233C42.549 42.8615 42.4887 43.545 42.4218 44.2968L42.4887 44.3173ZM42.7499 41.1596L41.7655 39.8474L42.8973 39.1297C42.7566 39.7858 42.7566 40.4625 42.683 41.1391L42.7499 41.1596ZM42.9642 38.0703L42.0534 36.9289L43.0714 36.2454C42.9709 36.8332 42.9307 37.4415 42.8973 38.0772L42.9642 38.0703ZM43.1183 35.2544L42.2744 34.2292L43.1986 33.5457C43.1049 34.1198 43.0848 34.6598 43.0513 35.2339L43.1183 35.2544ZM43.2455 32.3838L42.462 31.4748L43.2991 30.8528C43.212 31.3449 43.1986 31.8507 43.1785 32.3633L43.2455 32.3838ZM43.3259 29.8276C43.0915 29.5542 42.8504 29.2877 42.6093 29.0143L43.3594 28.4402C43.2857 28.8776 43.2723 29.3423 43.2589 29.8071L43.3259 29.8276ZM43.3794 27.3398L42.7097 26.6563L43.3794 26.1095C43.3259 26.4581 43.3192 26.9023 43.3125 27.3193L43.3794 27.3398ZM43.3794 25.0159C43.1852 24.8041 42.9843 24.599 42.7834 24.3872L43.3862 23.8882C43.3393 24.2436 43.3326 24.6195 43.3326 24.9954L43.3794 25.0159ZM43.3794 22.4871C43.2053 22.3026 43.0245 22.1248 42.8504 21.9471L43.3728 21.4961C43.3259 21.8036 43.3326 22.1317 43.3326 22.4666L43.3794 22.4871ZM43.2656 18.8032H43.3259C43.3259 19.4866 43.3594 20.2316 43.3661 20.9424H43.2656V18.8032ZM42.6495 18.8032H43.0647V20.9424H42.6495V18.8032ZM42.1338 18.8032H42.4486V20.9424H42.04C42.0333 20.2111 42.0869 19.4935 42.0869 18.7827L42.1338 18.8032ZM42.0334 21.1338H43.279L42.6093 21.7079L42.0334 21.1406V21.1338ZM42.0334 21.5781C42.1472 21.6943 42.2677 21.8036 42.3816 21.9266L41.9932 22.2547L42.0334 21.5781ZM41.9664 22.7195L42.6361 22.1659C42.8973 22.4256 43.1585 22.6853 43.4129 22.9519C43.4129 23.1159 43.4129 23.2799 43.4129 23.444L42.5758 24.1274L41.9061 23.444L41.9664 22.7195ZM41.8994 23.9292L42.3146 24.353L41.8458 24.7357C41.799 24.4418 41.819 24.1753 41.8324 23.9087L41.8994 23.9292ZM41.819 25.2005C42.0601 24.9954 42.3079 24.7972 42.5557 24.599L43.3995 25.4807V25.6447L42.4887 26.3761L41.7855 25.6311C41.732 25.467 41.7387 25.3235 41.7521 25.18L41.819 25.2005ZM41.7588 26.0753L42.2343 26.5743L41.6918 26.998C41.6516 26.67 41.665 26.3624 41.6918 26.0548L41.7588 26.0753ZM41.6516 27.4423C41.9262 27.2304 42.2008 27.0254 42.4687 26.8067L43.3728 27.784C43.3694 27.8478 43.3694 27.9117 43.3728 27.9754L42.3816 28.7409C42.1338 28.4607 41.8793 28.1873 41.6248 27.907C41.5645 27.7567 41.5779 27.5995 41.5846 27.4423H41.6516ZM41.5846 28.3445C41.7588 28.5427 41.9396 28.7409 42.1204 28.9323C41.9128 29.0963 41.7052 29.2467 41.4976 29.4039C41.4574 29.0484 41.4842 28.6999 41.5177 28.3445H41.5846ZM41.444 18.7758H41.4172L41.377 19.6712L41.444 18.7758ZM41.4172 29.8755L42.3146 29.192C42.6361 29.5474 42.9843 29.9096 43.2723 30.2719V30.3949L42.1941 31.1877L41.377 30.265L41.4172 29.8755ZM41.3369 30.7161L41.9396 31.3996L41.2297 31.9054C41.2364 31.4885 41.2766 31.092 41.3101 30.7025L41.3369 30.7161ZM41.1828 32.3565L42.1673 31.673L43.1852 32.8622C43.1852 32.9579 43.1852 33.0536 43.1852 33.1561L42.0133 33.9763C41.7186 33.6277 41.4239 33.2928 41.1359 32.9374C41.1158 32.7187 41.1359 32.5342 41.156 32.3428L41.1828 32.3565ZM41.0824 33.3543L41.7521 34.1335C41.4842 34.3249 41.2163 34.5026 40.9417 34.6871C40.9618 34.2292 41.0087 33.7849 41.0556 33.3407L41.0824 33.3543ZM40.8881 35.1451L41.9731 34.4069L43.058 35.7123V35.8012C42.6428 36.0814 42.2209 36.3685 41.799 36.6419L40.8547 35.5005L40.8881 35.1451ZM40.7944 35.931C41.0422 36.2249 41.2833 36.5188 41.5244 36.8196L40.6203 37.4005C40.6537 36.8947 40.7475 36.4095 40.7475 35.9174L40.7944 35.931ZM40.5667 37.8584L41.7521 37.093L42.8906 38.5283C42.8906 38.5829 42.8906 38.6308 42.8906 38.6854L41.511 39.5603C41.1828 39.1297 40.8413 38.706 40.5198 38.2822C40.5064 38.125 40.5198 37.9815 40.5399 37.8448L40.5667 37.8584ZM40.4528 38.7128C40.714 39.0477 40.9819 39.3963 41.2431 39.7243L40.2385 40.3258C40.2854 39.779 40.3591 39.2391 40.426 38.6991L40.4528 38.7128ZM40.1783 40.7632C40.6069 40.5103 41.0355 40.2506 41.4574 39.984C41.8659 40.5172 42.2744 41.0571 42.6763 41.597V41.6586L41.1895 42.5471C40.8413 42.0687 40.4863 41.5971 40.1314 41.1323C40.118 41.0161 40.1381 40.8931 40.1515 40.7701L40.1783 40.7632ZM40.0644 41.5629C40.3457 41.9388 40.6337 42.3147 40.9149 42.6975C40.5466 42.9162 40.1783 43.1212 39.8032 43.3262C39.8702 42.7453 39.9506 42.178 40.0376 41.5697L40.0644 41.5629ZM39.7362 43.7842L41.1292 42.9913C41.5512 43.5655 41.9731 44.1464 42.3816 44.7274C41.8592 45.0281 41.3368 45.322 40.8078 45.609C40.4394 45.0828 40.0644 44.5633 39.6961 44.0507L39.7362 43.7842ZM39.6224 44.4677L40.5399 45.7389C40.1314 45.9645 39.7228 46.1763 39.3143 46.3882C39.4081 45.7663 39.4952 45.1306 39.5956 44.4882L39.6224 44.4677ZM39.2407 46.8393L40.7542 46.0396L42.0936 47.967C42.0903 48.008 42.0903 48.0491 42.0936 48.0901L40.3189 49.0128C39.9238 48.4318 39.5353 47.8577 39.1402 47.2904C39.1603 47.14 39.1871 47.0033 39.2139 46.8598L39.2407 46.8393ZM39.0933 47.6868L40.0711 49.1221C39.6224 49.3477 39.167 49.5595 38.7317 49.8056C38.8187 49.1016 38.946 48.4045 39.0665 47.7073L39.0933 47.6868ZM38.6379 50.2293C39.1804 49.9696 39.7295 49.7031 40.2787 49.4228C40.7475 50.1063 41.2096 50.824 41.665 51.5279C41.665 51.61 41.665 51.6851 41.665 51.7603C41.0489 52.0679 40.426 52.3618 39.8032 52.6488L38.5576 50.742L38.6379 50.2293ZM38.4638 51.1589L39.5085 52.7582C39.0063 52.9906 38.5107 53.2093 38.0151 53.4417C38.1424 52.6899 38.2897 51.9312 38.437 51.1794L38.4638 51.1589ZM37.9213 53.8928C38.5174 53.6399 39.1134 53.3733 39.7095 53.0999C40.1961 53.8654 40.6783 54.6378 41.156 55.4169C40.4863 55.7176 39.8166 56.0047 39.1469 56.2849C38.7183 55.6015 38.283 54.8838 37.8477 54.1935L37.9213 53.8928ZM37.774 54.6173C38.149 55.2119 38.5174 55.8065 38.8857 56.408C38.3366 56.6335 37.7941 56.8454 37.2516 57.0573C37.4168 56.2508 37.582 55.4351 37.7472 54.6104L37.774 54.6173ZM37.1512 57.4947C37.8209 57.2486 38.437 56.9958 39.0799 56.7292C39.4081 57.2623 39.7497 57.8091 40.0443 58.349H37.3253C37.2383 58.1987 37.1512 58.0415 37.0574 57.8911C37.0641 57.7544 37.0909 57.6245 37.1244 57.4878L37.1512 57.4947ZM38.946 59.9962V59.5656H39.5487V59.7638L38.946 59.9962ZM39.5487 60.1602V60.7207H38.946V60.3926L39.5487 60.1602ZM38.4169 60.2012C38.3165 60.0235 38.216 59.8595 38.1089 59.6818V59.5656H38.7116V60.0851L38.4169 60.2012ZM38.7116 60.4883V60.7207L38.6044 60.5293L38.7116 60.4883ZM38.3299 60.6318L38.3767 60.7207H38.0687L38.3299 60.6318ZM38.1089 60.3106V60.2628V60.3038V60.3106ZM37.8745 59.8595V60.3926L37.2784 60.6045V59.5656H37.7004L37.8745 59.8595ZM36.9637 58.308V58.349H36.9302L36.9637 58.308ZM36.4413 60.5293C36.5217 60.2081 36.602 59.8868 36.6757 59.5656H37.044V60.6865L36.9436 60.7207H36.4413V60.5293ZM39.4684 62.6618C39.6023 62.9078 39.7496 63.1539 39.8836 63.4067C39.8836 63.5366 39.8367 63.6665 39.8099 63.7963C39.0398 64.1039 38.2562 64.3978 37.4726 64.6712C37.1244 63.9877 36.7695 63.3042 36.4145 62.6618H39.4684ZM35.6042 59.5656H35.9591L35.6778 60.7207H35.6042V59.5656ZM34.9345 60.7207V59.5656H35.343V60.7207H34.9345ZM35.8921 62.6618H36.0596C36.4346 63.3452 36.8029 64.0287 37.1713 64.7737C36.5016 65.0061 35.8319 65.2316 35.1622 65.4572C35.3899 64.514 35.651 63.5844 35.8921 62.6823V62.6618ZM35.0416 65.8809C35.8118 65.6349 36.5819 65.382 37.3521 65.1086C37.8879 66.152 38.4125 67.2046 38.9259 68.2663C38.9259 68.3483 38.9259 68.4303 38.879 68.5123C38.0285 68.813 37.178 69.1001 36.3274 69.3666C35.8586 68.3619 35.3832 67.3641 34.901 66.3867L35.0416 65.8809ZM34.7871 66.7831C35.2336 67.6534 35.6555 68.5351 36.0529 69.4282C35.3162 69.6605 34.5795 69.8724 33.8495 70.0706C34.171 68.9976 34.4858 67.8972 34.7871 66.7831ZM33.7156 70.5012C34.546 70.2757 35.3832 70.0365 36.2203 69.7767C36.7627 70.9523 37.2985 72.1415 37.8276 73.3308L37.7874 73.4948C36.8766 73.7682 35.9591 74.0211 35.0349 74.2603C34.5572 73.1485 34.0705 72.0504 33.575 70.966L33.7156 70.5012ZM33.4544 71.3692C33.9009 72.3443 34.3473 73.3308 34.7938 74.3287C33.9835 74.5337 33.1731 74.7183 32.3695 74.896C32.7311 73.7386 33.0928 72.5676 33.4544 71.3829V71.3692ZM32.202 75.3129C33.1062 75.1215 34.0103 74.9165 34.9211 74.6841C35.1019 75.1147 35.2827 75.5453 35.4702 75.9759H32.1552C32.1217 75.9007 32.0949 75.8186 32.0614 75.7435L32.202 75.3129ZM33.0392 77.2471V78.122C32.9253 77.8281 32.8048 77.5342 32.6842 77.2471H33.0392ZM31.9878 77.2471H32.3829C32.6039 77.7802 32.8249 78.3202 33.0526 78.8601V79.4821L32.0011 79.6734L31.9878 77.2471ZM30.6349 77.2471H30.7957L30.6349 77.6914V77.2471ZM30.6349 79.858C30.9497 78.9968 31.2511 78.122 31.5524 77.2471H31.6864V79.7691L30.7153 79.9195H30.6349V79.858ZM29.5902 79.8785V77.2471H30.3336V78.5389C30.1796 78.99 30.0188 79.4342 29.8581 79.9058L29.5902 79.8785Z" fill="#CF64F4" fill-opacity="0.8"/>
<path d="M135.667 59.9496C135.666 58.4024 135.106 56.9072 134.089 55.7381C133.072 54.569 131.666 53.8042 130.129 53.5838V53.1859C130.127 53.0765 130.082 52.9722 130.005 52.8948C129.927 52.8174 129.822 52.7729 129.713 52.7707H129.461V51.3263H129.825V50.8593H129.461V49.2073C129.544 49.1625 129.614 49.0964 129.662 49.0158C129.711 48.9352 129.738 48.843 129.739 48.7489C129.722 48.6217 129.66 48.5048 129.563 48.4201C129.467 48.3354 129.342 48.2887 129.214 48.2887C129.085 48.2887 128.961 48.3354 128.864 48.4201C128.767 48.5048 128.705 48.6217 128.688 48.7489C128.687 48.8445 128.714 48.9385 128.764 49.0198C128.815 49.101 128.888 49.166 128.975 49.2073V50.8593H128.602V51.3263H128.975V52.7707H128.714C128.603 52.7707 128.496 52.8142 128.417 52.8918C128.337 52.9694 128.291 53.075 128.289 53.1859V53.5838C126.754 53.8061 125.35 54.5717 124.335 55.7407C123.319 56.9096 122.76 58.4036 122.76 59.9496V61.4891H135.667V59.9496Z" fill="#CF64F4" fill-opacity="0.8"/>
<path d="M151.578 98.8968H151.127V75.4575H152.099C152.158 75.4587 152.216 75.4481 152.271 75.4264C152.326 75.4048 152.376 75.3725 152.418 75.3314C152.46 75.2903 152.493 75.2413 152.516 75.1872C152.539 75.1331 152.55 75.0751 152.55 75.0164C152.551 74.9566 152.541 74.8972 152.518 74.8416C152.496 74.7861 152.463 74.7354 152.421 74.6928C152.379 74.6501 152.329 74.6162 152.274 74.593C152.218 74.5699 152.159 74.558 152.099 74.558H106.267C106.147 74.5602 106.032 74.6096 105.948 74.6953C105.863 74.781 105.816 74.8963 105.816 75.0164C105.818 75.1342 105.867 75.2464 105.951 75.3289C106.036 75.4113 106.149 75.4575 106.267 75.4575H107.031V98.8968H106.51C106.158 98.8966 105.816 99.0166 105.541 99.2368C105.266 99.4571 105.075 99.7644 105 100.108H153.071C152.997 99.7673 152.808 99.4622 152.537 99.2422C152.266 99.0223 151.928 98.9005 151.578 98.8968ZM135.008 78.3377C135.006 78.2726 135.018 78.208 135.043 78.1477C135.067 78.0873 135.104 78.0325 135.15 77.9865C135.196 77.9404 135.251 77.9042 135.312 77.8798C135.372 77.8555 135.437 77.8435 135.502 77.8447H135.841C135.905 77.8447 135.969 77.8575 136.029 77.8824C136.088 77.9072 136.142 77.9437 136.188 77.9896C136.233 78.0355 136.269 78.0899 136.292 78.1497C136.316 78.2094 136.328 78.2734 136.327 78.3377V81.2525H135.008V78.3377ZM131.7 78.3377C131.699 78.2734 131.711 78.2094 131.735 78.1497C131.759 78.0899 131.794 78.0355 131.84 77.9896C131.885 77.9437 131.939 77.9072 131.998 77.8824C132.058 77.8575 132.122 77.8447 132.186 77.8447H132.534C132.663 77.847 132.787 77.8999 132.878 77.9921C132.969 78.0843 133.02 78.2084 133.02 78.3377V81.2525H131.7V78.3377ZM128.228 78.3377C128.227 78.2734 128.239 78.2094 128.263 78.1497C128.287 78.0899 128.322 78.0355 128.368 77.9896C128.413 77.9437 128.467 77.9072 128.526 77.8824C128.586 77.8575 128.65 77.8447 128.714 77.8447H129.062C129.126 77.8447 129.19 77.8575 129.25 77.8824C129.309 77.9072 129.363 77.9437 129.408 77.9896C129.454 78.0355 129.489 78.0899 129.513 78.1497C129.537 78.2094 129.549 78.2734 129.548 78.3377V81.2525H128.228V78.3377ZM124.86 78.3377C124.86 78.2069 124.913 78.0815 125.005 77.9891C125.098 77.8966 125.224 77.8447 125.355 77.8447H125.694C125.759 77.8435 125.824 77.8555 125.884 77.8798C125.945 77.9042 126 77.9404 126.046 77.9865C126.092 78.0325 126.129 78.0873 126.153 78.1477C126.178 78.208 126.19 78.2726 126.188 78.3377V81.2525H124.86V78.3377ZM121.597 78.3377C121.595 78.2734 121.607 78.2094 121.631 78.1497C121.655 78.0899 121.691 78.0355 121.736 77.9896C121.781 77.9437 121.835 77.9072 121.895 77.8824C121.954 77.8575 122.018 77.8447 122.083 77.8447H122.421C122.552 77.8447 122.678 77.8966 122.771 77.9891C122.864 78.0815 122.916 78.2069 122.916 78.3377V81.2525H121.597V78.3377ZM112.769 87.3069H111.033V82.8006H112.769V87.3069ZM112.769 80.6557H111.033V78.2079C111.033 77.9785 111.124 77.7586 111.287 77.5964C111.45 77.4342 111.671 77.343 111.901 77.343C112.131 77.343 112.352 77.4342 112.515 77.5964C112.677 77.7586 112.769 77.9785 112.769 78.2079V80.6557ZM115.737 87.3069H114.001V82.8006H115.737V87.3069ZM115.737 80.6557H114.001V78.2079C114.001 77.9785 114.093 77.7586 114.256 77.5964C114.418 77.4342 114.639 77.343 114.869 77.343C115.1 77.343 115.32 77.4342 115.483 77.5964C115.646 77.7586 115.737 77.9785 115.737 78.2079V80.6557ZM118.498 78.3377C118.497 78.2734 118.508 78.2094 118.532 78.1497C118.556 78.0899 118.592 78.0355 118.637 77.9896C118.682 77.9437 118.736 77.9072 118.796 77.8824C118.855 77.8575 118.919 77.8447 118.984 77.8447H119.331C119.396 77.8447 119.46 77.8575 119.519 77.8824C119.579 77.9072 119.633 77.9437 119.678 77.9896C119.723 78.0355 119.759 78.0899 119.783 78.1497C119.807 78.2094 119.818 78.2734 119.817 78.3377V81.2525H118.498V78.3377ZM139.773 98.8968H118.663V93.3008C118.674 90.4965 119.797 87.8104 121.787 85.8275C123.777 83.8446 126.473 82.7256 129.287 82.7142C132.046 82.7256 134.689 83.8227 136.64 85.7667C138.591 87.7107 139.692 90.344 139.704 93.0932L139.773 98.8968ZM139.816 81.2525H138.488V78.3377C138.488 78.2069 138.54 78.0815 138.633 77.9891C138.726 77.8966 138.852 77.8447 138.983 77.8447H139.252C139.318 77.8435 139.382 77.8555 139.443 77.8798C139.503 77.9042 139.559 77.9404 139.605 77.9865C139.651 78.0325 139.687 78.0873 139.712 78.1477C139.736 78.208 139.748 78.2726 139.747 78.3377L139.816 81.2525ZM144.157 87.3069H142.42V82.8006H144.157V87.3069ZM144.157 80.6557H142.42V78.2079C142.42 77.9785 142.512 77.7586 142.675 77.5964C142.838 77.4342 143.058 77.343 143.289 77.343C143.519 77.343 143.74 77.4342 143.902 77.5964C144.065 77.7586 144.157 77.9785 144.157 78.2079V80.6557ZM147.117 87.3069H145.38V82.8006H147.117V87.3069ZM147.117 80.6557H145.38V78.2079C145.38 77.9785 145.472 77.7586 145.635 77.5964C145.797 77.4342 146.018 77.343 146.248 77.343C146.479 77.343 146.699 77.4342 146.862 77.5964C147.025 77.7586 147.117 77.9785 147.117 78.2079V80.6557Z" fill="#CF64F4" fill-opacity="0.8"/>
<path d="M107.656 69.4118L107.048 71.4963V74.0132H151.126V71.4963H151.196L150.588 69.4118V65.0007H151.508V64.2223H151.04C151.023 63.9334 150.915 63.6571 150.731 63.4333C150.547 63.2094 150.296 63.0496 150.015 62.9768V62.8471C150.013 62.8027 149.994 62.7609 149.962 62.7303C149.929 62.6997 149.886 62.6827 149.842 62.6827H149.738V62.1032H149.894V61.9216H149.738V61.247C149.772 61.2324 149.802 61.2085 149.823 61.1779C149.845 61.1473 149.857 61.1113 149.859 61.074C149.849 61.0251 149.823 60.9812 149.784 60.9496C149.745 60.918 149.696 60.9008 149.646 60.9008C149.596 60.9008 149.548 60.918 149.509 60.9496C149.47 60.9812 149.444 61.0251 149.434 61.074C149.436 61.1091 149.447 61.143 149.467 61.172C149.487 61.201 149.514 61.224 149.547 61.2383V61.9216H149.399V62.1032H149.547V62.6827H149.451C149.407 62.6827 149.364 62.6997 149.331 62.7303C149.299 62.7609 149.28 62.8027 149.278 62.8471V62.9941C149.008 63.074 148.77 63.2348 148.596 63.4547C148.422 63.6746 148.321 63.9427 148.305 64.2223H147.785V65.0007H148.609V69.3253L148.219 70.7784C148.109 70.0714 147.782 69.4157 147.283 68.9015C146.784 68.3872 146.138 68.0397 145.432 67.9068V67.5955C145.432 67.5083 145.397 67.4247 145.336 67.3631C145.274 67.3014 145.19 67.2668 145.102 67.2668H144.911V66.1597H145.198V65.8656H144.911V64.6029C144.976 64.5708 145.031 64.5215 145.069 64.4605C145.107 64.3994 145.128 64.3289 145.128 64.2569C145.128 64.1514 145.086 64.0502 145.011 63.9756C144.937 63.9009 144.835 63.859 144.729 63.859C144.676 63.8578 144.624 63.8673 144.575 63.8869C144.526 63.9065 144.481 63.9357 144.444 63.9729C144.407 64.0101 144.377 64.0544 144.358 64.1033C144.338 64.1521 144.329 64.2043 144.33 64.2569C144.331 64.3276 144.351 64.3968 144.388 64.4574C144.424 64.5181 144.476 64.5682 144.538 64.6029V65.8656H144.252V66.2203H144.538V67.3273H144.347C144.26 67.3295 144.178 67.3649 144.116 67.426C144.055 67.4872 144.019 67.5695 144.017 67.656V68.002C143.742 68.0727 143.474 68.1712 143.219 68.2961V60.6761H144.087V59.5431H143.002V51.3869H143.792V50.2971H142.898V45.8428H142.95H143.384V45.1422H142.845L142.247 38.7678V35.8962H142.134V38.4391L141.517 45.1422H140.988V45.8428H141.387H141.431V50.2971H140.328V51.3264H141.318V59.4825H140.033V60.6761H141.109V71.3146C140.563 70.5535 139.944 69.8467 139.261 69.2042V64.058L138.792 62.3281V58.782H139.66V58.0814H139.07C139.051 57.8539 138.964 57.6371 138.82 57.4597C138.676 57.2822 138.482 57.1522 138.262 57.0867V56.9656C138.262 56.9474 138.259 56.9295 138.252 56.9127C138.245 56.8959 138.235 56.8806 138.222 56.8678C138.209 56.8549 138.193 56.8447 138.177 56.8378C138.16 56.8308 138.142 56.8272 138.123 56.8272H138.045V56.3515H138.167V56.1959H138.045V55.6423C138.071 55.6288 138.092 55.6089 138.107 55.5846C138.122 55.5603 138.131 55.5325 138.132 55.5039C138.132 55.458 138.114 55.414 138.081 55.3816C138.049 55.3492 138.005 55.3309 137.958 55.3309C137.912 55.3309 137.868 55.3492 137.836 55.3816C137.803 55.414 137.785 55.458 137.785 55.5039C137.787 55.5334 137.797 55.5618 137.814 55.5862C137.83 55.6105 137.853 55.6299 137.88 55.6423V56.1959H137.759V56.3515H137.88V56.8272H137.794C137.775 56.8272 137.757 56.8308 137.74 56.8378C137.724 56.8447 137.708 56.8549 137.695 56.8678C137.682 56.8806 137.672 56.8959 137.665 56.9127C137.658 56.9295 137.655 56.9474 137.655 56.9656V57.0694C137.421 57.1252 137.212 57.2532 137.056 57.435C136.9 57.6168 136.806 57.843 136.787 58.0814H136.222V58.7647H136.995V61.7832H121.371V58.7647H122.239V58.0814H121.657C121.643 57.8538 121.559 57.6362 121.416 57.4582C121.273 57.2801 121.078 57.1504 120.858 57.0867V56.9656C120.858 56.9474 120.855 56.9295 120.848 56.9127C120.841 56.8959 120.831 56.8806 120.818 56.8678C120.805 56.8549 120.79 56.8447 120.773 56.8378C120.756 56.8308 120.738 56.8272 120.72 56.8272H120.633V56.3515H120.754V56.1959H120.633V55.6423C120.657 55.6272 120.677 55.606 120.691 55.5807C120.705 55.5555 120.712 55.5271 120.711 55.4984C120.71 55.4698 120.702 55.4418 120.687 55.4173C120.672 55.3927 120.651 55.3725 120.626 55.3587C120.6 55.3448 120.572 55.3378 120.543 55.3383C120.514 55.3387 120.486 55.3467 120.461 55.3614C120.437 55.3761 120.416 55.397 120.402 55.422C120.388 55.447 120.381 55.4752 120.381 55.5039C120.381 55.5327 120.389 55.5609 120.405 55.5854C120.42 55.6098 120.442 55.6295 120.468 55.6423V56.1959H120.355V56.3515H120.468V56.8272H120.39C120.371 56.8272 120.353 56.8308 120.337 56.8378C120.32 56.8447 120.304 56.8549 120.291 56.8678C120.279 56.8806 120.268 56.8959 120.261 56.9127C120.254 56.9295 120.251 56.9474 120.251 56.9656V57.0694C120.016 57.1228 119.805 57.25 119.649 57.4323C119.492 57.6145 119.399 57.8422 119.383 58.0814H118.801V58.7647H119.591V62.3541L119.088 64.0839V69.2734C118.351 69.9719 117.691 70.7459 117.117 71.5827V60.6761H118.089V59.5431H116.909V51.3869H117.777V50.2971H116.779V45.8428H116.822H117.239V45.1422H116.727L116.102 38.4391V35.8962H115.989V38.7678L115.39 45.1422H114.86V45.8428H115.286H115.338V50.2971H114.322V51.3264H115.19V59.4825H114.079V60.6761H115.069V68.2961C114.81 68.1712 114.54 68.0727 114.261 68.002V67.5955C114.263 67.5527 114.255 67.5102 114.24 67.4704C114.224 67.4305 114.2 67.3942 114.17 67.3636C114.141 67.3329 114.105 67.3086 114.065 67.292C114.026 67.2753 113.983 67.2668 113.94 67.2668H113.749V66.1597H114.036V65.8656H113.749V64.6029C113.811 64.5692 113.863 64.5197 113.9 64.4595C113.937 64.3993 113.956 64.3304 113.958 64.26C113.959 64.1896 113.941 64.1202 113.907 64.0588C113.872 63.9974 113.822 63.9462 113.761 63.9105C113.7 63.8748 113.631 63.8559 113.56 63.8556C113.489 63.8553 113.42 63.8737 113.359 63.9089C113.297 63.9441 113.247 63.9949 113.212 64.0561C113.177 64.1172 113.158 64.1865 113.159 64.2569C113.16 64.3289 113.18 64.3994 113.218 64.4605C113.257 64.5215 113.311 64.5708 113.376 64.6029V65.8656H113.098V66.2203H113.376V67.3273H113.176C113.09 67.3296 113.009 67.3652 112.949 67.4266C112.889 67.488 112.855 67.5703 112.855 67.656V67.976C112.15 68.1089 111.503 68.4564 111.004 68.9707C110.505 69.4849 110.178 70.1406 110.069 70.8476L109.678 69.3945V65.0699H110.503V64.2915H109.982C109.967 64.0119 109.865 63.7438 109.691 63.5239C109.517 63.304 109.279 63.1432 109.01 63.0633V62.9163C109.008 62.8719 108.988 62.8301 108.956 62.7995C108.924 62.7689 108.881 62.7519 108.836 62.7519H108.741V62.1724H108.871V61.9908H108.723V61.3075C108.755 61.2928 108.781 61.2695 108.799 61.2404C108.818 61.2113 108.828 61.1776 108.828 61.1432C108.828 61.0881 108.806 61.0353 108.767 60.9964C108.728 60.9575 108.675 60.9356 108.619 60.9356C108.564 60.9356 108.511 60.9575 108.472 60.9964C108.433 61.0353 108.411 61.0881 108.411 61.1432C108.413 61.1793 108.424 61.2143 108.444 61.2446C108.464 61.275 108.491 61.2996 108.524 61.3162V61.9908H108.376V62.1724H108.524V62.7519H108.42C108.377 62.754 108.336 62.772 108.305 62.8024C108.275 62.8328 108.257 62.8734 108.255 62.9163V63.046C107.974 63.1188 107.723 63.2786 107.539 63.5025C107.355 63.7263 107.247 64.0026 107.23 64.2915H106.762V65.0699H107.682L107.656 69.4118ZM145.849 72.4996C145.849 72.4009 145.888 72.3063 145.958 72.2366C146.028 72.1668 146.123 72.1276 146.222 72.1276C146.321 72.1276 146.416 72.1668 146.486 72.2366C146.556 72.3063 146.595 72.4009 146.595 72.4996V72.8628C146.595 72.9615 146.556 73.056 146.486 73.1258C146.416 73.1955 146.321 73.2347 146.222 73.2347C146.123 73.2347 146.028 73.1955 145.958 73.1258C145.888 73.056 145.849 72.9615 145.849 72.8628V72.4996ZM144.061 72.4996C144.063 72.4001 144.104 72.3055 144.176 72.236C144.247 72.1665 144.343 72.1276 144.443 72.1276C144.491 72.1276 144.539 72.1373 144.584 72.1561C144.629 72.1749 144.67 72.2024 144.704 72.2371C144.738 72.2717 144.764 72.3128 144.782 72.3579C144.8 72.403 144.808 72.4511 144.807 72.4996V72.8628C144.808 72.9112 144.8 72.9594 144.782 73.0045C144.764 73.0496 144.738 73.0906 144.704 73.1253C144.67 73.1599 144.629 73.1875 144.584 73.2063C144.539 73.2251 144.491 73.2347 144.443 73.2347C144.343 73.2347 144.247 73.1959 144.176 73.1263C144.104 73.0568 144.063 72.9622 144.061 72.8628V72.4996ZM143.028 72.8628C143.028 72.9615 142.988 73.056 142.918 73.1258C142.848 73.1955 142.753 73.2347 142.655 73.2347C142.556 73.2347 142.461 73.1955 142.391 73.1258C142.321 73.056 142.281 72.9615 142.281 72.8628V72.4996C142.281 72.4009 142.321 72.3063 142.391 72.2366C142.461 72.1668 142.556 72.1276 142.655 72.1276C142.753 72.1276 142.848 72.1668 142.918 72.2366C142.988 72.3063 143.028 72.4009 143.028 72.4996V72.8628ZM140.493 72.4996C140.507 72.4096 140.552 72.3275 140.622 72.2681C140.691 72.2088 140.779 72.1762 140.871 72.1762C140.962 72.1762 141.05 72.2088 141.12 72.2681C141.189 72.3275 141.235 72.4096 141.248 72.4996V72.8628C141.235 72.9528 141.189 73.0349 141.12 73.0942C141.05 73.1535 140.962 73.1862 140.871 73.1862C140.779 73.1862 140.691 73.1535 140.622 73.0942C140.552 73.0349 140.507 72.9528 140.493 72.8628V72.4996ZM123.402 72.8628C123.402 72.9615 123.362 73.056 123.292 73.1258C123.222 73.1955 123.127 73.2347 123.028 73.2347C122.929 73.2347 122.835 73.1955 122.765 73.1258C122.695 73.056 122.655 72.9615 122.655 72.8628V72.4996C122.655 72.4009 122.695 72.3063 122.765 72.2366C122.835 72.1668 122.929 72.1276 123.028 72.1276C123.127 72.1276 123.222 72.1668 123.292 72.2366C123.362 72.3063 123.402 72.4009 123.402 72.4996V72.8628ZM125.19 72.8628C125.19 72.9615 125.151 73.056 125.081 73.1258C125.011 73.1955 124.916 73.2347 124.817 73.2347C124.718 73.2347 124.623 73.1955 124.553 73.1258C124.483 73.056 124.443 72.9615 124.443 72.8628V72.4996C124.443 72.4009 124.483 72.3063 124.553 72.2366C124.623 72.1668 124.718 72.1276 124.817 72.1276C124.916 72.1276 125.011 72.1668 125.081 72.2366C125.151 72.3063 125.19 72.4009 125.19 72.4996V72.8628ZM126.969 72.8628C126.969 72.9615 126.93 73.056 126.86 73.1258C126.79 73.1955 126.695 73.2347 126.596 73.2347C126.497 73.2347 126.402 73.1955 126.332 73.1258C126.262 73.056 126.223 72.9615 126.223 72.8628V72.4996C126.223 72.4009 126.262 72.3063 126.332 72.2366C126.402 72.1668 126.497 72.1276 126.596 72.1276C126.695 72.1276 126.79 72.1668 126.86 72.2366C126.93 72.3063 126.969 72.4009 126.969 72.4996V72.8628ZM128.757 72.8628C128.757 72.9615 128.718 73.056 128.648 73.1258C128.578 73.1955 128.483 73.2347 128.384 73.2347C128.285 73.2347 128.19 73.1955 128.12 73.1258C128.05 73.056 128.011 72.9615 128.011 72.8628V72.4996C128.011 72.4009 128.05 72.3063 128.12 72.2366C128.19 72.1668 128.285 72.1276 128.384 72.1276C128.483 72.1276 128.578 72.1668 128.648 72.2366C128.718 72.3063 128.757 72.4009 128.757 72.4996V72.8628ZM130.537 72.8628C130.537 72.9615 130.498 73.056 130.428 73.1258C130.358 73.1955 130.263 73.2347 130.164 73.2347C130.065 73.2347 129.97 73.1955 129.9 73.1258C129.83 73.056 129.79 72.9615 129.79 72.8628V72.4996C129.79 72.4009 129.83 72.3063 129.9 72.2366C129.97 72.1668 130.065 72.1276 130.164 72.1276C130.263 72.1276 130.358 72.1668 130.428 72.2366C130.498 72.3063 130.537 72.4009 130.537 72.4996V72.8628ZM132.325 72.8628C132.325 72.9615 132.286 73.056 132.216 73.1258C132.146 73.1955 132.051 73.2347 131.952 73.2347C131.853 73.2347 131.758 73.1955 131.688 73.1258C131.618 73.056 131.579 72.9615 131.579 72.8628V72.4996C131.579 72.4009 131.618 72.3063 131.688 72.2366C131.758 72.1668 131.853 72.1276 131.952 72.1276C132.051 72.1276 132.146 72.1668 132.216 72.2366C132.286 72.3063 132.325 72.4009 132.325 72.4996V72.8628ZM134.104 72.8628C134.104 72.9615 134.065 73.056 133.995 73.1258C133.925 73.1955 133.83 73.2347 133.731 73.2347C133.632 73.2347 133.537 73.1955 133.467 73.1258C133.397 73.056 133.358 72.9615 133.358 72.8628V72.4996C133.358 72.4009 133.397 72.3063 133.467 72.2366C133.537 72.1668 133.632 72.1276 133.731 72.1276C133.83 72.1276 133.925 72.1668 133.995 72.2366C134.065 72.3063 134.104 72.4009 134.104 72.4996V72.8628ZM135.893 72.8628C135.893 72.9615 135.853 73.056 135.783 73.1258C135.713 73.1955 135.618 73.2347 135.519 73.2347C135.42 73.2347 135.325 73.1955 135.255 73.1258C135.185 73.056 135.146 72.9615 135.146 72.8628V72.4996C135.146 72.4009 135.185 72.3063 135.255 72.2366C135.325 72.1668 135.42 72.1276 135.519 72.1276C135.618 72.1276 135.713 72.1668 135.783 72.2366C135.853 72.3063 135.893 72.4009 135.893 72.4996V72.8628ZM139.087 72.1276C139.136 72.1276 139.184 72.1373 139.23 72.156C139.275 72.1746 139.316 72.202 139.351 72.2366C139.385 72.2711 139.413 72.3121 139.432 72.3572C139.451 72.4023 139.46 72.4507 139.46 72.4996V72.8628C139.46 72.9615 139.421 73.056 139.351 73.1258C139.281 73.1955 139.186 73.2347 139.087 73.2347C138.988 73.2347 138.893 73.1955 138.823 73.1258C138.753 73.056 138.714 72.9615 138.714 72.8628V72.4996C138.713 72.4477 138.724 72.3963 138.745 72.3488C138.766 72.3012 138.797 72.2586 138.835 72.2235C138.873 72.1885 138.919 72.1619 138.968 72.1454C139.017 72.1288 139.07 72.1228 139.122 72.1276H139.087ZM136.926 72.4996C136.926 72.4009 136.965 72.3063 137.035 72.2366C137.105 72.1668 137.2 72.1276 137.299 72.1276C137.398 72.1276 137.493 72.1668 137.563 72.2366C137.633 72.3063 137.672 72.4009 137.672 72.4996V72.8628C137.672 72.9615 137.633 73.056 137.563 73.1258C137.493 73.1955 137.398 73.2347 137.299 73.2347C137.2 73.2347 137.105 73.1955 137.035 73.1258C136.965 73.056 136.926 72.9615 136.926 72.8628V72.4996ZM135.146 62.8817C135.146 62.783 135.185 62.6884 135.255 62.6187C135.325 62.5489 135.42 62.5097 135.519 62.5097C135.618 62.5119 135.711 62.5518 135.781 62.6211C135.85 62.6904 135.89 62.7837 135.893 62.8817V63.2709C135.893 63.3703 135.854 63.4658 135.784 63.537C135.714 63.6081 135.619 63.6492 135.519 63.6514C135.42 63.6492 135.325 63.6081 135.255 63.537C135.185 63.4658 135.146 63.3703 135.146 63.2709V62.8817ZM133.358 62.8817C133.36 62.7837 133.4 62.6904 133.47 62.6211C133.539 62.5518 133.633 62.5119 133.731 62.5097C133.83 62.5097 133.925 62.5489 133.995 62.6187C134.065 62.6884 134.104 62.783 134.104 62.8817V63.2709C134.104 63.3703 134.065 63.4658 133.996 63.537C133.926 63.6081 133.831 63.6492 133.731 63.6514C133.631 63.6492 133.537 63.6081 133.467 63.537C133.397 63.4658 133.358 63.3703 133.358 63.2709V62.8817ZM131.579 62.8817C131.579 62.783 131.618 62.6884 131.688 62.6187C131.758 62.5489 131.853 62.5097 131.952 62.5097C132.05 62.5119 132.144 62.5518 132.213 62.6211C132.283 62.6904 132.323 62.7837 132.325 62.8817V63.2709C132.325 63.3703 132.286 63.4658 132.216 63.537C132.146 63.6081 132.052 63.6492 131.952 63.6514C131.852 63.6492 131.757 63.6081 131.687 63.537C131.618 63.4658 131.578 63.3703 131.579 63.2709V62.8817ZM129.79 62.8817C129.793 62.7837 129.833 62.6904 129.902 62.6211C129.972 62.5518 130.065 62.5119 130.164 62.5097C130.263 62.5097 130.358 62.5489 130.428 62.6187C130.498 62.6884 130.537 62.783 130.537 62.8817V63.2709C130.537 63.3703 130.498 63.4658 130.428 63.537C130.358 63.6081 130.263 63.6492 130.164 63.6514C130.064 63.6492 129.969 63.6081 129.899 63.537C129.829 63.4658 129.79 63.3703 129.79 63.2709V62.8817ZM128.011 62.8817C128.011 62.783 128.05 62.6884 128.12 62.6187C128.19 62.5489 128.285 62.5097 128.384 62.5097C128.482 62.5119 128.576 62.5518 128.646 62.6211C128.715 62.6904 128.755 62.7837 128.757 62.8817V63.2709C128.757 63.3703 128.718 63.4658 128.649 63.537C128.579 63.6081 128.484 63.6492 128.384 63.6514C128.284 63.6492 128.189 63.6081 128.12 63.537C128.05 63.4658 128.011 63.3703 128.011 63.2709V62.8817ZM126.223 62.8817C126.223 62.783 126.262 62.6884 126.332 62.6187C126.402 62.5489 126.497 62.5097 126.596 62.5097C126.695 62.5097 126.79 62.5489 126.86 62.6187C126.93 62.6884 126.969 62.783 126.969 62.8817V63.2709C126.969 63.3695 126.93 63.4641 126.86 63.5339C126.79 63.6036 126.695 63.6428 126.596 63.6428C126.497 63.6428 126.402 63.6036 126.332 63.5339C126.262 63.4641 126.223 63.3695 126.223 63.2709V62.8817ZM124.487 62.8817C124.487 62.783 124.526 62.6884 124.596 62.6187C124.666 62.5489 124.761 62.5097 124.86 62.5097C124.958 62.5119 125.052 62.5518 125.122 62.6211C125.191 62.6904 125.231 62.7837 125.233 62.8817V63.2709C125.233 63.3703 125.194 63.4658 125.124 63.537C125.055 63.6081 124.96 63.6492 124.86 63.6514C124.762 63.647 124.669 63.6049 124.601 63.534C124.533 63.4631 124.495 63.3689 124.495 63.2709L124.487 62.8817ZM122.699 62.8817C122.699 62.783 122.738 62.6884 122.808 62.6187C122.878 62.5489 122.973 62.5097 123.072 62.5097C123.171 62.5097 123.266 62.5489 123.336 62.6187C123.406 62.6884 123.445 62.783 123.445 62.8817V63.2709C123.445 63.3695 123.406 63.4641 123.336 63.5339C123.266 63.6036 123.171 63.6428 123.072 63.6428C122.973 63.6428 122.878 63.6036 122.808 63.5339C122.738 63.4641 122.699 63.3695 122.699 63.2709V62.8817ZM121.831 64.5164H136.518V67.0592C134.304 65.7208 131.764 65.0131 129.174 65.0131C126.585 65.0131 124.045 65.7208 121.831 67.0592V64.5164ZM121.648 72.4996V72.8628C121.635 72.9528 121.589 73.0349 121.52 73.0942C121.45 73.1535 121.362 73.1862 121.271 73.1862C121.179 73.1862 121.091 73.1535 121.022 73.0942C120.953 73.0349 120.907 72.9528 120.893 72.8628V72.4996C120.907 72.4096 120.953 72.3275 121.022 72.2681C121.091 72.2088 121.179 72.1762 121.271 72.1762C121.362 72.1762 121.45 72.2088 121.52 72.2681C121.589 72.3275 121.635 72.4096 121.648 72.4996ZM119.114 72.4996C119.114 72.4009 119.153 72.3063 119.223 72.2366C119.293 72.1668 119.388 72.1276 119.487 72.1276C119.586 72.1276 119.681 72.1668 119.751 72.2366C119.821 72.3063 119.86 72.4009 119.86 72.4996V72.8628C119.86 72.9615 119.821 73.056 119.751 73.1258C119.681 73.1955 119.586 73.2347 119.487 73.2347C119.388 73.2347 119.293 73.1955 119.223 73.1258C119.153 73.056 119.114 72.9615 119.114 72.8628V72.4996ZM117.334 72.4996C117.333 72.4511 117.342 72.403 117.359 72.3579C117.377 72.3128 117.404 72.2717 117.438 72.2371C117.472 72.2024 117.512 72.1749 117.557 72.1561C117.602 72.1373 117.65 72.1276 117.699 72.1276C117.799 72.1276 117.894 72.1665 117.966 72.236C118.037 72.3055 118.078 72.4001 118.081 72.4996V72.8628C118.078 72.9622 118.037 73.0568 117.966 73.1263C117.894 73.1959 117.799 73.2347 117.699 73.2347C117.65 73.2347 117.602 73.2251 117.557 73.2063C117.512 73.1875 117.472 73.1599 117.438 73.1253C117.404 73.0906 117.377 73.0496 117.359 73.0045C117.342 72.9594 117.333 72.9112 117.334 72.8628V72.4996ZM116.293 72.8628C116.293 72.9615 116.253 73.056 116.183 73.1258C116.113 73.1955 116.018 73.2347 115.919 73.2347C115.82 73.2347 115.725 73.1955 115.655 73.1258C115.585 73.056 115.546 72.9615 115.546 72.8628V72.4996C115.546 72.4009 115.585 72.3063 115.655 72.2366C115.725 72.1668 115.82 72.1276 115.919 72.1276C116.018 72.1276 116.113 72.1668 116.183 72.2366C116.253 72.3063 116.293 72.4009 116.293 72.4996V72.8628ZM113.758 72.4996C113.76 72.4001 113.801 72.3055 113.873 72.236C113.944 72.1665 114.04 72.1276 114.14 72.1276C114.189 72.1276 114.237 72.1373 114.281 72.1561C114.326 72.1749 114.367 72.2024 114.401 72.2371C114.435 72.2717 114.461 72.3128 114.479 72.3579C114.497 72.403 114.506 72.4511 114.504 72.4996V72.8628C114.506 72.9112 114.497 72.9594 114.479 73.0045C114.461 73.0496 114.435 73.0906 114.401 73.1253C114.367 73.1599 114.326 73.1875 114.281 73.2063C114.237 73.2251 114.189 73.2347 114.14 73.2347C114.04 73.2347 113.944 73.1959 113.873 73.1263C113.801 73.0568 113.76 72.9622 113.758 72.8628V72.4996ZM111.979 72.4996C111.979 72.4009 112.018 72.3063 112.088 72.2366C112.158 72.1668 112.253 72.1276 112.352 72.1276C112.451 72.1276 112.546 72.1668 112.616 72.2366C112.686 72.3063 112.725 72.4009 112.725 72.4996V72.8628C112.725 72.9615 112.686 73.056 112.616 73.1258C112.546 73.1955 112.451 73.2347 112.352 73.2347C112.253 73.2347 112.158 73.1955 112.088 73.1258C112.018 73.056 111.979 72.9615 111.979 72.8628V72.4996Z" fill="#CF64F4" fill-opacity="0.8"/>
<path d="M94.6188 89.05C92.5693 88.3562 90.6862 87.2471 89.088 85.7927H88.9006V81.486H89.1074L90.2575 80.7972H90.7485V80.2758H90.3738C88.3243 79.582 86.4411 78.4729 84.8429 77.0185H84.662V73.156H84.9269L86.1675 72.4093H86.6973V71.8492H85.1337C78.162 69.0425 76.9085 62 76.9085 62H73.7942C73.7942 62 72.5601 69.0425 65.5949 71.8364H64.0507V72.3964H64.5805L65.8211 73.1431H66.086V77.0056C64.4849 78.4594 62.5998 79.5684 60.5487 80.2629H60.1804V80.7844H60.665L61.8151 81.4732H61.9056V85.7798C60.3074 87.2342 58.4242 88.3433 56.3748 89.0371H56V89.5585H56.4846L57.6347 90.2473H61.9314V97.4637H61.0721V98.1074H60.3484V100H90.4771V98.1074H89.7664V97.4637H88.9006V90.2602H93.3588L94.5025 89.5714H95V89.05H94.6188ZM69.2455 97.4765H64.7227V92.3266H69.2455V97.4765ZM78.8663 97.4765H72.0756V92.3266H78.8469L78.8663 97.4765ZM86.2386 97.4765H81.7157V92.3266H86.2386V97.4765Z" fill="#E753FF"/>
<path d="M213 83.0574L206.093 76.7486L205.536 73.9487H204.35L213 66.0434L210.966 64L203.04 72.7632C202.688 72.6558 202.312 72.6558 201.96 72.7632L194.034 64L192 66.0434L200.65 73.9487H199.464L198.907 76.7486L192 83.0574L194.034 85.1008L198.184 80.5494L196.405 89.4854H192.403V90.6768H193.725V91.5942H194.063V98.3081H193.411V100H211.589V98.3081H210.913V91.5883H211.257V90.6709H212.561V89.4794H208.601L206.822 80.5434L210.943 85.0948L213 83.0574ZM202.482 73.9487C202.656 73.9487 202.825 74.0004 202.97 74.0973C203.114 74.1942 203.226 74.3319 203.293 74.493C203.359 74.6541 203.377 74.8314 203.343 75.0024C203.309 75.1734 203.225 75.3305 203.103 75.4538C202.98 75.5771 202.824 75.6611 202.653 75.6951C202.483 75.7291 202.307 75.7117 202.146 75.6449C201.986 75.5782 201.849 75.4652 201.753 75.3202C201.656 75.1752 201.605 75.0048 201.605 74.8304C201.605 74.5965 201.697 74.3723 201.862 74.2069C202.026 74.0416 202.249 73.9487 202.482 73.9487ZM201.101 78.4762H203.864L204.018 79.632H200.947L201.101 78.4762ZM200.739 81.1511H204.261L204.421 82.3068H200.615L200.739 81.1511ZM200.372 83.8259H204.587L204.747 84.9757H200.217L200.372 83.8259ZM199.85 87.6505L200.01 86.4948H204.955L205.109 87.6505H199.85Z" fill="#CF64F4" fill-opacity="0.8"/>
</g>
<defs>
<clipPath id="clip0_841_681">
<rect width="208" height="100" rx="3" fill="white"/>
</clipPath>
</defs>
</svg>
