<svg width="46" height="52" viewBox="0 0 46 52" fill="none" xmlns="http://www.w3.org/2000/svg">
<g filter="url(#filter0_d_2032_2269)">
<path d="M34.3139 7.66622C31.2919 4.65716 27.2738 3 23.0001 3C18.7264 3 14.7085 4.65709 11.6863 7.66622C8.66431 10.6752 7 14.6758 7 18.9311C7 23.1865 8.66431 27.1872 11.6863 30.1962C11.6863 30.1962 21.9913 40.4565 22.2096 40.674C22.4279 40.8914 22.7141 41 23.0001 41C23.2863 41 23.5725 40.8913 23.7907 40.674L34.3136 30.1963C37.3357 27.1872 38.9999 23.1865 39 18.9312C38.9999 14.6757 37.3358 10.6751 34.3139 7.66622ZM28.025 23.9342C26.6828 25.2706 24.8984 26.0066 23.0002 26.0066C21.1021 26.0066 19.3176 25.2707 17.9755 23.9343C16.6333 22.5979 15.8942 20.8211 15.8942 18.9311C15.8942 17.0412 16.6333 15.2644 17.9755 13.9279C19.3176 12.5915 21.1021 11.8556 23.0002 11.8556C24.8984 11.8556 26.6828 12.5915 28.025 13.9279C29.3671 15.2643 30.1063 17.0411 30.1063 18.931C30.1063 20.821 29.3671 22.5979 28.025 23.9342Z" fill="#282828"/>
<circle cx="23" cy="19" r="13" fill="#282828"/>
<path d="M23 21.6667C23.7072 21.6667 24.3855 21.3857 24.8856 20.8856C25.3857 20.3855 25.6667 19.7072 25.6667 19C25.6667 18.2928 25.3857 17.6145 24.8856 17.1144C24.3855 16.6143 23.7072 16.3333 23 16.3333C22.2928 16.3333 21.6145 16.6143 21.1144 17.1144C20.6143 17.6145 20.3333 18.2928 20.3333 19C20.3333 19.7072 20.6143 20.3855 21.1144 20.8856C21.6145 21.3857 22.2928 21.6667 23 21.6667ZM22.3333 13.7067V11.6667C22.3333 11.4899 22.4036 11.3203 22.5286 11.1953C22.6536 11.0702 22.8232 11 23 11C23.1768 11 23.3464 11.0702 23.4714 11.1953C23.5964 11.3203 23.6667 11.4899 23.6667 11.6667V13.7067C24.8418 13.8551 25.9341 14.3903 26.7715 15.228C27.609 16.0657 28.1439 17.1582 28.292 18.3333H30.3333C30.5101 18.3333 30.6797 18.4036 30.8047 18.5286C30.9298 18.6536 31 18.8232 31 19C31 19.1768 30.9298 19.3464 30.8047 19.4714C30.6797 19.5964 30.5101 19.6667 30.3333 19.6667H28.292C28.1438 20.842 27.6087 21.9347 26.771 22.7724C25.9333 23.6101 24.8407 24.1452 23.6653 24.2933L23.6667 24.3333V26.3333C23.6667 26.5101 23.5964 26.6797 23.4714 26.8047C23.3464 26.9298 23.1768 27 23 27C22.8232 27 22.6536 26.9298 22.5286 26.8047C22.4036 26.6797 22.3333 26.5101 22.3333 26.3333V24.3333V24.2933C21.158 24.1452 20.0653 23.6101 19.2276 22.7724C18.39 21.9347 17.8548 20.842 17.7067 19.6667C17.6933 19.6671 17.68 19.6671 17.6667 19.6667H15.6667C15.4899 19.6667 15.3203 19.5964 15.1953 19.4714C15.0702 19.3464 15 19.1768 15 19C15 18.8232 15.0702 18.6536 15.1953 18.5286C15.3203 18.4036 15.4899 18.3333 15.6667 18.3333H17.6667C17.68 18.3329 17.6933 18.3329 17.7067 18.3333C17.8554 17.1584 18.3907 16.0664 19.2284 15.2293C20.066 14.3921 21.1584 13.8574 22.3333 13.7093V13.7067ZM19 19C19 20.0609 19.4214 21.0783 20.1716 21.8284C20.9217 22.5786 21.9391 23 23 23C24.0609 23 25.0783 22.5786 25.8284 21.8284C26.5786 21.0783 27 20.0609 27 19C27 17.9391 26.5786 16.9217 25.8284 16.1716C25.0783 15.4214 24.0609 15 23 15C21.9391 15 20.9217 15.4214 20.1716 16.1716C19.4214 16.9217 19 17.9391 19 19Z" fill="white"/>
</g>
<defs>
<filter id="filter0_d_2032_2269" x="0" y="0" width="46" height="52" filterUnits="userSpaceOnUse" color-interpolation-filters="sRGB">
<feFlood flood-opacity="0" result="BackgroundImageFix"/>
<feColorMatrix in="SourceAlpha" type="matrix" values="0 0 0 0 0 0 0 0 0 0 0 0 0 0 0 0 0 0 127 0" result="hardAlpha"/>
<feOffset dy="4"/>
<feGaussianBlur stdDeviation="3.5"/>
<feComposite in2="hardAlpha" operator="out"/>
<feColorMatrix type="matrix" values="0 0 0 0 0 0 0 0 0 0 0 0 0 0 0 0 0 0 0.15 0"/>
<feBlend mode="normal" in2="BackgroundImageFix" result="effect1_dropShadow_2032_2269"/>
<feBlend mode="normal" in="SourceGraphic" in2="effect1_dropShadow_2032_2269" result="shape"/>
</filter>
</defs>
</svg>
