<svg width="24" height="24" viewBox="0 0 24 24" fill="none" xmlns="http://www.w3.org/2000/svg">
<circle cx="12" cy="12" r="12" fill="#F46C64"/>
<path d="M6.46006 6C6.33804 6 6.22102 6.04637 6.13475 6.1289C6.04847 6.21144 6 6.32338 6 6.4401V18.5599C6 18.6766 6.04847 18.7886 6.13475 18.8711C6.22102 18.9536 6.33804 19 6.46006 19C6.58207 19 6.69909 18.9536 6.78537 18.8711C6.87164 18.7886 6.92011 18.6766 6.92011 18.5599V6.4401C6.92011 6.32338 6.87164 6.21144 6.78537 6.1289C6.69909 6.04637 6.58207 6 6.46006 6Z" fill="white"/>
<path d="M17.7711 6.80099C17.7012 6.76236 17.6218 6.74203 17.5411 6.74203C17.4603 6.74203 17.381 6.76236 17.311 6.80099C16.4192 7.15963 15.4581 7.33362 14.4909 7.31151C13.6576 7.25319 12.8461 7.02988 12.1078 6.65576C11.3977 6.28876 10.6163 6.06554 9.81212 6C9.14846 6.00069 8.4916 6.12786 7.87988 6.37409V13.9219C8.47926 13.6081 9.15189 13.4446 9.83512 13.4466C10.5117 13.5108 11.1683 13.7022 11.7674 14.0099C12.6231 14.4374 13.5639 14.6864 14.5277 14.7405C15.6339 14.7625 16.7322 14.5568 17.7481 14.1375C17.824 14.101 17.8878 14.045 17.9324 13.9759C17.9771 13.9067 18.0009 13.8271 18.0011 13.7458V7.17508C17.9998 7.09902 17.978 7.02458 17.9377 6.95902C17.8974 6.89346 17.84 6.83901 17.7711 6.80099Z" fill="white"/>
</svg>
