<svg width="46" height="52" viewBox="0 0 46 52" fill="none" xmlns="http://www.w3.org/2000/svg">
<g filter="url(#filter0_d_1961_2253)">
<path d="M34.3139 7.66622C31.2919 4.65716 27.2738 3 23.0001 3C18.7264 3 14.7085 4.65709 11.6863 7.66622C8.66431 10.6752 7 14.6758 7 18.9311C7 23.1865 8.66431 27.1872 11.6863 30.1962C11.6863 30.1962 21.9913 40.4565 22.2096 40.674C22.4279 40.8914 22.7141 41 23.0001 41C23.2863 41 23.5725 40.8913 23.7907 40.674L34.3136 30.1963C37.3357 27.1872 38.9999 23.1865 39 18.9312C38.9999 14.6757 37.3358 10.6751 34.3139 7.66622ZM28.025 23.9342C26.6828 25.2706 24.8984 26.0066 23.0002 26.0066C21.1021 26.0066 19.3176 25.2707 17.9755 23.9343C16.6333 22.5979 15.8942 20.8211 15.8942 18.9311C15.8942 17.0412 16.6333 15.2644 17.9755 13.9279C19.3176 12.5915 21.1021 11.8556 23.0002 11.8556C24.8984 11.8556 26.6828 12.5915 28.025 13.9279C29.3671 15.2643 30.1063 17.0411 30.1063 18.931C30.1063 20.821 29.3671 22.5979 28.025 23.9342Z" fill="#1CA4F0"/>
<circle cx="23" cy="19" r="13" fill="#1CA4F0"/>
<path d="M17.9217 13.5833C17.8099 13.5833 17.7026 13.6258 17.6235 13.7015C17.5444 13.7771 17.5 13.8798 17.5 13.9868V25.0966C17.5 25.2036 17.5444 25.3062 17.6235 25.3818C17.7026 25.4575 17.8099 25.5 17.9217 25.5C18.0336 25.5 18.1408 25.4575 18.2199 25.3818C18.299 25.3062 18.3434 25.2036 18.3434 25.0966V13.9868C18.3434 13.8798 18.299 13.7771 18.2199 13.7015C18.1408 13.6258 18.0336 13.5833 17.9217 13.5833Z" fill="white"/>
<path d="M28.2896 14.3176C28.2255 14.2822 28.1528 14.2635 28.0787 14.2635C28.0047 14.2635 27.932 14.2822 27.8679 14.3176C27.0503 14.6463 26.1693 14.8058 25.2827 14.7855C24.5189 14.7321 23.775 14.5274 23.0982 14.1844C22.4474 13.848 21.731 13.6434 20.9939 13.5833C20.3855 13.584 19.7834 13.7005 19.2227 13.9262V20.845C19.7721 20.5575 20.3887 20.4076 21.015 20.4093C21.6352 20.4682 22.2371 20.6437 22.7862 20.9257C23.5706 21.3176 24.433 21.5458 25.3165 21.5954C26.3305 21.6156 27.3372 21.4271 28.2685 21.0427C28.3381 21.0092 28.3965 20.9579 28.4375 20.8945C28.4784 20.8312 28.5002 20.7582 28.5005 20.6837V14.6605C28.4993 14.5908 28.4792 14.5225 28.4423 14.4624C28.4053 14.4023 28.3527 14.3524 28.2896 14.3176Z" fill="white"/>
</g>
<defs>
<filter id="filter0_d_1961_2253" x="0" y="0" width="46" height="52" filterUnits="userSpaceOnUse" color-interpolation-filters="sRGB">
<feFlood flood-opacity="0" result="BackgroundImageFix"/>
<feColorMatrix in="SourceAlpha" type="matrix" values="0 0 0 0 0 0 0 0 0 0 0 0 0 0 0 0 0 0 127 0" result="hardAlpha"/>
<feOffset dy="4"/>
<feGaussianBlur stdDeviation="3.5"/>
<feComposite in2="hardAlpha" operator="out"/>
<feColorMatrix type="matrix" values="0 0 0 0 0 0 0 0 0 0 0 0 0 0 0 0 0 0 0.15 0"/>
<feBlend mode="normal" in2="BackgroundImageFix" result="effect1_dropShadow_1961_2253"/>
<feBlend mode="normal" in="SourceGraphic" in2="effect1_dropShadow_1961_2253" result="shape"/>
</filter>
</defs>
</svg>
