<svg width="18" height="18" viewBox="0 0 18 18" fill="none" xmlns="http://www.w3.org/2000/svg">
<path d="M7.18425 4.73152e-07C6.05982 0.000601345 4.95122 0.264928 3.94754 0.771736C2.94386 1.27854 2.0731 2.0137 1.40525 2.91811C0.7374 3.82252 0.291083 4.87096 0.102172 5.97917C-0.086738 7.08738 -0.0129727 8.22444 0.31754 9.29896C0.648052 10.3735 1.22609 11.3555 2.0052 12.1661C2.78431 12.9767 3.74276 13.5932 4.80351 13.9661C5.86426 14.3391 6.99773 14.458 8.11281 14.3134C9.22789 14.1688 10.2935 13.7646 11.224 13.1334L15.6662 17.5711C15.7896 17.7035 15.9384 17.8097 16.1037 17.8833C16.269 17.957 16.4475 17.9966 16.6285 17.9998C16.8094 18.003 16.9892 17.9697 17.157 17.9019C17.3248 17.8342 17.4773 17.7333 17.6052 17.6053C17.7332 17.4774 17.8341 17.325 17.9019 17.1572C17.9697 16.9894 18.003 16.8097 17.9998 16.6287C17.9966 16.4478 17.957 16.2694 17.8833 16.1041C17.8097 15.9388 17.7035 15.7901 17.571 15.6667L13.1324 11.2254C13.8667 10.1449 14.2926 8.88465 14.3641 7.58026C14.4357 6.27587 14.1503 4.97665 13.5387 3.82228C12.927 2.66791 12.0122 1.70207 10.8925 1.02861C9.77292 0.35514 8.49088 -0.000473488 7.18425 4.73152e-07V4.73152e-07ZM2.69169 7.18656C2.69169 5.99531 3.16501 4.85285 4.00753 4.01052C4.85005 3.16818 5.99275 2.69496 7.18425 2.69496C8.37575 2.69496 9.51845 3.16818 10.361 4.01052C11.2035 4.85285 11.6768 5.99531 11.6768 7.18656C11.6768 8.3778 11.2035 9.52026 10.361 10.3626C9.51845 11.2049 8.37575 11.6782 7.18425 11.6782C5.99275 11.6782 4.85005 11.2049 4.00753 10.3626C3.16501 9.52026 2.69169 8.3778 2.69169 7.18656Z" fill="#D3D5DA"/>
</svg>
