<svg width="48" height="54" viewBox="0 0 48 54" fill="none" xmlns="http://www.w3.org/2000/svg">
<g filter="url(#filter0_d_2164_2204)">
<path d="M35.3139 8.66622C32.2919 5.65716 28.2738 4 24.0001 4C19.7264 4 15.7085 5.65709 12.6863 8.66622C9.66431 11.6752 8 15.6758 8 19.9311C8 24.1865 9.66431 28.1872 12.6863 31.1962C12.6863 31.1962 22.9913 41.4565 23.2096 41.674C23.4279 41.8914 23.7141 42 24.0001 42C24.2863 42 24.5725 41.8913 24.7907 41.674L35.3136 31.1963C38.3357 28.1872 39.9999 24.1865 40 19.9312C39.9999 15.6757 38.3358 11.6751 35.3139 8.66622ZM29.025 24.9342C27.6828 26.2706 25.8984 27.0066 24.0002 27.0066C22.1021 27.0066 20.3176 26.2707 18.9755 24.9343C17.6333 23.5979 16.8942 21.8211 16.8942 19.9311C16.8942 18.0412 17.6333 16.2644 18.9755 14.9279C20.3176 13.5915 22.1021 12.8556 24.0002 12.8556C25.8984 12.8556 27.6828 13.5915 29.025 14.9279C30.3671 16.2643 31.1063 18.0411 31.1063 19.931C31.1063 21.821 30.3671 23.5979 29.025 24.9342Z" fill="white"/>
<circle cx="24" cy="20" r="12" fill="#7F7F84"/>
<path d="M29.4545 16.2861H27.8182V13.5358C27.8182 13.2399 27.574 13 27.2727 13C26.9715 13 26.7273 13.2399 26.7273 13.5358V16.2861H21.2727V13.5358C21.2727 13.2399 21.0285 13 20.7273 13C20.426 13 20.1818 13.2399 20.1818 13.5358V16.2861H18.5455C18.2444 16.2861 18 16.5262 18 16.8219V18.9651C18 19.2609 18.2444 19.5009 18.5455 19.5009H19.0909V22.1798C19.0909 24.667 20.9548 26.69 23.5076 26.9656C23.9281 27.011 24.1704 27.0119 24.5908 26.9656C27.1174 26.6873 28.9091 24.6459 28.9091 22.1798V19.5009H29.4545C29.7556 19.5009 30 19.2609 30 18.9651V16.8219C30 16.5262 29.7556 16.2861 29.4545 16.2861ZM25.4767 22.5588L23.3645 24.6304C22.8587 25.1273 22.082 24.3747 22.5929 23.8724L24.1702 22.3266L22.6651 21.5876C22.3327 21.424 22.2604 20.9879 22.5233 20.7293L24.6355 18.6577C25.1453 18.1569 25.9176 18.9138 25.4071 19.4157L23.8298 20.9615L25.3349 21.7005C25.6673 21.8641 25.7396 22.3002 25.4767 22.5588Z" fill="white"/>
</g>
<defs>
<filter id="filter0_d_2164_2204" x="0" y="0" width="48" height="54" filterUnits="userSpaceOnUse" color-interpolation-filters="sRGB">
<feFlood flood-opacity="0" result="BackgroundImageFix"/>
<feColorMatrix in="SourceAlpha" type="matrix" values="0 0 0 0 0 0 0 0 0 0 0 0 0 0 0 0 0 0 127 0" result="hardAlpha"/>
<feOffset dy="4"/>
<feGaussianBlur stdDeviation="4"/>
<feComposite in2="hardAlpha" operator="out"/>
<feColorMatrix type="matrix" values="0 0 0 0 0 0 0 0 0 0 0 0 0 0 0 0 0 0 0.15 0"/>
<feBlend mode="normal" in2="BackgroundImageFix" result="effect1_dropShadow_2164_2204"/>
<feBlend mode="normal" in="SourceGraphic" in2="effect1_dropShadow_2164_2204" result="shape"/>
</filter>
</defs>
</svg>
