<svg width="87" height="16" viewBox="0 0 87 16" fill="none" xmlns="http://www.w3.org/2000/svg">
<path d="M85.1892 5.51702L81.222 4.94046L79.4486 1.34515C79.4002 1.24671 79.3205 1.16702 79.222 1.11858C78.9752 0.99671 78.6752 1.09827 78.5517 1.34515L76.7783 4.94046L72.8111 5.51702C72.7017 5.53265 72.6017 5.58421 72.5252 5.66233C72.4326 5.75747 72.3816 5.88546 72.3833 6.01818C72.3851 6.1509 72.4395 6.2775 72.5345 6.37015L75.4048 9.16858L74.7267 13.1201C74.7108 13.2121 74.721 13.3066 74.7561 13.393C74.7912 13.4795 74.8498 13.5544 74.9253 13.6092C75.0007 13.664 75.0901 13.6966 75.1831 13.7032C75.2762 13.7098 75.3692 13.6903 75.4517 13.6467L79.0002 11.7811L82.5486 13.6467C82.6455 13.6983 82.758 13.7155 82.8658 13.6967C83.1377 13.6498 83.3205 13.392 83.2736 13.1201L82.5955 9.16858L85.4658 6.37015C85.5439 6.29359 85.5955 6.19358 85.6111 6.08421C85.6533 5.81077 85.4627 5.55765 85.1892 5.51702ZM81.3877 8.77483L81.9517 12.0608L79.0002 10.5108L76.0486 12.0623L76.6127 8.7764L74.2252 6.44827L77.5252 5.96859L79.0002 2.97952L80.4752 5.96859L83.7752 6.44827L81.3877 8.77483Z" fill="#FFA235"/>
<path d="M67.1892 5.51702L63.222 4.94046L61.4486 1.34515C61.4002 1.24671 61.3205 1.16702 61.222 1.11858C60.9752 0.99671 60.6752 1.09827 60.5517 1.34515L58.7783 4.94046L54.8111 5.51702C54.7017 5.53265 54.6017 5.58421 54.5252 5.66233C54.4326 5.75747 54.3816 5.88546 54.3833 6.01818C54.3851 6.1509 54.4395 6.2775 54.5345 6.37015L57.4048 9.16858L56.7267 13.1201C56.7108 13.2121 56.721 13.3066 56.7561 13.393C56.7912 13.4795 56.8498 13.5544 56.9253 13.6092C57.0007 13.664 57.0901 13.6966 57.1831 13.7032C57.2762 13.7098 57.3692 13.6903 57.4517 13.6467L61.0002 11.7811L64.5486 13.6467C64.6455 13.6983 64.758 13.7155 64.8658 13.6967C65.1377 13.6498 65.3205 13.392 65.2736 13.1201L64.5955 9.16858L67.4658 6.37015C67.5439 6.29359 67.5955 6.19358 67.6111 6.08421C67.6533 5.81077 67.4627 5.55765 67.1892 5.51702ZM63.3877 8.77483L63.9517 12.0608L61.0002 10.5108L58.0486 12.0623L58.6127 8.7764L56.2252 6.44827L59.5252 5.96859L61.0002 2.97952L62.4752 5.96859L65.7752 6.44827L63.3877 8.77483Z" fill="#FFA235"/>
<path d="M49.1892 5.51702L45.222 4.94046L43.4486 1.34515C43.4002 1.24671 43.3205 1.16702 43.222 1.11858C42.9752 0.99671 42.6752 1.09827 42.5517 1.34515L40.7783 4.94046L36.8111 5.51702C36.7017 5.53265 36.6017 5.58421 36.5252 5.66233C36.4326 5.75747 36.3816 5.88546 36.3833 6.01818C36.3851 6.1509 36.4395 6.2775 36.5345 6.37015L39.4048 9.16858L38.7267 13.1201C38.7108 13.2121 38.721 13.3066 38.7561 13.393C38.7912 13.4795 38.8498 13.5544 38.9253 13.6092C39.0007 13.664 39.0901 13.6966 39.1831 13.7032C39.2762 13.7098 39.3692 13.6903 39.4517 13.6467L43.0002 11.7811L46.5486 13.6467C46.6455 13.6983 46.758 13.7155 46.8658 13.6967C47.1377 13.6498 47.3205 13.392 47.2736 13.1201L46.5955 9.16858L49.4658 6.37015C49.5439 6.29359 49.5955 6.19358 49.6111 6.08421C49.6533 5.81077 49.4627 5.55765 49.1892 5.51702ZM45.3877 8.77483L45.9517 12.0608L43.0002 10.5108L40.0486 12.0623L40.6127 8.7764L38.2252 6.44827L41.5252 5.96859L43.0002 2.97952L44.4752 5.96859L47.7752 6.44827L45.3877 8.77483Z" fill="#FFA235"/>
<path d="M31.1892 5.51702L27.222 4.94046L25.4486 1.34515C25.4002 1.24671 25.3205 1.16702 25.222 1.11858C24.9752 0.99671 24.6752 1.09827 24.5517 1.34515L22.7783 4.94046L18.8111 5.51702C18.7017 5.53265 18.6017 5.58421 18.5252 5.66233C18.4326 5.75747 18.3816 5.88546 18.3833 6.01818C18.3851 6.1509 18.4395 6.2775 18.5345 6.37015L21.4048 9.16858L20.7267 13.1201C20.7108 13.2121 20.721 13.3066 20.7561 13.393C20.7912 13.4795 20.8498 13.5544 20.9253 13.6092C21.0007 13.664 21.0901 13.6966 21.1831 13.7032C21.2762 13.7098 21.3692 13.6903 21.4517 13.6467L25.0002 11.7811L28.5486 13.6467C28.6455 13.6983 28.758 13.7155 28.8658 13.6967C29.1377 13.6498 29.3205 13.392 29.2736 13.1201L28.5955 9.16858L31.4658 6.37015C31.5439 6.29359 31.5955 6.19358 31.6111 6.08421C31.6533 5.81077 31.4627 5.55765 31.1892 5.51702ZM27.3877 8.77483L27.9517 12.0608L25.0002 10.5108L22.0486 12.0623L22.6127 8.7764L20.2252 6.44827L23.5252 5.96859L25.0002 2.97952L26.4752 5.96859L29.7752 6.44827L27.3877 8.77483Z" fill="#FFA235"/>
<path d="M14.1892 5.51702L10.222 4.94046L8.44859 1.34515C8.40015 1.24671 8.32046 1.16702 8.22203 1.11858C7.97515 0.99671 7.67515 1.09827 7.55171 1.34515L5.77828 4.94046L1.81109 5.51702C1.70171 5.53265 1.60171 5.58421 1.52515 5.66233C1.43259 5.75747 1.38159 5.88546 1.38334 6.01818C1.3851 6.1509 1.43948 6.2775 1.53453 6.37015L4.40484 9.16858L3.72671 13.1201C3.71081 13.2121 3.72098 13.3066 3.75608 13.393C3.79117 13.4795 3.84978 13.5544 3.92526 13.6092C4.00074 13.664 4.09007 13.6966 4.18312 13.7032C4.27617 13.7098 4.36922 13.6903 4.45171 13.6467L8.00015 11.7811L11.5486 13.6467C11.6455 13.6983 11.758 13.7155 11.8658 13.6967C12.1377 13.6498 12.3205 13.392 12.2736 13.1201L11.5955 9.16858L14.4658 6.37015C14.5439 6.29359 14.5955 6.19358 14.6111 6.08421C14.6533 5.81077 14.4627 5.55765 14.1892 5.51702ZM10.3877 8.77483L10.9517 12.0608L8.00015 10.5108L5.04859 12.0623L5.61265 8.7764L3.22515 6.44827L6.52515 5.96859L8.00015 2.97952L9.47515 5.96859L12.7752 6.44827L10.3877 8.77483Z" fill="#FFA235"/>
</svg>
