<svg width="88" height="16" viewBox="0 0 88 16" fill="none" xmlns="http://www.w3.org/2000/svg">
<path d="M86.1892 5.51751L82.222 4.94095L80.4486 1.34564C80.4002 1.2472 80.3205 1.16751 80.222 1.11907C79.9752 0.997198 79.6752 1.09876 79.5517 1.34564L77.7783 4.94095L73.8111 5.51751C73.7017 5.53314 73.6017 5.5847 73.5252 5.66282C73.4326 5.75796 73.3816 5.88595 73.3833 6.01867C73.3851 6.15139 73.4395 6.27799 73.5345 6.37064L76.4048 9.16907L75.7267 13.1206C75.7108 13.2126 75.721 13.3071 75.7561 13.3935C75.7912 13.48 75.8498 13.5548 75.9253 13.6097C76.0007 13.6645 76.0901 13.6971 76.1831 13.7037C76.2762 13.7103 76.3692 13.6908 76.4517 13.6472L80.0002 11.7816L83.5486 13.6472C83.6455 13.6988 83.758 13.7159 83.8658 13.6972C84.1377 13.6503 84.3205 13.3925 84.2736 13.1206L83.5955 9.16907L86.4658 6.37064C86.5439 6.29407 86.5955 6.19407 86.6111 6.0847C86.6533 5.81126 86.4627 5.55814 86.1892 5.51751ZM82.3877 8.77532L82.9517 12.0613L80.0002 10.5113L77.0486 12.0628L77.6127 8.77689L75.2252 6.44876L78.5252 5.96907L80.0002 2.98001L81.4752 5.96907L84.7752 6.44876L82.3877 8.77532Z" fill="#FFA235"/>
<path d="M14.1892 5.51769L10.222 4.94113L8.44859 1.34582C8.40015 1.24738 8.32046 1.16769 8.22203 1.11926C7.97515 0.997381 7.67515 1.09894 7.55171 1.34582L5.77828 4.94113L1.81109 5.51769C1.70171 5.53332 1.60171 5.58488 1.52515 5.66301C1.43259 5.75814 1.38159 5.88613 1.38334 6.01885C1.3851 6.15157 1.43948 6.27817 1.53453 6.37082L4.40484 9.16926L3.72671 13.1208C3.71081 13.2127 3.72098 13.3073 3.75608 13.3937C3.79117 13.4802 3.84978 13.555 3.92526 13.6098C4.00074 13.6647 4.09007 13.6972 4.18312 13.7039C4.27617 13.7105 4.36922 13.6909 4.45171 13.6474L8.00015 11.7818L11.5486 13.6474C11.6455 13.6989 11.758 13.7161 11.8658 13.6974C12.1377 13.6505 12.3205 13.3927 12.2736 13.1208L11.5955 9.16926L14.4658 6.37082C14.5439 6.29426 14.5955 6.19426 14.6111 6.08488C14.6533 5.81144 14.4627 5.55832 14.1892 5.51769Z" fill="#FFA235"/>
<path d="M68.1892 5.51751L64.222 4.94095L62.4486 1.34564C62.4002 1.2472 62.3205 1.16751 62.222 1.11907C61.9752 0.997198 61.6752 1.09876 61.5517 1.34564L59.7783 4.94095L55.8111 5.51751C55.7017 5.53314 55.6017 5.5847 55.5252 5.66282C55.4326 5.75796 55.3816 5.88595 55.3833 6.01867C55.3851 6.15139 55.4395 6.27799 55.5345 6.37064L58.4048 9.16907L57.7267 13.1206C57.7108 13.2126 57.721 13.3071 57.7561 13.3935C57.7912 13.48 57.8498 13.5548 57.9253 13.6097C58.0007 13.6645 58.0901 13.6971 58.1831 13.7037C58.2762 13.7103 58.3692 13.6908 58.4517 13.6472L62.0002 11.7816L65.5486 13.6472C65.6455 13.6988 65.758 13.7159 65.8658 13.6972C66.1377 13.6503 66.3205 13.3925 66.2736 13.1206L65.5955 9.16907L68.4658 6.37064C68.5439 6.29407 68.5955 6.19407 68.6111 6.0847C68.6533 5.81126 68.4627 5.55814 68.1892 5.51751ZM64.3877 8.77532L64.9517 12.0613L62.0002 10.5113L59.0486 12.0628L59.6127 8.77689L57.2252 6.44876L60.5252 5.96907L62.0002 2.98001L63.4752 5.96907L66.7752 6.44876L64.3877 8.77532Z" fill="#FFA235"/>
<path d="M50.1892 5.51751L46.222 4.94095L44.4486 1.34564C44.4002 1.2472 44.3205 1.16751 44.222 1.11907C43.9752 0.997198 43.6752 1.09876 43.5517 1.34564L41.7783 4.94095L37.8111 5.51751C37.7017 5.53314 37.6017 5.5847 37.5252 5.66282C37.4326 5.75796 37.3816 5.88595 37.3833 6.01867C37.3851 6.15139 37.4395 6.27799 37.5345 6.37064L40.4048 9.16907L39.7267 13.1206C39.7108 13.2126 39.721 13.3071 39.7561 13.3935C39.7912 13.48 39.8498 13.5548 39.9253 13.6097C40.0007 13.6645 40.0901 13.6971 40.1831 13.7037C40.2762 13.7103 40.3692 13.6908 40.4517 13.6472L44.0002 11.7816L47.5486 13.6472C47.6455 13.6988 47.758 13.7159 47.8658 13.6972C48.1377 13.6503 48.3205 13.3925 48.2736 13.1206L47.5955 9.16907L50.4658 6.37064C50.5439 6.29407 50.5955 6.19407 50.6111 6.0847C50.6533 5.81126 50.4627 5.55814 50.1892 5.51751ZM46.3877 8.77532L46.9517 12.0613L44.0002 10.5113L41.0486 12.0628L41.6127 8.77689L39.2252 6.44876L42.5252 5.96907L44.0002 2.98001L45.4752 5.96907L48.7752 6.44876L46.3877 8.77532Z" fill="#FFA235"/>
<path d="M32.1892 5.51751L28.222 4.94095L26.4486 1.34564C26.4002 1.2472 26.3205 1.16751 26.222 1.11907C25.9752 0.997198 25.6752 1.09876 25.5517 1.34564L23.7783 4.94095L19.8111 5.51751C19.7017 5.53314 19.6017 5.5847 19.5252 5.66282C19.4326 5.75796 19.3816 5.88595 19.3833 6.01867C19.3851 6.15139 19.4395 6.27799 19.5345 6.37064L22.4048 9.16907L21.7267 13.1206C21.7108 13.2126 21.721 13.3071 21.7561 13.3935C21.7912 13.48 21.8498 13.5548 21.9253 13.6097C22.0007 13.6645 22.0901 13.6971 22.1831 13.7037C22.2762 13.7103 22.3692 13.6908 22.4517 13.6472L26.0002 11.7816L29.5486 13.6472C29.6455 13.6988 29.758 13.7159 29.8658 13.6972C30.1377 13.6503 30.3205 13.3925 30.2736 13.1206L29.5955 9.16907L32.4658 6.37064C32.5439 6.29407 32.5955 6.19407 32.6111 6.0847C32.6533 5.81126 32.4627 5.55814 32.1892 5.51751ZM28.3877 8.77532L28.9517 12.0613L26.0002 10.5113L23.0486 12.0628L23.6127 8.77689L21.2252 6.44876L24.5252 5.96907L26.0002 2.98001L27.4752 5.96907L30.7752 6.44876L28.3877 8.77532Z" fill="#FFA235"/>
</svg>
