<svg width="24" height="25" viewBox="0 0 24 25" fill="none" xmlns="http://www.w3.org/2000/svg">
<path d="M22.8968 19.1172L17.8004 4.11722C17.6192 3.58378 17.2243 3.24207 16.7897 3.24207H13.2318L13.3211 4.32769C13.3394 4.54894 13.2041 4.74207 13.0309 4.74207H11.9678C11.7946 4.74207 11.6594 4.54894 11.6776 4.32769L11.7669 3.24207H8.20897C7.77403 3.24207 7.37919 3.58378 7.19799 4.11722L2.10152 19.1172C1.76428 20.1105 2.3024 21.2421 3.11286 21.2421H10.2893L10.6652 16.6633C10.6965 16.2818 10.9466 15.9921 11.2452 15.9921H13.7535C14.0521 15.9921 14.3022 16.2818 14.3336 16.6633L14.7094 21.2421H21.8859C22.6963 21.2421 23.2344 20.1105 22.8968 19.1172ZM11.4931 6.57769C11.5007 6.48553 11.5345 6.40024 11.5881 6.33826C11.6417 6.27628 11.7112 6.24202 11.7833 6.24207H13.2158C13.3649 6.24207 13.4903 6.38691 13.506 6.57769L13.6737 8.6205C13.701 8.95285 13.4983 9.24207 13.2387 9.24207H11.7607C11.5008 9.24207 11.2984 8.95285 11.3258 8.6205L11.4931 6.57769ZM13.5071 14.4921H11.4913C11.1449 14.4921 10.8748 14.1063 10.9112 13.6633L11.0961 11.4133C11.1274 11.0318 11.3775 10.7421 11.6761 10.7421H13.3222C13.6208 10.7421 13.8709 11.0318 13.9023 11.4133L14.0871 13.6633C14.1236 14.1063 13.8534 14.4921 13.5071 14.4921Z" fill="#B2B2BE"/>
</svg>
