<svg width="24" height="25" viewBox="0 0 24 25" fill="none" xmlns="http://www.w3.org/2000/svg">
<path d="M19.03 8.13206L20.1179 7.0442C20.3046 6.85751 20.3146 6.55715 20.135 6.36363C19.8931 6.10308 19.6473 5.85477 19.3884 5.61414C19.1956 5.43494 18.8964 5.4477 18.7116 5.63513L17.62 6.74206C16.07 5.48206 14.12 4.74206 12 4.74206C9.61305 4.74206 7.32387 5.69027 5.63604 7.3781C3.94821 9.06592 3 11.3551 3 13.7421C3 16.129 3.94821 18.4182 5.63604 20.106C7.32387 21.7938 9.61305 22.7421 12 22.7421C17 22.7421 21 18.7121 21 13.7421C21 11.6221 20.26 9.67206 19.03 8.13206ZM13.2885 13.7421C13.2885 14.2943 12.8408 14.7421 12.2885 14.7421H11.7188C11.1665 14.7421 10.7188 14.2943 10.7188 13.7421V8.74206C10.7188 8.18977 11.1665 7.74206 11.7188 7.74206H12.2885C12.8408 7.74206 13.2885 8.18977 13.2885 8.74206V13.7421ZM15.5622 2.03667C15.5622 1.76053 15.3384 1.53667 15.0622 1.53667H9.00816C8.73201 1.53667 8.50816 1.76053 8.50816 2.03667V3.24206C8.50816 3.5182 8.73201 3.74206 9.00816 3.74206H15.0622C15.3384 3.74206 15.5622 3.5182 15.5622 3.24206V2.03667Z" fill="#167EE6"/>
</svg>
