<svg width="46" height="52" viewBox="0 0 46 52" fill="none" xmlns="http://www.w3.org/2000/svg">
<g filter="url(#filter0_d_1810_2058)">
<path d="M34.3139 7.66622C31.2919 4.65716 27.2738 3 23.0001 3C18.7264 3 14.7085 4.65709 11.6863 7.66622C8.66431 10.6752 7 14.6758 7 18.9311C7 23.1865 8.66431 27.1872 11.6863 30.1962C11.6863 30.1962 21.9913 40.4565 22.2096 40.674C22.4279 40.8914 22.7141 41 23.0001 41C23.2863 41 23.5725 40.8913 23.7907 40.674L34.3136 30.1963C37.3357 27.1872 38.9999 23.1865 39 18.9312C38.9999 14.6757 37.3358 10.6751 34.3139 7.66622ZM28.025 23.9342C26.6828 25.2706 24.8984 26.0066 23.0002 26.0066C21.1021 26.0066 19.3176 25.2707 17.9755 23.9343C16.6333 22.5979 15.8942 20.8211 15.8942 18.9311C15.8942 17.0412 16.6333 15.2644 17.9755 13.9279C19.3176 12.5915 21.1021 11.8556 23.0002 11.8556C24.8984 11.8556 26.6828 12.5915 28.025 13.9279C29.3671 15.2643 30.1063 17.0411 30.1063 18.931C30.1063 20.821 29.3671 22.5979 28.025 23.9342Z" fill="#43A86E"/>
<circle cx="23" cy="19" r="13" fill="#43A86E"/>
<path d="M17.9217 13.5834C17.8099 13.5834 17.7026 13.6259 17.6235 13.7015C17.5444 13.7772 17.5 13.8798 17.5 13.9868V25.0966C17.5 25.2036 17.5444 25.3062 17.6235 25.3819C17.7026 25.4575 17.8099 25.5 17.9217 25.5C18.0336 25.5 18.1408 25.4575 18.2199 25.3819C18.299 25.3062 18.3434 25.2036 18.3434 25.0966V13.9868C18.3434 13.8798 18.299 13.7772 18.2199 13.7015C18.1408 13.6259 18.0336 13.5834 17.9217 13.5834Z" fill="white"/>
<path d="M28.2901 14.3176C28.226 14.2822 28.1533 14.2636 28.0792 14.2636C28.0052 14.2636 27.9325 14.2822 27.8684 14.3176C27.0508 14.6464 26.1698 14.8059 25.2832 14.7856C24.5194 14.7321 23.7755 14.5274 23.0987 14.1845C22.4478 13.8481 21.7315 13.6435 20.9944 13.5834C20.386 13.584 19.7839 13.7006 19.2231 13.9263V20.8451C19.7726 20.5575 20.3892 20.4076 21.0154 20.4094C21.6356 20.4682 22.2376 20.6437 22.7867 20.9258C23.5711 21.3176 24.4335 21.5459 25.317 21.5955C26.331 21.6156 27.3377 21.4271 28.269 21.0428C28.3386 21.0092 28.397 20.958 28.438 20.8946C28.4789 20.8312 28.5007 20.7582 28.5009 20.6837V14.6605C28.4998 14.5908 28.4797 14.5226 28.4428 14.4625C28.4058 14.4024 28.3532 14.3525 28.2901 14.3176Z" fill="white"/>
</g>
<defs>
<filter id="filter0_d_1810_2058" x="0" y="0" width="46" height="52" filterUnits="userSpaceOnUse" color-interpolation-filters="sRGB">
<feFlood flood-opacity="0" result="BackgroundImageFix"/>
<feColorMatrix in="SourceAlpha" type="matrix" values="0 0 0 0 0 0 0 0 0 0 0 0 0 0 0 0 0 0 127 0" result="hardAlpha"/>
<feOffset dy="4"/>
<feGaussianBlur stdDeviation="3.5"/>
<feComposite in2="hardAlpha" operator="out"/>
<feColorMatrix type="matrix" values="0 0 0 0 0 0 0 0 0 0 0 0 0 0 0 0 0 0 0.15 0"/>
<feBlend mode="normal" in2="BackgroundImageFix" result="effect1_dropShadow_1810_2058"/>
<feBlend mode="normal" in="SourceGraphic" in2="effect1_dropShadow_1810_2058" result="shape"/>
</filter>
</defs>
</svg>
