<svg width="24" height="24" viewBox="0 0 24 24" fill="none" xmlns="http://www.w3.org/2000/svg">
<circle cx="12" cy="12" r="12" fill="#F05F3F"/>
<path d="M7.31237 7C7.20913 7 7.11012 7.03923 7.03711 7.10907C6.96411 7.17891 6.9231 7.27363 6.9231 7.3724V17.6276C6.9231 17.7264 6.96411 17.8211 7.03711 17.8909C7.11012 17.9608 7.20913 18 7.31237 18C7.41562 18 7.51463 17.9608 7.58764 17.8909C7.66064 17.8211 7.70165 17.7264 7.70165 17.6276V7.3724C7.70165 7.27363 7.66064 7.17891 7.58764 7.10907C7.51463 7.03923 7.41562 7 7.31237 7Z" fill="white"/>
<path d="M16.8832 7.67776C16.824 7.64508 16.7569 7.62787 16.6885 7.62787C16.6202 7.62787 16.5531 7.64508 16.4939 7.67776C15.7392 7.98123 14.926 8.12845 14.1076 8.10974C13.4025 8.06039 12.7159 7.87144 12.0911 7.55487C11.4903 7.24433 10.8291 7.05546 10.1486 7C9.58708 7.00059 9.03128 7.10819 8.51367 7.31654V13.7031C9.02084 13.4377 9.58999 13.2993 10.1681 13.3009C10.7406 13.3553 11.2962 13.5173 11.8031 13.7776C12.5272 14.1393 13.3233 14.35 14.1387 14.3958C15.0748 14.4144 16.0041 14.2404 16.8637 13.8856C16.9279 13.8546 16.9819 13.8073 17.0197 13.7488C17.0575 13.6903 17.0776 13.6229 17.0778 13.5542V7.9943C17.0767 7.92994 17.0582 7.86696 17.0241 7.81148C16.99 7.756 16.9414 7.70993 16.8832 7.67776Z" fill="white"/>
</svg>
