<svg width="46" height="52" viewBox="0 0 46 52" fill="none" xmlns="http://www.w3.org/2000/svg">
<g filter="url(#filter0_d_1785_2019)">
<path d="M34.3139 7.66622C31.2919 4.65716 27.2738 3 23.0001 3C18.7264 3 14.7085 4.65709 11.6863 7.66622C8.66431 10.6752 7 14.6758 7 18.9311C7 23.1865 8.66431 27.1872 11.6863 30.1962C11.6863 30.1962 21.9913 40.4565 22.2096 40.674C22.4279 40.8914 22.7141 41 23.0001 41C23.2863 41 23.5725 40.8913 23.7907 40.674L34.3136 30.1963C37.3357 27.1872 38.9999 23.1865 39 18.9312C38.9999 14.6757 37.3358 10.6751 34.3139 7.66622ZM28.025 23.9342C26.6828 25.2706 24.8984 26.0066 23.0002 26.0066C21.1021 26.0066 19.3176 25.2707 17.9755 23.9343C16.6333 22.5979 15.8942 20.8211 15.8942 18.9311C15.8942 17.0412 16.6333 15.2644 17.9755 13.9279C19.3176 12.5915 21.1021 11.8556 23.0002 11.8556C24.8984 11.8556 26.6828 12.5915 28.025 13.9279C29.3671 15.2643 30.1063 17.0411 30.1063 18.931C30.1063 20.821 29.3671 22.5979 28.025 23.9342Z" fill="white"/>
<circle cx="23" cy="19" r="12" fill="#FF5732"/>
<path d="M18.3124 14C18.2091 14 18.1101 14.0392 18.0371 14.1091C17.9641 14.1789 17.9231 14.2736 17.9231 14.3724V24.6276C17.9231 24.7264 17.9641 24.8211 18.0371 24.8909C18.1101 24.9608 18.2091 25 18.3124 25C18.4156 25 18.5146 24.9608 18.5876 24.8909C18.6606 24.8211 18.7017 24.7264 18.7017 24.6276V14.3724C18.7017 14.2736 18.6606 14.1789 18.5876 14.1091C18.5146 14.0392 18.4156 14 18.3124 14Z" fill="white"/>
<path d="M27.8832 14.6778C27.824 14.6451 27.7569 14.6279 27.6885 14.6279C27.6202 14.6279 27.5531 14.6451 27.4939 14.6778C26.7392 14.9812 25.926 15.1284 25.1076 15.1097C24.4025 15.0604 23.7159 14.8714 23.0911 14.5549C22.4903 14.2443 21.8291 14.0555 21.1486 14C20.5871 14.0006 20.0313 14.1082 19.5137 14.3165V20.7031C20.0208 20.4377 20.59 20.2993 21.1681 20.3009C21.7406 20.3553 22.2962 20.5173 22.8031 20.7776C23.5272 21.1393 24.3233 21.35 25.1387 21.3958C26.0748 21.4144 27.0041 21.2404 27.8637 20.8856C27.9279 20.8547 27.9819 20.8073 28.0197 20.7488C28.0575 20.6903 28.0776 20.6229 28.0778 20.5542V14.9943C28.0767 14.9299 28.0582 14.867 28.0241 14.8115C27.99 14.756 27.9414 14.7099 27.8832 14.6778Z" fill="white"/>
</g>
<defs>
<filter id="filter0_d_1785_2019" x="0" y="0" width="46" height="52" filterUnits="userSpaceOnUse" color-interpolation-filters="sRGB">
<feFlood flood-opacity="0" result="BackgroundImageFix"/>
<feColorMatrix in="SourceAlpha" type="matrix" values="0 0 0 0 0 0 0 0 0 0 0 0 0 0 0 0 0 0 127 0" result="hardAlpha"/>
<feOffset dy="4"/>
<feGaussianBlur stdDeviation="3.5"/>
<feComposite in2="hardAlpha" operator="out"/>
<feColorMatrix type="matrix" values="0 0 0 0 0 0 0 0 0 0 0 0 0 0 0 0 0 0 0.15 0"/>
<feBlend mode="normal" in2="BackgroundImageFix" result="effect1_dropShadow_1785_2019"/>
<feBlend mode="normal" in="SourceGraphic" in2="effect1_dropShadow_1785_2019" result="shape"/>
</filter>
</defs>
</svg>
