<svg width="14" height="18" viewBox="0 0 14 18" fill="none" xmlns="http://www.w3.org/2000/svg">
<path d="M10.7683 3.73973C10.7683 1.67771 9.04287 0.00012207 6.9221 0.00012207C4.80133 0.00012207 3.07595 1.67771 3.07595 3.73973C3.07595 5.80176 4.80133 7.47935 6.9221 7.47935C9.04287 7.47935 10.7683 5.80176 10.7683 3.73973ZM6.9221 7.47935C3.10472 7.47935 -0.000976562 10.499 -0.000976562 14.2106V14.9116C-0.000976562 15.1242 0.092049 15.3267 0.254921 15.4686C2.12866 17.1011 4.49646 18.0001 6.9221 18.0001C9.34779 18.0001 11.7156 17.1011 13.5893 15.4686C13.7522 15.3267 13.8452 15.1242 13.8452 14.9116V14.2106C13.8452 10.499 10.7395 7.47935 6.9221 7.47935Z" fill="#D3D5DA"/>
</svg>
