<svg width="18" height="18" viewBox="0 0 18 18" fill="none" xmlns="http://www.w3.org/2000/svg">
<path d="M10.3693 18.0001H7.09329C6.88803 18.0002 6.68892 17.93 6.52899 17.8014C6.36906 17.6727 6.25792 17.4932 6.21399 17.2927L5.84769 15.5971C5.35904 15.383 4.8957 15.1153 4.46619 14.7988L2.81289 15.3253C2.6172 15.3877 2.40605 15.3813 2.2145 15.3072C2.02295 15.233 1.86254 15.0955 1.75989 14.9176L0.118292 12.0817C0.0167232 11.9036 -0.0214034 11.6964 0.0101505 11.4938C0.0417044 11.2912 0.14107 11.1054 0.291992 10.9666L1.57449 9.79662C1.51617 9.26662 1.51617 8.73182 1.57449 8.20182L0.291992 7.03452C0.140857 6.89572 0.0413555 6.70969 0.00979647 6.50693C-0.0217626 6.30416 0.0164928 6.09669 0.118292 5.91852L1.75629 3.08082C1.85894 2.90291 2.01935 2.76545 2.2109 2.69129C2.40245 2.61713 2.6136 2.61072 2.80929 2.67312L4.46259 3.19962C4.68219 3.03762 4.91079 2.88642 5.14659 2.74962C5.37429 2.62182 5.60829 2.50572 5.84769 2.40222L6.21489 0.708422C6.25861 0.5079 6.36954 0.328341 6.5293 0.199516C6.68907 0.0706909 6.88806 0.00033804 7.09329 0.00012207H10.3693C10.5745 0.00033804 10.7735 0.0706909 10.9333 0.199516C11.093 0.328341 11.204 0.5079 11.2477 0.708422L11.6185 2.40312C11.8705 2.51472 12.1171 2.63982 12.3556 2.77932C12.5779 2.90802 12.793 3.04932 13 3.20142L14.6542 2.67492C14.8498 2.61275 15.0607 2.61928 15.2521 2.69343C15.4434 2.76758 15.6037 2.9049 15.7063 3.08262L17.3443 5.92032C17.5531 6.28662 17.4811 6.75012 17.1706 7.03542L15.8881 8.20542C15.9464 8.73542 15.9464 9.27022 15.8881 9.80022L17.1706 10.9702C17.4811 11.2564 17.5531 11.719 17.3443 12.0853L15.7063 14.923C15.6036 15.1009 15.4432 15.2384 15.2517 15.3126C15.0601 15.3867 14.849 15.3931 14.6533 15.3307L13 14.8042C12.5708 15.1204 12.1078 15.3879 11.6194 15.6016L11.2477 17.2927C11.2038 17.4931 11.0928 17.6724 10.933 17.8011C10.7733 17.9297 10.5744 18 10.3693 18.0001ZM8.72769 5.40012C7.77291 5.40012 6.85724 5.77941 6.18211 6.45454C5.50698 7.12967 5.12769 8.04534 5.12769 9.00012C5.12769 9.9549 5.50698 10.8706 6.18211 11.5457C6.85724 12.2208 7.77291 12.6001 8.72769 12.6001C9.68247 12.6001 10.5981 12.2208 11.2733 11.5457C11.9484 10.8706 12.3277 9.9549 12.3277 9.00012C12.3277 8.04534 11.9484 7.12967 11.2733 6.45454C10.5981 5.77941 9.68247 5.40012 8.72769 5.40012Z" fill="#D3D5DA"/>
</svg>
