<svg width="21" height="17" viewBox="0 0 21 17" fill="none" xmlns="http://www.w3.org/2000/svg">
<path d="M13.2321 13.8126V9.28586H6.92075C6.73605 9.28586 6.55891 9.21249 6.4283 9.08188C6.2977 8.95127 6.22432 8.77414 6.22432 8.58943C6.22432 8.40473 6.2977 8.22759 6.4283 8.09698C6.55891 7.96638 6.73605 7.893 6.92075 7.893H13.2321V3.36622C13.2314 2.71997 12.9744 2.10039 12.5174 1.64342C12.0605 1.18645 11.4409 0.929417 10.7946 0.928726H2.4375C1.79124 0.929417 1.17166 1.18645 0.71469 1.64342C0.25772 2.10039 0.000691303 2.71997 0 3.36622V13.8126C0.000691303 14.4589 0.25772 15.0785 0.71469 15.5354C1.17166 15.9924 1.79124 16.2494 2.4375 16.2501H10.7946C11.4409 16.2494 12.0605 15.9924 12.5174 15.5354C12.9744 15.0785 13.2314 14.4589 13.2321 13.8126Z" fill="#D3D5DA"/>
<path d="M18.1224 9.28593L15.8294 12.5794C15.7043 12.711 15.6356 12.8863 15.6379 13.0679C15.6403 13.2495 15.7134 13.4231 15.8419 13.5515C15.9703 13.6799 16.1438 13.7531 16.3254 13.7554C16.507 13.7577 16.6823 13.689 16.814 13.5639L20.2961 9.08179C20.4266 8.9512 20.4999 8.77413 20.4999 8.58951C20.4999 8.40488 20.4266 8.22781 20.2961 8.09722L16.814 3.61509C16.6823 3.48999 16.507 3.42129 16.3254 3.42361C16.1438 3.42594 15.9703 3.49911 15.8419 3.62753C15.7134 3.75595 15.6403 3.92946 15.6379 4.11106C15.6356 4.29267 15.7043 4.46799 15.8294 4.59966L18.1224 7.89308H13.2324V9.28593H18.1224Z" fill="#D3D5DA"/>
</svg>
