<svg width="24" height="24" viewBox="0 0 24 24" fill="none" xmlns="http://www.w3.org/2000/svg">
<path d="M12 0C17.5231 0 22 4.42202 22 9.87736C22 14.0512 19.0308 18.5998 13.1692 23.5719C12.8433 23.8485 12.4278 24.0004 11.9981 24C11.5684 23.9996 11.1531 23.847 10.8277 23.5699L10.44 23.2376C4.83795 18.3952 2 13.958 2 9.87736C2 4.42202 6.47692 0 12 0ZM12 6.07837C10.9799 6.07837 10.0017 6.47862 9.28036 7.19107C8.55907 7.90352 8.15385 8.8698 8.15385 9.87736C8.15385 10.8849 8.55907 11.8512 9.28036 12.5636C10.0017 13.2761 10.9799 13.6763 12 13.6763C13.0201 13.6763 13.9983 13.2761 14.7196 12.5636C15.4409 11.8512 15.8462 10.8849 15.8462 9.87736C15.8462 8.8698 15.4409 7.90352 14.7196 7.19107C13.9983 6.47862 13.0201 6.07837 12 6.07837Z" fill="#EB5757"/>
</svg>
