<svg width="22" height="22" viewBox="0 0 22 22" fill="none" xmlns="http://www.w3.org/2000/svg">
<path d="M6.96444 2.98886L3.92444 1.97442C3.59037 1.86315 3.23464 1.83286 2.88656 1.88605C2.53849 1.93923 2.20803 2.07437 1.92243 2.28033C1.63683 2.48628 1.40426 2.75715 1.24388 3.07063C1.08351 3.3841 0.999915 3.73119 1 4.08331V17.1755C0.999888 17.6421 1.14664 18.0969 1.41946 18.4754C1.69228 18.8539 2.07732 19.137 2.52 19.2844L6.96444 20.7655C7.42028 20.9174 7.91305 20.9174 8.36889 20.7655L13.6311 19.0122C14.087 18.8604 14.5797 18.8604 15.0356 19.0122L18.0756 20.0255C18.4097 20.1368 18.7655 20.1671 19.1137 20.1139C19.4619 20.0606 19.7924 19.9254 20.078 19.7193C20.3636 19.5132 20.5962 19.2422 20.7565 18.9286C20.9168 18.615 21.0003 18.2677 21 17.9155V4.82442C21.0002 4.35797 20.8536 3.90328 20.581 3.52478C20.3084 3.14629 19.9236 2.86316 19.4811 2.71553L15.0367 1.23442C14.5805 1.08235 14.0873 1.08235 13.6311 1.23442L8.36778 2.98775C7.91194 3.13958 7.41917 3.13958 6.96333 2.98775L6.96444 2.98886Z" stroke="#27AE60" stroke-width="2" stroke-linecap="round" stroke-linejoin="round"/>
<rect x="2" y="2" width="5" height="18" fill="#27AE60"/>
<path d="M6.55566 3.22223V21" stroke="#27AE60" stroke-width="2" stroke-linejoin="round"/>
<path d="M15.4443 1V18.7778" stroke="#27AE60" stroke-width="2" stroke-linejoin="round"/>
<rect x="15" y="2" width="5" height="18" fill="#27AE60"/>
</svg>
