<svg width="24" height="24" viewBox="0 0 24 24" fill="none" xmlns="http://www.w3.org/2000/svg">
<circle cx="12" cy="12" r="12" fill="#E064F4"/>
<path d="M11.5144 5.28833C11.655 5.18275 11.8252 5.12579 11.9999 5.12579C12.1746 5.12579 12.3447 5.18275 12.4854 5.28833L17.6658 9.17989C18.279 9.64099 17.992 10.6121 17.2622 10.6799H6.73759C6.00773 10.6121 5.72135 9.64099 6.33393 9.17989L11.5149 5.28833H11.5144ZM11.9999 9.01379C12.2169 9.01379 12.425 8.92599 12.5785 8.76972C12.7319 8.61344 12.8181 8.40148 12.8181 8.18047C12.8181 7.95947 12.7319 7.74751 12.5785 7.59123C12.425 7.43496 12.2169 7.34716 11.9999 7.34716C11.7829 7.34716 11.5748 7.43496 11.4213 7.59123C11.2679 7.74751 11.1817 7.95947 11.1817 8.18047C11.1817 8.40148 11.2679 8.61344 11.4213 8.76972C11.5748 8.92599 11.7829 9.01379 11.9999 9.01379ZM15 10.6804H16.3632V15.1247H14.9995L15 10.6804ZM13.9091 15.1247V10.6804H12.5454V15.1247H13.9091ZM11.4544 15.1253V10.681H10.0907V15.1253H11.4544ZM9.00026 15.1253V10.681H7.63655V15.1253H9.00026ZM7.77292 15.1253C7.30274 15.1253 6.85181 15.3155 6.51934 15.6541C6.18687 15.9927 6.00009 16.452 6.00009 16.9308V17.2086C6.00064 17.4391 6.18392 17.6258 6.40921 17.6258H17.59C17.6985 17.6258 17.8026 17.5819 17.8793 17.5038C17.956 17.4256 17.9991 17.3196 17.9991 17.2091V16.9314C17.9991 16.4525 17.8123 15.9933 17.4799 15.6547C17.1474 15.3161 16.6965 15.1259 16.2263 15.1259H7.77346L7.77292 15.1253Z" fill="white"/>
</svg>
