<svg width="32" height="32" viewBox="0 0 32 32" fill="none" xmlns="http://www.w3.org/2000/svg">
<circle cx="16" cy="16" r="16" fill="#9F69F7"/>
<mask id="mask0_512_950" style="mask-type:alpha" maskUnits="userSpaceOnUse" x="0" y="0" width="32" height="32">
<circle cx="16" cy="16" r="16" fill="#FFA235"/>
</mask>
<g mask="url(#mask0_512_950)">
<path d="M7.52565 34.4296C7.52565 34.4296 2.45898 30 2.45898 28.2667C2.45898 26.5333 7.33306 18.4445 15.9997 18.4445C24.6664 18.4445 29.9256 26.5333 29.9256 28.2667C29.9256 30 24.0886 34.4296 24.0886 34.4296H7.52565ZM15.9997 16.7111C17.3788 16.7111 18.7015 16.1633 19.6767 15.1881C20.6519 14.2129 21.1997 12.8903 21.1997 11.5111C21.1997 10.132 20.6519 8.80936 19.6767 7.83417C18.7015 6.85898 17.3788 6.31113 15.9997 6.31113C14.6206 6.31113 13.298 6.85898 12.3228 7.83417C11.3476 8.80936 10.7997 10.132 10.7997 11.5111C10.7997 12.8903 11.3476 14.2129 12.3228 15.1881C13.298 16.1633 14.6206 16.7111 15.9997 16.7111Z" fill="#E5DCFF"/>
</g>
</svg>
