<svg width="18" height="20" viewBox="0 0 18 20" fill="none" xmlns="http://www.w3.org/2000/svg">
<path d="M16.5065 12.4901C17.1605 11.262 17.5016 9.89153 17.4995 8.50012C17.4995 3.80562 13.694 0.00012207 8.99953 0.00012207C4.30502 0.00012207 0.499524 3.80562 0.499524 8.50012C0.496083 10.5053 1.20487 12.4465 2.49952 13.9776L2.50952 13.9901C2.51302 13.9931 2.51602 13.9971 2.51852 14.0001H2.49952L7.54352 19.3551C7.73051 19.5536 7.9561 19.7117 8.20644 19.8198C8.45679 19.9279 8.72659 19.9837 8.99928 19.9837C9.27196 19.9837 9.54176 19.9279 9.79211 19.8198C10.0424 19.7117 10.268 19.5536 10.455 19.3551L15.4995 14.0001H15.4805L15.4885 13.9906L15.4895 13.9896C15.5255 13.9466 15.5615 13.9036 15.597 13.8596C15.9438 13.4334 16.2486 12.9746 16.507 12.4896L16.5065 12.4901ZM9.00152 11.7501C8.20588 11.7501 7.44281 11.4341 6.8802 10.8714C6.3176 10.3088 6.00152 9.54577 6.00152 8.75012C6.00152 7.95447 6.3176 7.19141 6.8802 6.6288C7.44281 6.06619 8.20588 5.75012 9.00152 5.75012C9.79717 5.75012 10.5602 6.06619 11.1228 6.6288C11.6855 7.19141 12.0015 7.95447 12.0015 8.75012C12.0015 9.54577 11.6855 10.3088 11.1228 10.8714C10.5602 11.4341 9.79717 11.7501 9.00152 11.7501Z" fill="#F04C4C"/>
</svg>
