<svg width="48" height="48" viewBox="0 0 48 48" fill="none" xmlns="http://www.w3.org/2000/svg">
<circle cx="24" cy="24" r="24" fill="#FCEBDB"/>
<path d="M33.2089 21.675L27.2581 20.8102L24.5979 15.4172C24.5253 15.2695 24.4057 15.15 24.2581 15.0774C23.8878 14.8945 23.4378 15.0469 23.2526 15.4172L20.5925 20.8102L14.6417 21.675C14.4776 21.6984 14.3276 21.7758 14.2128 21.893C14.0739 22.0357 13.9974 22.2277 14.0001 22.4267C14.0027 22.6258 14.0843 22.8157 14.2268 22.9547L18.5323 27.1524L17.5151 33.0797C17.4913 33.2176 17.5065 33.3594 17.5592 33.489C17.6118 33.6187 17.6997 33.731 17.8129 33.8132C17.9262 33.8955 18.0602 33.9443 18.1997 33.9543C18.3393 33.9642 18.4789 33.9349 18.6026 33.8695L23.9253 31.0711L29.2479 33.8695C29.3932 33.9469 29.562 33.9727 29.7237 33.9445C30.1315 33.8742 30.4057 33.4875 30.3354 33.0797L29.3182 27.1524L33.6237 22.9547C33.7409 22.8399 33.8182 22.6899 33.8417 22.5258C33.905 22.1156 33.619 21.7359 33.2089 21.675Z" fill="#FFA235"/>
</svg>
