<svg width="20" height="20" viewBox="0 0 20 20" fill="none" xmlns="http://www.w3.org/2000/svg">
<path d="M18.7638 9.49152C18.8481 9.21027 18.8903 8.91965 18.8903 8.62434C18.8903 7.96105 18.6724 7.32355 18.2786 6.80324C18.363 6.52199 18.4052 6.23137 18.4052 5.93605C18.4052 5.27277 18.1872 4.63527 17.7935 4.11496C17.8778 3.83371 17.92 3.54309 17.92 3.24777C17.92 2.0384 17.2005 0.948555 16.0849 0.472773C15.8888 0.388231 15.6773 0.345142 15.4638 0.346211H1.37549C0.960645 0.346211 0.625488 0.681367 0.625488 1.09621V9.62746C0.625488 10.0423 0.960645 10.3775 1.37549 10.3775H4.40596L6.41689 17.6618C6.74033 18.8361 7.81846 19.6564 9.03721 19.6564C9.7333 19.6564 10.3825 19.3798 10.863 18.8736C11.3435 18.3696 11.5896 17.7087 11.5544 17.0126L11.4138 14.1321H17.0364C17.32 14.1321 17.5966 14.0571 17.8403 13.9142C18.7872 13.3634 19.3755 12.365 19.3755 11.3126C19.3755 10.6493 19.1575 10.0118 18.7638 9.49152ZM2.31299 8.68762V2.03137H4.21143V8.68762H2.31299ZM17.013 12.447H9.64424L9.86924 17.097C9.8833 17.3759 9.75908 17.6384 9.52705 17.8118C9.38408 17.9173 9.2083 17.9712 9.03252 17.9689C8.80795 17.9667 8.59014 17.8917 8.4118 17.7552C8.23346 17.6187 8.10421 17.428 8.04346 17.2118L5.71143 8.76262V2.03137H15.4474C15.6816 2.13636 15.8806 2.30679 16.0203 2.52217C16.16 2.73755 16.2345 2.98871 16.2349 3.24543C16.2349 3.47277 16.181 3.6884 16.0731 3.88527L15.7474 4.48059L16.2606 4.9259C16.4051 5.05103 16.5209 5.20581 16.6002 5.37972C16.6795 5.55364 16.7203 5.74259 16.72 5.93371C16.72 6.16105 16.6661 6.37668 16.5583 6.57355L16.2325 7.16887L16.7458 7.61418C16.8903 7.73931 17.0061 7.89409 17.0854 8.06801C17.1646 8.24192 17.2055 8.43087 17.2052 8.62199C17.2052 8.84934 17.1513 9.06496 17.0435 9.26184L16.7153 9.85949L17.2286 10.3048C17.3731 10.4299 17.4889 10.5847 17.5682 10.7586C17.6474 10.9325 17.6883 11.1215 17.688 11.3126C17.688 11.7603 17.4302 12.1915 17.013 12.447Z" fill="#8C8C95"/>
</svg>
