<svg width="20" height="20" viewBox="0 0 20 20" fill="none" xmlns="http://www.w3.org/2000/svg">
<path d="M18.7638 10.5088C19.1575 9.98844 19.3755 9.35094 19.3755 8.68766C19.3755 7.63532 18.7872 6.63923 17.8403 6.08376C17.5966 5.94078 17.319 5.86553 17.0364 5.86579H11.4161L11.5567 2.98532C11.5896 2.28923 11.3435 1.62829 10.8653 1.12438C10.6307 0.876011 10.3476 0.678397 10.0336 0.543754C9.71954 0.409111 9.38123 0.340299 9.03955 0.34157C7.8208 0.34157 6.74268 1.16188 6.41924 2.3361L4.40596 9.62516H1.37549C0.960645 9.62516 0.625488 9.96032 0.625488 10.3752V18.9064C0.625488 19.3213 0.960645 19.6564 1.37549 19.6564H15.4685C15.6841 19.6564 15.895 19.6142 16.0896 19.5298C17.2052 19.0541 17.9247 17.9642 17.9247 16.7549C17.9247 16.4595 17.8825 16.1689 17.7981 15.8877C18.1919 15.3673 18.4099 14.7298 18.4099 14.0666C18.4099 13.7713 18.3677 13.4806 18.2833 13.1994C18.6771 12.6791 18.895 12.0416 18.895 11.3783C18.8903 11.083 18.8481 10.79 18.7638 10.5088ZM2.31299 17.9689V11.3127H4.21143V17.9689H2.31299ZM17.2286 9.69548L16.7153 10.1408L17.0411 10.7361C17.1484 10.9322 17.2041 11.1524 17.2028 11.3759C17.2028 11.7627 17.0341 12.1306 16.7435 12.3838L16.2302 12.8291L16.556 13.4244C16.6633 13.6205 16.7189 13.8407 16.7177 14.0642C16.7177 14.4509 16.5489 14.8189 16.2583 15.072L15.745 15.5174L16.0708 16.1127C16.1781 16.3088 16.2338 16.529 16.2325 16.7525C16.2325 17.2775 15.9231 17.7509 15.445 17.9666H5.71143V11.2377L8.04346 2.78844C8.10359 2.57188 8.23268 2.38082 8.41115 2.24422C8.58963 2.10761 8.80777 2.0329 9.03252 2.03141C9.21065 2.03141 9.38643 2.08298 9.52705 2.18844C9.75908 2.36188 9.8833 2.62438 9.86924 2.90329L9.64424 7.55329H17.013C17.4302 7.80876 17.688 8.24001 17.688 8.68766C17.688 9.07438 17.5192 9.44001 17.2286 9.69548Z" fill="#8C8C95"/>
</svg>
