<svg width="24" height="24" viewBox="0 0 24 24" fill="none" xmlns="http://www.w3.org/2000/svg">
<path d="M20.7633 12.5083C21.157 11.988 21.375 11.3505 21.375 10.6872C21.375 9.63483 20.7867 8.63874 19.8398 8.08327C19.5961 7.94029 19.3185 7.86504 19.0359 7.8653H13.4156L13.5563 4.98483C13.5891 4.28874 13.343 3.6278 12.8648 3.12389C12.6302 2.87552 12.3471 2.67791 12.0331 2.54327C11.7191 2.40862 11.3807 2.33981 11.0391 2.34108C9.82031 2.34108 8.74219 3.16139 8.41875 4.33561L6.40547 11.6247H6.39844V21.6559H17.468C17.6836 21.6559 17.8945 21.6137 18.0891 21.5294C19.2047 21.0536 19.9242 19.9637 19.9242 18.7544C19.9242 18.4591 19.882 18.1684 19.7977 17.8872C20.1914 17.3669 20.4094 16.7294 20.4094 16.0661C20.4094 15.7708 20.3672 15.4801 20.2828 15.1989C20.6766 14.6786 20.8945 14.0411 20.8945 13.3778C20.8898 13.0825 20.8477 12.7895 20.7633 12.5083ZM2.625 12.3747V20.9059C2.625 21.3208 2.96016 21.6559 3.375 21.6559H4.89844V11.6247H3.375C2.96016 11.6247 2.625 11.9598 2.625 12.3747Z" fill="#27AE60"/>
</svg>
