<svg width="24" height="24" viewBox="0 0 24 24" fill="none" xmlns="http://www.w3.org/2000/svg">
<circle cx="12" cy="12" r="12" fill="#3562FF"/>
<path d="M17.4545 8.28618H15.8182V5.53579C15.8182 5.23989 15.574 5 15.2727 5C14.9715 5 14.7273 5.23989 14.7273 5.53579V8.28618H9.27273V5.53579C9.27273 5.23989 9.02851 5 8.72727 5C8.42604 5 8.18182 5.23989 8.18182 5.53579V8.28618H6.54545C6.24436 8.28618 6 8.52621 6 8.82197V10.9651C6 11.2609 6.24436 11.5009 6.54545 11.5009H7.09091V14.1799C7.09091 16.667 8.95484 18.6901 11.5076 18.9656C11.9281 19.011 12.1704 19.0119 12.5908 18.9656C15.1174 18.6873 16.9091 16.6459 16.9091 14.1799V11.5009H17.4545C17.7556 11.5009 18 11.2609 18 10.9651V8.82197C18 8.52621 17.7556 8.28618 17.4545 8.28618ZM13.4767 14.5589L11.3645 16.6304C10.8587 17.1273 10.082 16.3747 10.5929 15.8725L12.1702 14.3267L10.6651 13.5876C10.3327 13.424 10.2604 12.9879 10.5233 12.7293L12.6355 10.6577C13.1453 10.1569 13.9176 10.9138 13.4071 11.4157L11.8298 12.9615L13.3349 13.7005C13.6673 13.8641 13.7396 14.3002 13.4767 14.5589Z" fill="white"/>
</svg>
