<svg width="24" height="24" viewBox="0 0 24 24" fill="none" xmlns="http://www.w3.org/2000/svg">
<circle cx="12" cy="12" r="12" fill="#E064F4"/>
<path d="M11.5144 5.28851C11.655 5.18293 11.8252 5.12598 11.9999 5.12598C12.1746 5.12598 12.3447 5.18293 12.4854 5.28851L17.6658 9.18008C18.279 9.64118 17.992 10.6123 17.2622 10.68H6.73759C6.00773 10.6123 5.72135 9.64118 6.33393 9.18008L11.5149 5.28851H11.5144ZM11.9999 9.01397C12.2169 9.01397 12.425 8.92618 12.5785 8.7699C12.7319 8.61362 12.8181 8.40167 12.8181 8.18066C12.8181 7.95965 12.7319 7.74769 12.5785 7.59142C12.425 7.43514 12.2169 7.34735 11.9999 7.34735C11.7829 7.34735 11.5748 7.43514 11.4213 7.59142C11.2679 7.74769 11.1817 7.95965 11.1817 8.18066C11.1817 8.40167 11.2679 8.61362 11.4213 8.7699C11.5748 8.92618 11.7829 9.01397 11.9999 9.01397ZM15 10.6806H16.3632V15.1249H14.9995L15 10.6806ZM13.9091 15.1249V10.6806H12.5454V15.1249H13.9091ZM11.4544 15.1255V10.6812H10.0907V15.1255H11.4544ZM9.00026 15.1255V10.6812H7.63655V15.1255H9.00026ZM7.77292 15.1255C7.30274 15.1255 6.85181 15.3157 6.51934 15.6543C6.18687 15.9929 6.00009 16.4521 6.00009 16.931V17.2088C6.00064 17.4393 6.18392 17.626 6.40921 17.626H17.59C17.6985 17.626 17.8026 17.5821 17.8793 17.5039C17.956 17.4258 17.9991 17.3198 17.9991 17.2093V16.9316C17.9991 16.4527 17.8123 15.9935 17.4799 15.6549C17.1474 15.3163 16.6965 15.126 16.2263 15.126H7.77346L7.77292 15.1255Z" fill="white"/>
</svg>
