<svg width="20" height="20" viewBox="0 0 20 20" fill="none" xmlns="http://www.w3.org/2000/svg">
<path d="M13.5993 11.9719L13.5994 11.9715C13.6902 11.7074 13.9676 11.5 14.3132 11.5H18.7524C19.1968 11.5 19.4998 11.8289 19.5 12.1684C19.5 12.1685 19.5 12.1685 19.5 12.1686V18.8321C19.5 19.1704 19.1973 19.5 18.7527 19.5H1.24756C0.803216 19.5 0.5 19.1701 0.5 18.8321V12.1684C0.5 11.8292 0.803148 11.5 1.24756 11.5H5.68659C6.03236 11.5 6.30961 11.7072 6.40089 11.9718C6.91534 13.4662 8.37365 14.4428 10 14.4428C11.6258 14.4428 13.0846 13.4662 13.5993 11.9719Z" fill="white" stroke="white"/>
<path d="M6.59404 6.22622H8.19076V10.3513C8.19076 10.5277 8.33884 10.6696 8.521 10.6696H11.4771C11.66 10.6696 11.8073 10.5277 11.8073 10.3513V6.22622H13.4052C13.5286 6.22622 13.6419 6.15926 13.6983 6.05438C13.7262 6.00284 13.7387 5.94437 13.7344 5.88592C13.73 5.82746 13.709 5.77148 13.6738 5.72462L10.2569 1.1315C10.2255 1.09009 10.1849 1.05654 10.1383 1.03351C10.0917 1.01047 10.0403 0.998586 9.98836 0.998782H9.98764C9.88084 0.998782 9.78148 1.04846 9.71908 1.1327L6.32428 5.72486C6.28947 5.77192 6.26874 5.82789 6.26449 5.88627C6.26024 5.94464 6.27265 6.00302 6.30028 6.05462C6.35668 6.16046 6.47068 6.22622 6.59404 6.22622Z" fill="white"/>
</svg>
