<svg width="88" height="16" viewBox="0 0 88 16" fill="none" xmlns="http://www.w3.org/2000/svg">
<path d="M14.1892 5.51721L10.222 4.94064L8.44859 1.34533C8.40015 1.24689 8.32046 1.16721 8.22203 1.11877C7.97515 0.996893 7.67515 1.09846 7.55171 1.34533L5.77828 4.94064L1.81109 5.51721C1.70171 5.53283 1.60171 5.58439 1.52515 5.66252C1.43259 5.75765 1.38159 5.88564 1.38334 6.01836C1.3851 6.15109 1.43948 6.27768 1.53453 6.37033L4.40484 9.16877L3.72671 13.1203C3.71081 13.2123 3.72098 13.3068 3.75608 13.3932C3.79117 13.4797 3.84978 13.5545 3.92526 13.6094C4.00074 13.6642 4.09007 13.6968 4.18312 13.7034C4.27617 13.71 4.36922 13.6904 4.45171 13.6469L8.00015 11.7813L11.5486 13.6469C11.6455 13.6985 11.758 13.7156 11.8658 13.6969C12.1377 13.65 12.3205 13.3922 12.2736 13.1203L11.5955 9.16877L14.4658 6.37033C14.5439 6.29377 14.5955 6.19377 14.6111 6.08439C14.6533 5.81096 14.4627 5.55783 14.1892 5.51721V5.51721Z" fill="#FFA235"/>
<path d="M32.1892 5.51721L28.222 4.94064L26.4486 1.34533C26.4002 1.24689 26.3205 1.16721 26.222 1.11877C25.9752 0.996893 25.6752 1.09846 25.5517 1.34533L23.7783 4.94064L19.8111 5.51721C19.7017 5.53283 19.6017 5.58439 19.5252 5.66252C19.4326 5.75765 19.3816 5.88564 19.3833 6.01836C19.3851 6.15109 19.4395 6.27768 19.5345 6.37033L22.4048 9.16877L21.7267 13.1203C21.7108 13.2123 21.721 13.3068 21.7561 13.3932C21.7912 13.4797 21.8498 13.5545 21.9253 13.6094C22.0007 13.6642 22.0901 13.6968 22.1831 13.7034C22.2762 13.71 22.3692 13.6904 22.4517 13.6469L26.0002 11.7813L29.5486 13.6469C29.6455 13.6985 29.758 13.7156 29.8658 13.6969C30.1377 13.65 30.3205 13.3922 30.2736 13.1203L29.5955 9.16877L32.4658 6.37033C32.5439 6.29377 32.5955 6.19377 32.6111 6.08439C32.6533 5.81096 32.4627 5.55783 32.1892 5.51721V5.51721Z" fill="#FFA235"/>
<path d="M50.1892 5.51721L46.222 4.94064L44.4486 1.34533C44.4002 1.24689 44.3205 1.16721 44.222 1.11877C43.9752 0.996893 43.6752 1.09846 43.5517 1.34533L41.7783 4.94064L37.8111 5.51721C37.7017 5.53283 37.6017 5.58439 37.5252 5.66252C37.4326 5.75765 37.3816 5.88564 37.3833 6.01836C37.3851 6.15109 37.4395 6.27768 37.5345 6.37033L40.4048 9.16877L39.7267 13.1203C39.7108 13.2123 39.721 13.3068 39.7561 13.3932C39.7912 13.4797 39.8498 13.5545 39.9253 13.6094C40.0007 13.6642 40.0901 13.6968 40.1831 13.7034C40.2762 13.71 40.3692 13.6904 40.4517 13.6469L44.0002 11.7813L47.5486 13.6469C47.6455 13.6985 47.758 13.7156 47.8658 13.6969C48.1377 13.65 48.3205 13.3922 48.2736 13.1203L47.5955 9.16877L50.4658 6.37033C50.5439 6.29377 50.5955 6.19377 50.6111 6.08439C50.6533 5.81096 50.4627 5.55783 50.1892 5.51721V5.51721Z" fill="#FFA235"/>
<path d="M68.1892 5.51721L64.222 4.94064L62.4486 1.34533C62.4002 1.24689 62.3205 1.16721 62.222 1.11877C61.9752 0.996893 61.6752 1.09846 61.5517 1.34533L59.7783 4.94064L55.8111 5.51721C55.7017 5.53283 55.6017 5.58439 55.5252 5.66252C55.4326 5.75765 55.3816 5.88564 55.3833 6.01836C55.3851 6.15109 55.4395 6.27768 55.5345 6.37033L58.4048 9.16877L57.7267 13.1203C57.7108 13.2123 57.721 13.3068 57.7561 13.3932C57.7912 13.4797 57.8498 13.5545 57.9253 13.6094C58.0007 13.6642 58.0901 13.6968 58.1831 13.7034C58.2762 13.71 58.3692 13.6904 58.4517 13.6469L62.0002 11.7813L65.5486 13.6469C65.6455 13.6985 65.758 13.7156 65.8658 13.6969C66.1377 13.65 66.3205 13.3922 66.2736 13.1203L65.5955 9.16877L68.4658 6.37033C68.5439 6.29377 68.5955 6.19377 68.6111 6.08439C68.6533 5.81096 68.4627 5.55783 68.1892 5.51721V5.51721Z" fill="#FFA235"/>
<path d="M86.1892 5.51757L82.222 4.94101L80.4486 1.3457C80.4002 1.24726 80.3205 1.16757 80.222 1.11913C79.9752 0.997259 79.6752 1.09882 79.5517 1.3457L77.7783 4.94101L73.8111 5.51757C73.7017 5.5332 73.6017 5.58476 73.5252 5.66288C73.4326 5.75802 73.3816 5.88601 73.3833 6.01873C73.3851 6.15145 73.4395 6.27805 73.5345 6.3707L76.4048 9.16913L75.7267 13.1207C75.7108 13.2126 75.721 13.3072 75.7561 13.3936C75.7912 13.48 75.8498 13.5549 75.9253 13.6097C76.0007 13.6645 76.0901 13.6971 76.1831 13.7038C76.2762 13.7104 76.3692 13.6908 76.4517 13.6473L80.0002 11.7816L83.5486 13.6473C83.6455 13.6988 83.758 13.716 83.8658 13.6973C84.1377 13.6504 84.3205 13.3926 84.2736 13.1207L83.5955 9.16913L86.4658 6.3707C86.5439 6.29413 86.5955 6.19413 86.6111 6.08476C86.6533 5.81132 86.4627 5.5582 86.1892 5.51757V5.51757Z" fill="#FFA235"/>
</svg>
