<svg width="24" height="24" viewBox="0 0 24 24" fill="none" xmlns="http://www.w3.org/2000/svg">
<circle cx="12" cy="12" r="12" fill="#FF5732"/>
<path d="M18.8185 11.2268L12.5192 4.22171C12.2539 3.9261 11.7443 3.9261 11.4791 4.22171L5.1797 11.2268C5.08919 11.3274 5.02977 11.4522 5.00861 11.5859C4.98746 11.7196 5.00548 11.8566 5.0605 11.9803C5.11552 12.104 5.20518 12.2091 5.31863 12.2829C5.43208 12.3566 5.56446 12.3959 5.69975 12.3959H7.09961V17.2995C7.09961 17.4853 7.17335 17.6635 7.30461 17.7948C7.43588 17.9262 7.61391 18 7.79954 18H16.1987C16.3843 18 16.5624 17.9262 16.6936 17.7948C16.8249 17.6635 16.8986 17.4853 16.8986 17.2995V12.3959H18.2985C18.434 12.3965 18.5668 12.3576 18.6807 12.284C18.7945 12.2103 18.8845 12.1051 18.9396 11.9812C18.9948 11.8572 19.0127 11.7199 18.9912 11.586C18.9697 11.452 18.9097 11.3272 18.8185 11.2268ZM11.9991 13.797C11.4422 13.797 10.9081 13.5755 10.5143 13.1814C10.1206 12.7873 9.89933 12.2528 9.89933 11.6954C9.89933 11.1381 10.1206 10.6035 10.5143 10.2094C10.9081 9.81532 11.4422 9.59391 11.9991 9.59391C12.556 9.59391 13.0901 9.81532 13.4839 10.2094C13.8777 10.6035 14.0989 11.1381 14.0989 11.6954C14.0989 12.2528 13.8777 12.7873 13.4839 13.1814C13.0901 13.5755 12.556 13.797 11.9991 13.797Z" fill="white"/>
</svg>
