<svg width="24" height="14" viewBox="0 0 24 14" fill="none" xmlns="http://www.w3.org/2000/svg">
<path d="M23.8728 12.5199C23.8437 12.4572 23.8166 12.4053 23.7915 12.3637C23.3751 11.6137 22.5793 10.6932 21.4047 9.60187L21.3799 9.57688L21.3675 9.56462L21.3549 9.55206H21.3423C20.8093 9.04389 20.4717 8.7022 20.3303 8.52726C20.0716 8.19402 20.0137 7.8567 20.1551 7.51493C20.2549 7.2567 20.6301 6.71136 21.2797 5.87817C21.6214 5.43661 21.892 5.08271 22.0918 4.81608C23.5331 2.89996 24.158 1.67553 23.9663 1.14232L23.8919 1.01771C23.8418 0.942694 23.7127 0.874067 23.5047 0.81148C23.2962 0.749025 23.0297 0.738696 22.7047 0.780319L19.106 0.805178C19.0477 0.78452 18.9645 0.786446 18.856 0.81148C18.7477 0.836515 18.6935 0.849077 18.6935 0.849077L18.6309 0.88037L18.5812 0.917966C18.5395 0.942825 18.4937 0.986549 18.4436 1.04905C18.3939 1.11133 18.3523 1.18442 18.319 1.26771C17.9272 2.27571 17.4817 3.21289 16.9818 4.07922C16.6735 4.5958 16.3904 5.04349 16.1319 5.42256C15.8737 5.80149 15.6571 6.08068 15.4823 6.25964C15.3073 6.43878 15.1493 6.58229 15.0074 6.69071C14.8657 6.79916 14.7575 6.84499 14.6827 6.82822C14.6076 6.81146 14.5369 6.79483 14.47 6.7782C14.3534 6.70318 14.2597 6.60116 14.189 6.47205C14.118 6.34293 14.0702 6.18043 14.0452 5.98466C14.0204 5.78875 14.0057 5.62025 14.0015 5.47858C13.9976 5.33708 13.9994 5.13693 14.0078 4.87871C14.0165 4.62035 14.0204 4.44555 14.0204 4.3539C14.0204 4.03729 14.0265 3.69367 14.0389 3.32296C14.0515 2.95226 14.0617 2.65854 14.0703 2.44215C14.0788 2.22555 14.0827 1.99639 14.0827 1.75479C14.0827 1.5132 14.068 1.32373 14.0389 1.18621C14.0102 1.04887 13.9661 0.915559 13.9081 0.786314C13.8496 0.657202 13.7641 0.557325 13.6519 0.486423C13.5395 0.415608 13.3997 0.359411 13.2333 0.317657C12.7917 0.217737 12.2295 0.163685 11.5462 0.155281C9.99683 0.13865 9.00126 0.238701 8.55974 0.455304C8.3848 0.546821 8.22649 0.671863 8.08495 0.830037C7.93496 1.01338 7.91404 1.11343 8.02232 1.12989C8.52223 1.20477 8.87613 1.38391 9.08442 1.66713L9.15948 1.8172C9.21786 1.92548 9.27616 2.11718 9.3345 2.39204C9.39275 2.6669 9.43035 2.97095 9.44689 3.30401C9.48847 3.91224 9.48847 4.4329 9.44689 4.86602C9.40518 5.29931 9.36579 5.63662 9.3282 5.87821C9.2906 6.11981 9.23441 6.31558 9.15948 6.46548C9.08442 6.61543 9.03448 6.70708 9.00944 6.74034C8.98445 6.7736 8.96362 6.79457 8.94708 6.80279C8.8388 6.84429 8.72618 6.86542 8.60963 6.86542C8.4929 6.86542 8.35136 6.80704 8.18478 6.69036C8.01825 6.57367 7.84542 6.4134 7.66628 6.20927C7.48714 6.0051 7.28511 5.71978 7.0601 5.35327C6.83527 4.98677 6.60199 4.55361 6.3604 4.05379L6.16052 3.69131C6.03556 3.45812 5.86487 3.11857 5.64827 2.67298C5.43153 2.22721 5.23996 1.79602 5.07343 1.37949C5.00686 1.20455 4.90685 1.07137 4.77358 0.979721L4.71104 0.942125C4.66946 0.908862 4.60272 0.873542 4.51116 0.835902C4.41946 0.798306 4.32379 0.771346 4.22374 0.754758L0.799886 0.779618C0.450013 0.779618 0.21262 0.85888 0.0876216 1.01719L0.0375959 1.09207C0.0126049 1.13378 0 1.20039 0 1.29209C0 1.38373 0.024991 1.49622 0.0750167 1.6294C0.574836 2.80411 1.11838 3.93702 1.70564 5.0283C2.29291 6.11959 2.80323 6.99865 3.23631 7.6647C3.66947 8.33123 4.11099 8.96029 4.56087 9.55158C5.01076 10.1431 5.30855 10.5222 5.45425 10.6887C5.60012 10.8555 5.7147 10.9803 5.79799 11.0636L6.11045 11.3634C6.31037 11.5634 6.60396 11.8029 6.99135 12.0819C7.37882 12.3611 7.80778 12.6359 8.27845 12.9069C8.7492 13.1774 9.29686 13.3982 9.92172 13.5689C10.5465 13.7398 11.1546 13.8084 11.7461 13.7753H13.1832C13.4746 13.7502 13.6954 13.6585 13.8455 13.5003L13.8952 13.4377C13.9286 13.388 13.9599 13.3107 13.9888 13.2068C14.0181 13.1027 14.0326 12.988 14.0326 12.8632C14.0241 12.505 14.0513 12.1822 14.1136 11.8949C14.1759 11.6076 14.2469 11.391 14.3263 11.2451C14.4057 11.0994 14.4952 10.9764 14.5949 10.8767C14.6947 10.7768 14.7659 10.7162 14.8077 10.6954C14.8491 10.6744 14.8823 10.6602 14.9073 10.6517C15.1072 10.5851 15.3425 10.6496 15.6135 10.8455C15.8843 11.0413 16.1383 11.283 16.3758 11.5703C16.6133 11.8578 16.8985 12.1804 17.2317 12.5386C17.5651 12.8969 17.8566 13.1632 18.1064 13.3384L18.3562 13.4883C18.523 13.5884 18.7396 13.68 19.0063 13.7633C19.2724 13.8466 19.5056 13.8674 19.7058 13.8258L22.9046 13.7759C23.221 13.7759 23.4672 13.7235 23.6419 13.6196C23.8168 13.5154 23.9208 13.4007 23.9543 13.2759C23.9877 13.151 23.9895 13.0093 23.9607 12.8509C23.931 12.6928 23.9018 12.5823 23.8728 12.5199Z" fill="white"/>
</svg>
