<svg width="25" height="22" viewBox="0 0 25 22" fill="none" xmlns="http://www.w3.org/2000/svg">
<path d="M9.00391 7.25C9.00391 7.71413 8.81953 8.15925 8.49134 8.48744C8.16315 8.81563 7.71804 9 7.25391 9C6.78978 9 6.34466 8.81563 6.01647 8.48744C5.68828 8.15925 5.50391 7.71413 5.50391 7.25C5.50391 6.78587 5.68828 6.34075 6.01647 6.01256C6.34466 5.68437 6.78978 5.5 7.25391 5.5C7.71804 5.5 8.16315 5.68437 8.49134 6.01256C8.81953 6.34075 9.00391 6.78587 9.00391 7.25Z" fill="white" stroke="white"/>
<path d="M3.50195 0.5C2.7063 0.5 1.94324 0.816071 1.38063 1.37868C0.818024 1.94129 0.501953 2.70435 0.501953 3.5V18.5C0.501953 19.2956 0.818024 20.0587 1.38063 20.6213C1.94324 21.1839 2.7063 21.5 3.50195 21.5H21.502C22.2976 21.5 23.0607 21.1839 23.6233 20.6213C24.1859 20.0587 24.502 19.2956 24.502 18.5V3.5C24.502 2.70435 24.1859 1.94129 23.6233 1.37868C23.0607 0.816071 22.2976 0.5 21.502 0.5H3.50195ZM21.502 2C21.8998 2 22.2813 2.15804 22.5626 2.43934C22.8439 2.72064 23.002 3.10218 23.002 3.5V13.25L17.3365 10.3295C17.1958 10.259 17.0365 10.2346 16.8812 10.2596C16.7259 10.2847 16.5824 10.3579 16.471 10.469L10.906 16.034L6.91595 13.376C6.77189 13.2801 6.5991 13.237 6.42686 13.2539C6.25463 13.2709 6.09355 13.3468 5.97095 13.469L2.00195 17V3.5C2.00195 3.10218 2.15999 2.72064 2.44129 2.43934C2.7226 2.15804 3.10413 2 3.50195 2H21.502Z" fill="white"/>
</svg>
