<svg width="18" height="16" viewBox="0 0 18 16" fill="none" xmlns="http://www.w3.org/2000/svg">
<path d="M11.1654 8.83332C11.1654 10.0299 10.1953 11 8.9987 11C7.80208 11 6.83203 10.0299 6.83203 8.83332C6.83203 7.63671 7.80208 6.66666 8.9987 6.66666C10.1953 6.66666 11.1654 7.63671 11.1654 8.83332Z" fill="white" stroke="white"/>
<path d="M6.49935 0.5L4.97435 2.16667H2.33268C1.41602 2.16667 0.666016 2.91667 0.666016 3.83333V13.8333C0.666016 14.75 1.41602 15.5 2.33268 15.5H15.666C16.5827 15.5 17.3327 14.75 17.3327 13.8333V3.83333C17.3327 2.91667 16.5827 2.16667 15.666 2.16667H13.0243L11.4993 0.5H6.49935ZM8.99935 13C6.69935 13 4.83268 11.1333 4.83268 8.83333C4.83268 6.53333 6.69935 4.66667 8.99935 4.66667C11.2993 4.66667 13.166 6.53333 13.166 8.83333C13.166 11.1333 11.2993 13 8.99935 13Z" fill="white"/>
</svg>
