<svg width="14" height="13" viewBox="0 0 14 13" fill="none" xmlns="http://www.w3.org/2000/svg">
<path d="M13.1887 4.51721L9.22154 3.94064L7.4481 0.345331C7.39966 0.246893 7.31998 0.167205 7.22154 0.118768C6.97466 -0.00310701 6.67466 0.0984555 6.55123 0.345331L4.77779 3.94064L0.810601 4.51721C0.701226 4.53283 0.601226 4.58439 0.524663 4.66252C0.432103 4.75765 0.381099 4.88564 0.382856 5.01836C0.384614 5.15109 0.438991 5.27768 0.534038 5.37033L3.40435 8.16877L2.72623 12.1203C2.71032 12.2123 2.7205 12.3068 2.75559 12.3932C2.79068 12.4797 2.84929 12.5545 2.92477 12.6094C3.00025 12.6642 3.08958 12.6968 3.18263 12.7034C3.27568 12.71 3.36873 12.6904 3.45123 12.6469L6.99966 10.7813L10.5481 12.6469C10.645 12.6985 10.7575 12.7156 10.8653 12.6969C11.1372 12.65 11.32 12.3922 11.2731 12.1203L10.595 8.16877L13.4653 5.37033C13.5434 5.29377 13.595 5.19377 13.6106 5.08439C13.6528 4.81096 13.4622 4.55783 13.1887 4.51721Z" fill="#FFA235"/>
</svg>
