<svg width="24" height="22" viewBox="0 0 24 22" fill="none" xmlns="http://www.w3.org/2000/svg">
<path d="M22.853 20.4397L2.56002 0.146671C2.3647 -0.0485647 2.04819 -0.0485647 1.85286 0.146671L1.14594 0.853643C0.950609 1.04888 0.950609 1.36547 1.14594 1.56076L4.28067 4.69553C2.30647 6.25779 0.814052 8.38752 0.0233126 10.8474C-0.00842192 10.9466 -0.00842192 11.054 0.0233126 11.1531C1.72399 16.4451 6.53701 20.0004 11.9995 20.0004C14.1361 20.0004 16.1906 19.459 18.0251 18.44L21.4389 21.8538C21.6343 22.049 21.9508 22.049 22.1461 21.8538L22.853 21.1468C23.0483 20.9516 23.0483 20.635 22.853 20.4397ZM11.9995 18.0003C8.13958 18.0003 4.99945 14.8602 4.99945 11.0003C4.99945 9.48089 5.49909 8.01524 6.3991 6.81392L8.57294 8.98781C8.21313 9.59189 7.99947 10.2743 7.99947 11.0003C7.99947 13.2058 9.7939 15.0003 11.9995 15.0003C12.7254 15.0003 13.4079 14.7866 14.0119 14.4268L16.1858 16.6006C14.9844 17.5007 13.5189 18.0003 11.9995 18.0003Z" fill="#535353"/>
<path d="M11.5781 7.31011C11.4994 7.49714 11.5419 7.71394 11.6855 7.85747L15.1425 11.3145C15.2383 11.4102 15.3662 11.461 15.4961 11.461C15.5615 11.461 15.6274 11.4483 15.6899 11.422C15.8774 11.3428 15.9985 11.1588 15.996 10.9552C15.9712 8.76423 14.2358 7.0289 12.0448 7.00397C11.8456 7.02544 11.6571 7.12261 11.5781 7.31011Z" fill="#535353"/>
<path d="M8.41911 4.59133C8.56902 4.7417 8.798 4.77981 8.98846 4.68897C9.94354 4.23194 10.9567 4 11.9997 4C15.8596 4 18.9998 7.14017 18.9998 11C18.9998 12.043 18.7678 13.0562 18.3108 14.0113C18.2195 14.2027 18.2585 14.4307 18.4084 14.5806L20.1414 16.3136C20.2351 16.4073 20.362 16.4601 20.4949 16.4601C20.4954 16.4601 20.4959 16.4601 20.4959 16.4601C20.6292 16.4596 20.7566 16.4063 20.8504 16.3121C22.2713 14.877 23.3524 13.0929 23.9759 11.1529C24.0076 11.0537 24.0076 10.9463 23.9759 10.8472C22.2752 5.55518 17.4622 1.99997 11.9997 1.99997C10.5007 1.99997 9.02755 2.26655 7.62078 2.79296C7.46159 2.85254 7.34341 2.98876 7.30727 3.15526C7.27113 3.32129 7.32242 3.49463 7.44251 3.61473L8.41911 4.59133Z" fill="#535353"/>
</svg>
