<svg width="25" height="22" viewBox="0 0 25 22" fill="none" xmlns="http://www.w3.org/2000/svg">
<path d="M23.3532 20.4397L3.06027 0.146678C2.86494 -0.0485571 2.54844 -0.0485571 2.35311 0.146678L1.64618 0.853651C1.45085 1.04889 1.45085 1.36548 1.64618 1.56076L4.78091 4.69554C2.80671 6.2578 1.3143 8.38753 0.523557 10.8474C0.491822 10.9466 0.491822 11.054 0.523557 11.1531C2.22424 16.4452 7.03725 20.0004 12.4997 20.0004C14.6363 20.0004 16.6908 19.459 18.5254 18.44L21.9392 21.8538C22.1345 22.049 22.451 22.049 22.6463 21.8538L23.3533 21.1468C23.5485 20.9516 23.5485 20.635 23.3532 20.4397ZM12.4997 18.0003C8.63982 18.0003 5.4997 14.8602 5.4997 11.0003C5.4997 9.48089 5.99934 8.01524 6.89934 6.81393L9.07318 8.98781C8.71337 9.59189 8.49971 10.2743 8.49971 11.0003C8.49971 13.2058 10.2941 15.0003 12.4997 15.0003C13.2257 15.0003 13.9081 14.7866 14.5122 14.4268L16.686 16.6006C15.4847 17.5007 14.0191 18.0003 12.4997 18.0003Z" fill="#535353"/>
<path d="M12.0785 7.3101C11.9999 7.49714 12.0424 7.71393 12.186 7.85747L15.643 11.3145C15.7387 11.4102 15.8667 11.461 15.9966 11.461C16.062 11.461 16.1279 11.4483 16.1904 11.422C16.3779 11.3428 16.499 11.1588 16.4965 10.9552C16.4716 8.76422 14.7363 7.0289 12.5453 7.00396C12.3461 7.02543 12.1576 7.1226 12.0785 7.3101Z" fill="#535353"/>
<path d="M8.9196 4.59135C9.0695 4.74173 9.29849 4.77984 9.48894 4.68899C10.444 4.23196 11.4572 4.00002 12.5002 4.00002C16.3601 4.00002 19.5002 7.14019 19.5002 11C19.5002 12.043 19.2683 13.0562 18.8113 14.0113C18.72 14.2027 18.759 14.4308 18.9089 14.5807L20.6418 16.3136C20.7356 16.4073 20.8625 16.4601 20.9954 16.4601C20.9958 16.4601 20.9964 16.4601 20.9964 16.4601C21.1297 16.4596 21.2571 16.4064 21.3509 16.3121C22.7718 14.8771 23.8528 13.0929 24.4764 11.1529C24.5081 11.0538 24.5081 10.9464 24.4764 10.8472C22.7757 5.5552 17.9627 1.99999 12.5002 1.99999C11.0012 1.99999 9.52804 2.26657 8.12126 2.79298C7.96208 2.85256 7.8439 2.98878 7.80776 3.15528C7.77162 3.32131 7.8229 3.49466 7.943 3.61475L8.9196 4.59135Z" fill="#535353"/>
</svg>
