<svg width="24" height="18" viewBox="0 0 24 18" fill="none" xmlns="http://www.w3.org/2000/svg">
<path d="M12 -3.05176e-05C6.50465 -3.05176e-05 1.67416 3.49259 0 8.99999C1.48566 14.2375 6.44413 18 12 18C17.5559 18 22.3628 14.3553 24 8.99999C22.622 4.01098 17.7444 -3.05176e-05 12 -3.05176e-05ZM12 16C7.84776 16 5 12.588 5 8.99999C5 4.81213 8.5 2 12 2C16.3777 2 19 5.68625 19 8.99999C19 12.6352 16.1522 16 12 16Z" fill="#535353"/>
<path d="M14.8284 6.17157C16.3905 7.73367 16.3905 10.2663 14.8284 11.8284C13.2663 13.3905 10.7337 13.3905 9.17157 11.8284C7.60948 10.2663 7.60948 7.73367 9.17157 6.17157C10.7337 4.60948 13.2663 4.60948 14.8284 6.17157Z" fill="#535353"/>
</svg>
